<svg width="16" height="16" viewBox="0 0 16 16" fill="none" xmlns="http://www.w3.org/2000/svg">
<circle cx="7.66675" cy="7.6665" r="5" fill="white"/>
<path d="M7.99992 14.6668C4.3197 14.6628 1.33729 11.6804 1.33325 8.00017V7.86684C1.40654 4.2032 4.42298 1.28548 8.08703 1.33409C11.7511 1.38271 14.6891 4.37943 14.6651 8.04373C14.6412 11.708 11.6643 14.6661 7.99992 14.6668ZM5.41037 8.19548C5.1504 7.93651 4.72984 7.93692 4.47037 8.19639C4.21055 8.45621 4.21055 8.87747 4.47037 9.1373L5.94701 10.6139C6.34442 11.0113 6.98875 11.0113 7.38616 10.6139L11.5299 6.47018C11.7898 6.21033 11.7905 5.78927 11.5316 5.52851C11.2714 5.26645 10.8477 5.2657 10.5866 5.52684L6.82015 9.29328C6.73529 9.37814 6.59775 9.37827 6.51272 9.29357L5.41037 8.19548Z" fill="#4DB25D"/>
</svg>
