<svg width="16" height="19" viewBox="0 0 16 19" fill="none" xmlns="http://www.w3.org/2000/svg">
<path d="M4.92694 7.29986C4.92694 7.29986 3.62808 7.92143 2.76281 8.34464C2.59583 8.43533 2.47438 8.5109 2.47438 8.72251C2.47438 8.78296 2.44402 8.84342 2.42884 8.919C2.80835 9.11549 3.18786 9.29686 3.56736 9.49336C4.44782 9.93168 5.32827 10.37 6.20873 10.8083C6.83112 11.1257 7.49905 11.2164 8.18216 11.1862C8.81973 11.156 9.42695 10.9897 10.0038 10.6874C11.1271 10.1131 12.2808 9.55381 13.4194 8.97946C13.4649 8.96434 13.4953 8.93411 13.5408 8.919C13.5104 8.78297 13.5104 8.64693 13.4649 8.52602C13.4497 8.46556 13.3738 8.42021 13.3131 8.38998C12.4175 7.93654 12.1324 7.77028 11.2367 7.33196C11.3879 7.18081 12.4511 5.94141 12.4511 5.94141C13.4227 6.44019 13.814 6.6518 14.8008 7.13546C14.9374 7.21104 15.074 7.2715 15.2258 7.33196C15.7268 7.54356 16.0455 8.07258 15.9848 8.60159C15.9696 8.70739 16 8.81319 16 8.90388C16 10.4305 16 11.957 16 13.4987C16 13.7557 15.9848 14.0278 15.9393 14.2847C15.8634 14.6323 15.6357 14.8742 15.3169 15.0404C14.3757 15.509 13.4194 15.9624 12.4782 16.431C11.5674 16.8844 10.6717 17.3379 9.77609 17.7762C9.09298 18.1087 8.37951 18.1843 7.63567 18.1238C7.04364 18.0785 6.49715 17.882 5.96584 17.6099C4.40228 16.8089 2.82353 16.038 1.25996 15.2672C1.06262 15.2067 0.910816 15.1462 0.774194 15.0858C0.258064 14.8742 -0.0455408 14.3452 0.0151803 13.801C0.0303605 13.6952 0 13.5894 0 13.4987C0 11.9722 0 10.4456 0 8.90388C0 8.69228 0 8.48067 0.0303605 8.28418C0.0910816 7.84586 0.333966 7.54356 0.728653 7.34707C1.79127 6.81806 3.5 6 3.5 6L4.92694 7.29986Z" fill="white"/>
<path d="M9.46751 5.08156C9.70616 5.08156 9.91498 5.08156 10.1387 5.08156C10.3326 5.08156 10.5265 5.08156 10.7204 5.08156C11.1381 5.08156 11.4811 5.49857 11.4215 5.93103C11.3916 6.17814 11.2574 6.33259 11.0933 6.47159C11.0336 6.51793 10.9889 6.56426 10.9442 6.6106C10.3326 7.24384 9.72107 7.87707 9.10953 8.49487C8.97529 8.63387 8.82614 8.77287 8.67698 8.89643C8.24443 9.25166 7.63289 9.22077 7.23016 8.81921C6.51421 8.0933 5.79826 7.35195 5.08231 6.62604C5.02265 6.56426 4.94807 6.50248 4.88841 6.45615C4.57518 6.20903 4.5006 5.90013 4.63485 5.5449C4.76909 5.20512 5.08231 5.05067 5.44029 5.097C5.61928 5.11245 5.78335 5.08156 5.96234 5.08156C6.14132 5.08156 6.32031 5.08156 6.52913 5.08156C6.52913 5.00433 6.52913 4.94255 6.52913 4.86533C6.52913 3.59885 6.52913 2.33238 6.52913 1.0659C6.52913 0.540778 6.82744 0.123767 7.30474 0.031099C7.48373 -0.0152362 7.67763 0.0156533 7.87154 0.000208544C8.08035 0.000208562 8.28917 0.00020858 8.49799 0.000208599C9.0797 0.0156534 9.48242 0.448109 9.49734 1.05046C9.49734 2.31693 9.49734 3.59885 9.49734 4.86533C9.46751 4.92711 9.46751 5.00433 9.46751 5.08156Z" fill="white"/>
</svg>
