<svg width="24" height="24" viewBox="0 0 24 24" fill="none" xmlns="http://www.w3.org/2000/svg">
<path fill-rule="evenodd" clip-rule="evenodd" d="M21.8294 4.00439C23.0134 4.00439 23.9753 4.96637 23.9753 6.15033H24V14.8821C24 16.0661 23.038 17.028 21.8541 17.028H15.9589C15.9342 17.028 15.9342 17.0527 15.9342 17.0527L13.1716 19.7906C12.9003 20.0866 12.4317 19.8893 12.4317 19.4946V17.028H10.261C9.07708 17.028 8.11511 16.0661 8.11511 14.8821V6.15033C8.11511 4.96637 9.07708 4.00439 10.261 4.00439H21.8294ZM0.986639 5.60768C0.443988 5.60768 0 6.05167 0 6.59432C0 7.13697 0.443988 7.58096 0.986639 7.58096H5.32785C5.8705 7.58096 6.31449 7.13697 6.31449 6.59432C6.31449 6.05167 5.8705 5.60768 5.32785 5.60768H0.986639ZM5.30319 11.5029C5.84584 11.5029 6.28983 11.0589 6.28983 10.5162C6.28983 9.97356 5.8705 9.52957 5.30319 9.52957H2.09661C1.55396 9.52957 1.10997 9.97356 1.10997 10.5162C1.10997 11.0589 1.55396 11.5029 2.09661 11.5029H5.30319ZM5.30319 15.4247C5.84584 15.4247 6.28983 14.9808 6.28983 14.4381C6.28983 13.8955 5.8705 13.4515 5.32785 13.4515H3.35457C2.81192 13.4515 2.36793 13.8955 2.36793 14.4381C2.36793 14.9808 2.81192 15.4247 3.35457 15.4247H5.30319Z" fill="#4DB25D"/>
</svg>
