<svg width="24" height="24" viewBox="0 0 24 24" fill="none" xmlns="http://www.w3.org/2000/svg">
<path fill-rule="evenodd" clip-rule="evenodd" d="M21.8294 4.00488C23.0134 4.00488 23.9753 4.96686 23.9753 6.15082H24V14.8826C24 16.0665 23.038 17.0285 21.8541 17.0285H15.9589C15.9342 17.0285 15.9342 17.0532 15.9342 17.0532L13.1716 19.7911C12.9003 20.0871 12.4317 19.8898 12.4317 19.4951V17.0285H10.261C9.07708 17.0285 8.11511 16.0665 8.11511 14.8826V6.15082C8.11511 4.96686 9.07708 4.00488 10.261 4.00488H21.8294ZM0.986639 5.60817C0.443988 5.60817 0 6.05216 0 6.59481C0 7.13746 0.443988 7.58145 0.986639 7.58145H5.32785C5.8705 7.58145 6.31449 7.13746 6.31449 6.59481C6.31449 6.05216 5.8705 5.60817 5.32785 5.60817H0.986639ZM5.30319 11.5033C5.84584 11.5033 6.28983 11.0594 6.28983 10.5167C6.28983 9.97405 5.8705 9.53006 5.30319 9.53006H2.09661C1.55396 9.53006 1.10997 9.97405 1.10997 10.5167C1.10997 11.0594 1.55396 11.5033 2.09661 11.5033H5.30319ZM5.30319 15.4252C5.84584 15.4252 6.28983 14.9812 6.28983 14.4386C6.28983 13.8959 5.8705 13.452 5.32785 13.452H3.35457C2.81192 13.452 2.36793 13.8959 2.36793 14.4386C2.36793 14.9812 2.81192 15.4252 3.35457 15.4252H5.30319Z" fill="#3B7CD8"/>
</svg>
