<svg width="56" height="56" viewBox="0 0 56 56" fill="none" xmlns="http://www.w3.org/2000/svg">
<circle cx="28" cy="28" r="28" fill="#FED70A" fill-opacity="0.2"/>
<path d="M16.254 44H28.5012H40.7485C41.4636 44 42 43.427 42 42.7658V13.2342C42 12.5289 41.4189 12 40.7485 12H28.5012H16.254C15.5388 12 15.0024 12.573 15.0024 13.2342V42.7218C14.9577 43.427 15.5388 44 16.254 44ZM17.5055 14.5124H28.4565H39.4075V41.5317H28.5012H17.5055V14.5124Z" fill="#FED70A"/>
<path d="M25.9987 22.0498C26.2222 23.1958 27.2502 24.0773 28.4571 24.0773C29.6639 24.0773 30.692 23.2399 30.9154 22.0498L31.3177 20.1104C31.5412 18.5236 30.2897 17.1572 28.6805 17.1572H28.4571H28.2336C26.6244 17.1572 25.3729 18.5677 25.5964 20.1104L25.9987 22.0498ZM34.2231 26.3253C34.1784 26.0608 33.9996 25.8845 33.7314 25.7963L31.0495 24.8707L28.4571 27.4272L25.8646 24.8707L23.1827 25.7963C22.9592 25.8845 22.7357 26.1049 22.691 26.3253L21.7971 30.5567H35.1171L34.2231 26.3253ZM36.1451 34.2592C36.1451 33.8184 35.7875 33.4658 35.3405 33.4658H21.663C21.216 33.4658 20.8584 33.8184 20.8584 34.2592C20.8584 34.6999 21.216 35.0525 21.663 35.0525H35.3405C35.7428 35.0525 36.1451 34.6999 36.1451 34.2592Z" fill="#FED70A"/>
<path d="M35.3405 36.5512C35.7875 36.5512 36.1451 36.9038 36.1451 37.3446C36.1451 37.7853 35.7428 38.1379 35.3405 38.1379H21.663C21.216 38.1379 20.8584 37.7853 20.8584 37.3446C20.8584 36.9038 21.216 36.5512 21.663 36.5512H35.3405Z" fill="#FED70A"/>
</svg>
