<svg width="20" height="21" viewBox="0 0 20 21" fill="none" xmlns="http://www.w3.org/2000/svg">
<path d="M14.7816 18.7648C14.6594 18.7653 14.5401 18.7243 14.4408 18.6476L9.77241 15.0054L5.10404 18.6476C5.0043 18.7254 4.88415 18.7671 4.76094 18.7666C4.63773 18.7661 4.51786 18.7235 4.41865 18.6449C4.31944 18.5663 4.24604 18.4557 4.20905 18.3292C4.17207 18.2028 4.17342 18.0669 4.21291 17.9413L6.03365 12.1378L1.31482 8.65538C1.21261 8.58003 1.13546 8.47149 1.09466 8.3456C1.05385 8.21971 1.05153 8.08308 1.08802 7.95566C1.12451 7.82825 1.19791 7.71673 1.29749 7.63741C1.39707 7.55808 1.51761 7.51511 1.64151 7.51476H7.46309L9.21995 1.6964C9.25779 1.57078 9.33164 1.46129 9.43089 1.38364C9.53015 1.30599 9.6497 1.26416 9.77241 1.26416C9.89512 1.26416 10.0147 1.30599 10.1139 1.38364C10.2132 1.46129 10.287 1.57078 10.3249 1.6964L12.0817 7.51671H17.9033C18.0274 7.51664 18.1482 7.55932 18.2481 7.63849C18.3479 7.71767 18.4216 7.82917 18.4583 7.95668C18.4951 8.08419 18.4929 8.22101 18.4521 8.34709C18.4114 8.47317 18.3342 8.58189 18.2318 8.65733L13.5112 12.1378L15.3308 17.9398C15.3603 18.0337 15.3686 18.1338 15.355 18.2319C15.3414 18.33 15.3064 18.4231 15.2527 18.5037C15.1991 18.5843 15.1284 18.65 15.0464 18.6954C14.9645 18.7408 14.8738 18.7646 14.7816 18.7648Z" fill="#FED70A"/>
</svg>
