<svg width="40" height="40" viewBox="0 0 40 40" fill="none" xmlns="http://www.w3.org/2000/svg">
<circle cx="20" cy="20" r="20" fill="#FED70A" fill-opacity="0.2"/>
<path d="M29.688 18.7459C29.528 18.6439 28.266 17.8899 27.766 17.66L27.1461 16.16C27.3301 15.664 27.684 14.274 27.7461 14.0319H27.746C27.7965 13.8081 27.7285 13.5741 27.566 13.4119L26.588 12.44C26.4263 12.2768 26.1918 12.2087 25.9681 12.26C25.784 12.302 24.368 12.66 23.84 12.8601L22.34 12.2401C22.1219 11.76 21.388 10.5301 21.254 10.3181V10.3179C21.1335 10.1207 20.9192 10.0003 20.688 10H19.3119C19.0823 10.0001 18.8687 10.1179 18.7459 10.3119C18.6439 10.472 17.8899 11.7339 17.66 12.2339L16.16 12.8539C15.664 12.6699 14.2739 12.316 14.0319 12.2539V12.254C13.8081 12.2035 13.5741 12.2715 13.4119 12.434L12.44 13.412C12.2768 13.5736 12.2087 13.8082 12.26 14.0319C12.302 14.2159 12.66 15.632 12.86 16.16L12.2401 17.66C11.76 17.8781 10.5301 18.612 10.3181 18.7459H10.3179C10.1207 18.8665 10.0003 19.0808 10 19.3119V20.686C10.0001 20.9157 10.1179 21.1293 10.3119 21.252C10.472 21.354 11.7339 22.108 12.2339 22.3379L12.8539 23.8379C12.6699 24.3339 12.316 25.7239 12.2539 25.966H12.254C12.2035 26.1899 12.2715 26.424 12.434 26.5859L13.406 27.5579V27.5581C13.5676 27.7213 13.8022 27.7892 14.0259 27.738C14.2099 27.696 15.626 27.3381 16.154 27.138L17.654 27.7579C17.8721 28.238 18.606 29.4679 18.7399 29.68C18.861 29.8799 19.0782 30.0014 19.3119 30H20.686C20.9157 29.9998 21.1293 29.8821 21.252 29.688C21.354 29.528 22.108 28.266 22.3379 27.766L23.8379 27.1461C24.3339 27.3301 25.7239 27.684 25.966 27.7461V27.746C26.1899 27.7965 26.424 27.7285 26.5859 27.566L27.5579 26.594H27.5581C27.7213 26.4323 27.7892 26.1978 27.738 25.9741C27.696 25.7901 27.3381 24.374 27.138 23.846L27.7579 22.346C28.238 22.1279 29.4679 21.394 29.68 21.2601C29.8799 21.139 30.0014 20.9217 30 20.6881V19.3119C30.0018 19.0819 29.8835 18.8673 29.688 18.7459L29.688 18.7459ZM19.9998 24.3538C18.844 24.3528 17.736 23.8926 16.9194 23.0746C16.1029 22.2566 15.6447 21.1478 15.6458 19.9919C15.6468 18.8361 16.1071 17.728 16.925 16.9114C17.7431 16.0949 18.8519 15.6368 20.0077 15.6378C21.1635 15.639 22.2717 16.0991 23.0882 16.9171C23.9048 17.7352 24.3628 18.844 24.3618 19.9999C24.3591 21.1551 23.8985 22.2623 23.0808 23.0785C22.263 23.8947 21.155 24.3534 19.9998 24.3538H19.9998Z" fill="#FED70A"/>
</svg>
