<svg width="33" height="32" viewBox="0 0 33 32" fill="none" xmlns="http://www.w3.org/2000/svg">
<path d="M16.6179 7.2001C16.6179 9.18832 14.9011 10.8001 12.7832 10.8001C10.6654 10.8001 8.9486 9.18832 8.9486 7.2001C8.9486 5.21187 10.6654 3.6001 12.7832 3.6001C14.9011 3.6001 16.6179 5.21187 16.6179 7.2001Z" fill="#0F0D00"/>
<path d="M16.6179 7.2001C16.6179 9.18832 14.9011 10.8001 12.7832 10.8001C10.6654 10.8001 8.9486 9.18832 8.9486 7.2001C8.9486 5.21187 10.6654 3.6001 12.7832 3.6001C14.9011 3.6001 16.6179 5.21187 16.6179 7.2001Z" fill="black" fill-opacity="0.2"/>
<path d="M16.6179 7.2001C16.6179 9.18832 14.9011 10.8001 12.7832 10.8001C10.6654 10.8001 8.9486 9.18832 8.9486 7.2001C8.9486 5.21187 10.6654 3.6001 12.7832 3.6001C14.9011 3.6001 16.6179 5.21187 16.6179 7.2001Z" fill="black" fill-opacity="0.2"/>
<path d="M23.009 9.6001C23.009 10.9256 21.8644 12.0001 20.4525 12.0001C19.0407 12.0001 17.8961 10.9256 17.8961 9.6001C17.8961 8.27461 19.0407 7.2001 20.4525 7.2001C21.8644 7.2001 23.009 8.27461 23.009 9.6001Z" fill="#0F0D00"/>
<path d="M23.009 9.6001C23.009 10.9256 21.8644 12.0001 20.4525 12.0001C19.0407 12.0001 17.8961 10.9256 17.8961 9.6001C17.8961 8.27461 19.0407 7.2001 20.4525 7.2001C21.8644 7.2001 23.009 8.27461 23.009 9.6001Z" fill="black" fill-opacity="0.2"/>
<path d="M23.009 9.6001C23.009 10.9256 21.8644 12.0001 20.4525 12.0001C19.0407 12.0001 17.8961 10.9256 17.8961 9.6001C17.8961 8.27461 19.0407 7.2001 20.4525 7.2001C21.8644 7.2001 23.009 8.27461 23.009 9.6001Z" fill="black" fill-opacity="0.2"/>
<path d="M17.8961 18.0001C17.8961 15.3491 15.607 13.2001 12.7832 13.2001C9.95949 13.2001 7.67038 15.3491 7.67038 18.0001V21.6001H17.8961V18.0001Z" fill="#0F0D00"/>
<path d="M17.8961 18.0001C17.8961 15.3491 15.607 13.2001 12.7832 13.2001C9.95949 13.2001 7.67038 15.3491 7.67038 18.0001V21.6001H17.8961V18.0001Z" fill="black" fill-opacity="0.2"/>
<path d="M17.8961 18.0001C17.8961 15.3491 15.607 13.2001 12.7832 13.2001C9.95949 13.2001 7.67038 15.3491 7.67038 18.0001V21.6001H17.8961V18.0001Z" fill="black" fill-opacity="0.2"/>
<path d="M7.67038 9.6001C7.67038 10.9256 6.52583 12.0001 5.11395 12.0001C3.70207 12.0001 2.55751 10.9256 2.55751 9.6001C2.55751 8.27461 3.70207 7.2001 5.11395 7.2001C6.52583 7.2001 7.67038 8.27461 7.67038 9.6001Z" fill="#0F0D00"/>
<path d="M7.67038 9.6001C7.67038 10.9256 6.52583 12.0001 5.11395 12.0001C3.70207 12.0001 2.55751 10.9256 2.55751 9.6001C2.55751 8.27461 3.70207 7.2001 5.11395 7.2001C6.52583 7.2001 7.67038 8.27461 7.67038 9.6001Z" fill="black" fill-opacity="0.2"/>
<path d="M7.67038 9.6001C7.67038 10.9256 6.52583 12.0001 5.11395 12.0001C3.70207 12.0001 2.55751 10.9256 2.55751 9.6001C2.55751 8.27461 3.70207 7.2001 5.11395 7.2001C6.52583 7.2001 7.67038 8.27461 7.67038 9.6001Z" fill="black" fill-opacity="0.2"/>
<path d="M20.4525 21.6001V18.0001C20.4525 16.7351 20.1051 15.5463 19.4948 14.5133C19.8009 14.4394 20.1219 14.4001 20.4525 14.4001C22.5704 14.4001 24.2872 16.0119 24.2872 18.0001V21.6001H20.4525Z" fill="#0F0D00"/>
<path d="M20.4525 21.6001V18.0001C20.4525 16.7351 20.1051 15.5463 19.4948 14.5133C19.8009 14.4394 20.1219 14.4001 20.4525 14.4001C22.5704 14.4001 24.2872 16.0119 24.2872 18.0001V21.6001H20.4525Z" fill="black" fill-opacity="0.2"/>
<path d="M20.4525 21.6001V18.0001C20.4525 16.7351 20.1051 15.5463 19.4948 14.5133C19.8009 14.4394 20.1219 14.4001 20.4525 14.4001C22.5704 14.4001 24.2872 16.0119 24.2872 18.0001V21.6001H20.4525Z" fill="black" fill-opacity="0.2"/>
<path d="M6.07167 14.5133C5.46143 15.5463 5.11395 16.7351 5.11395 18.0001V21.6001H1.2793V18.0001C1.2793 16.0119 2.99613 14.4001 5.11395 14.4001C5.44463 14.4001 5.76554 14.4394 6.07167 14.5133Z" fill="#0F0D00"/>
<path d="M6.07167 14.5133C5.46143 15.5463 5.11395 16.7351 5.11395 18.0001V21.6001H1.2793V18.0001C1.2793 16.0119 2.99613 14.4001 5.11395 14.4001C5.44463 14.4001 5.76554 14.4394 6.07167 14.5133Z" fill="black" fill-opacity="0.2"/>
<path d="M6.07167 14.5133C5.46143 15.5463 5.11395 16.7351 5.11395 18.0001V21.6001H1.2793V18.0001C1.2793 16.0119 2.99613 14.4001 5.11395 14.4001C5.44463 14.4001 5.76554 14.4394 6.07167 14.5133Z" fill="black" fill-opacity="0.2"/>
</svg>
