<svg width="35" height="32" viewBox="0 0 35 32" fill="none" xmlns="http://www.w3.org/2000/svg">
<g filter="url(#filter0_d_6954_57818)">
<path d="M6.77231 24.397V17.6634C2.15088 17.3799 2.00001 13.9179 2 11.8738C2 11.2197 2.00999 9.80997 2.12271 5.61392C2.23543 1.41785 5.26568 1.00676 6.77231 1.00675H21.2846C27.2024 0.794116 25.8084 5.6329 25.9543 11.3231C26.0804 16.2388 24.0388 17.509 21.1927 17.509L14.6625 17.6634C13.7467 18.6085 11.4501 21.1926 9.09711 23.4756C7.0171 25.4936 6.77231 25.1816 6.77231 24.397Z" fill="#0F0D00" fill-opacity="0.9"/>
</g>
<path d="M19.1119 20.8401H15.3609L13 23.1245H18.145L23.6181 28.421C25.3354 29.9736 25.932 28.0332 25.932 26.9275V23.1245H27.7423C31.8978 23.1245 32.9195 19.8696 32.989 17.5741C33.0586 15.2785 32.7769 8.23949 32.7144 7.36407C32.5783 5.45819 29.7887 5 28.8174 5V7.36407C30.7346 7.36407 30.6212 8.4679 30.6212 9.52256V17.0372C30.6212 20.189 29.7099 20.8401 27.7423 20.8401H23.4987L23.5941 25.3515L19.1119 20.8401Z" fill="#0F0D00" fill-opacity="0.1"/>
<path d="M19.1119 20.8401H15.3609L13 23.1245H18.145L23.6181 28.421C25.3354 29.9736 25.932 28.0332 25.932 26.9275V23.1245H27.7423C31.8978 23.1245 32.9195 19.8696 32.989 17.5741C33.0586 15.2785 32.7769 8.23949 32.7144 7.36407C32.5783 5.45819 29.7887 5 28.8174 5V7.36407C30.7346 7.36407 30.6212 8.4679 30.6212 9.52256V17.0372C30.6212 20.189 29.7099 20.8401 27.7423 20.8401H23.4987L23.5941 25.3515L19.1119 20.8401Z" fill="#0F0D00" fill-opacity="0.1"/>
<path d="M19.5 11C20.3284 11 21 10.3284 21 9.5C21 8.67157 20.3284 8 19.5 8C18.6716 8 18 8.67157 18 9.5C18 10.3284 18.6716 11 19.5 11Z" fill="white" fill-opacity="0.7"/>
<path d="M19.5 11C20.3284 11 21 10.3284 21 9.5C21 8.67157 20.3284 8 19.5 8C18.6716 8 18 8.67157 18 9.5C18 10.3284 18.6716 11 19.5 11Z" fill="white" fill-opacity="0.7"/>
<path d="M9.5 11C10.3284 11 11 10.3284 11 9.5C11 8.67157 10.3284 8 9.5 8C8.67157 8 8 8.67157 8 9.5C8 10.3284 8.67157 11 9.5 11Z" fill="white" fill-opacity="0.7"/>
<path d="M9.5 11C10.3284 11 11 10.3284 11 9.5C11 8.67157 10.3284 8 9.5 8C8.67157 8 8 8.67157 8 9.5C8 10.3284 8.67157 11 9.5 11Z" fill="white" fill-opacity="0.7"/>
<path d="M14.5 11C15.3284 11 16 10.3284 16 9.5C16 8.67157 15.3284 8 14.5 8C13.6716 8 13 8.67157 13 9.5C13 10.3284 13.6716 11 14.5 11Z" fill="white" fill-opacity="0.7"/>
<path d="M14.5 11C15.3284 11 16 10.3284 16 9.5C16 8.67157 15.3284 8 14.5 8C13.6716 8 13 8.67157 13 9.5C13 10.3284 13.6716 11 14.5 11Z" fill="white" fill-opacity="0.7"/>
<defs>
<filter id="filter0_d_6954_57818" x="1" y="1" width="26" height="26" filterUnits="userSpaceOnUse" color-interpolation-filters="sRGB">
<feFlood flood-opacity="0" result="BackgroundImageFix"/>
<feColorMatrix in="SourceAlpha" type="matrix" values="0 0 0 0 0 0 0 0 0 0 0 0 0 0 0 0 0 0 127 0" result="hardAlpha"/>
<feOffset dy="1"/>
<feGaussianBlur stdDeviation="0.5"/>
<feColorMatrix type="matrix" values="0 0 0 0 0 0 0 0 0 0 0 0 0 0 0 0 0 0 0.25 0"/>
<feBlend mode="normal" in2="BackgroundImageFix" result="effect1_dropShadow_6954_57818"/>
<feBlend mode="normal" in="SourceGraphic" in2="effect1_dropShadow_6954_57818" result="shape"/>
</filter>
</defs>
</svg>
