<svg width="32" height="32" viewBox="0 0 32 32" fill="none" xmlns="http://www.w3.org/2000/svg">
<path d="M28 9H4C2.34315 9 1 10.3431 1 12V28C1 29.6569 2.34315 31 4 31H28C29.6569 31 31 29.6569 31 28V12C31 10.3431 29.6569 9 28 9Z" fill="#0F0D00"/>
<path d="M28 9H4C2.34315 9 1 10.3431 1 12V28C1 29.6569 2.34315 31 4 31H28C29.6569 31 31 29.6569 31 28V12C31 10.3431 29.6569 9 28 9Z" fill="black" fill-opacity="0.2"/>
<path d="M28 9H4C2.34315 9 1 10.3431 1 12V28C1 29.6569 2.34315 31 4 31H28C29.6569 31 31 29.6569 31 28V12C31 10.3431 29.6569 9 28 9Z" fill="black" fill-opacity="0.2"/>
<path d="M29.9289 29.4855H5.67834C4.87439 29.4855 4.10336 29.1664 3.53487 28.5984C2.96639 28.0304 2.64702 27.2599 2.64702 26.4566V10.3024C2.64653 9.85078 2.75026 9.40509 2.95015 9C2.37857 9.21804 1.88639 9.60379 1.53832 10.1066C1.19026 10.6093 1.00259 11.2056 1 11.8169V27.9711C1 28.7744 1.31937 29.5448 1.88785 30.1129C2.45634 30.6809 3.22737 31 4.03132 31H28.2819C28.8516 30.9965 29.4087 30.8327 29.8894 30.5273C30.3702 30.2219 30.7551 29.7874 31 29.2735C30.6594 29.4106 30.2961 29.4825 29.9289 29.4855Z" fill="#0F0D00"/>
<path d="M29.9289 29.4855H5.67834C4.87439 29.4855 4.10336 29.1664 3.53487 28.5984C2.96639 28.0304 2.64702 27.2599 2.64702 26.4566V10.3024C2.64653 9.85078 2.75026 9.40509 2.95015 9C2.37857 9.21804 1.88639 9.60379 1.53832 10.1066C1.19026 10.6093 1.00259 11.2056 1 11.8169V27.9711C1 28.7744 1.31937 29.5448 1.88785 30.1129C2.45634 30.6809 3.22737 31 4.03132 31H28.2819C28.8516 30.9965 29.4087 30.8327 29.8894 30.5273C30.3702 30.2219 30.7551 29.7874 31 29.2735C30.6594 29.4106 30.2961 29.4825 29.9289 29.4855Z" fill="black" fill-opacity="0.2"/>
<path d="M29.9289 29.4855H5.67834C4.87439 29.4855 4.10336 29.1664 3.53487 28.5984C2.96639 28.0304 2.64702 27.2599 2.64702 26.4566V10.3024C2.64653 9.85078 2.75026 9.40509 2.95015 9C2.37857 9.21804 1.88639 9.60379 1.53832 10.1066C1.19026 10.6093 1.00259 11.2056 1 11.8169V27.9711C1 28.7744 1.31937 29.5448 1.88785 30.1129C2.45634 30.6809 3.22737 31 4.03132 31H28.2819C28.8516 30.9965 29.4087 30.8327 29.8894 30.5273C30.3702 30.2219 30.7551 29.7874 31 29.2735C30.6594 29.4106 30.2961 29.4825 29.9289 29.4855Z" fill="black" fill-opacity="0.2"/>
<path d="M27.3287 9H3.67131C3.10906 9.00239 2.55913 9.16737 2.086 9.47557C1.61287 9.78378 1.23614 10.2225 1 10.7402L14.741 24.6815C14.9424 24.8854 15.2154 25 15.5 25C15.7846 25 16.0576 24.8854 16.259 24.6815L30 10.7402C29.7639 10.2225 29.3871 9.78378 28.914 9.47557C28.4409 9.16737 27.8909 9.00239 27.3287 9Z" fill="white" fill-opacity="0.6"/>
<path d="M31 29.0003L21.1654 19.3218C21.0645 19.22 20.944 19.139 20.8109 19.0837C20.6779 19.0285 20.535 19 20.3906 19C20.2463 19 20.1034 19.0285 19.9703 19.0837C19.8373 19.139 19.7167 19.22 19.6158 19.3218L16 22.8813L12.3842 19.3218C12.2833 19.22 12.1627 19.139 12.0297 19.0837C11.8966 19.0285 11.7537 19 11.6094 19C11.465 19 11.3221 19.0285 11.1891 19.0837C11.056 19.139 10.9355 19.22 10.8346 19.3218L1 29.0003C1.20838 29.5822 1.59349 30.0864 2.10282 30.4443C2.61215 30.8021 3.2209 30.9962 3.84605 31H28.1539C28.7791 30.9962 29.3879 30.8021 29.8972 30.4443C30.4065 30.0864 30.7916 29.5822 31 29.0003Z" fill="#0F0D00"/>
<path d="M31 29.0003L21.1654 19.3218C21.0645 19.22 20.944 19.139 20.8109 19.0837C20.6779 19.0285 20.535 19 20.3906 19C20.2463 19 20.1034 19.0285 19.9703 19.0837C19.8373 19.139 19.7167 19.22 19.6158 19.3218L16 22.8813L12.3842 19.3218C12.2833 19.22 12.1627 19.139 12.0297 19.0837C11.8966 19.0285 11.7537 19 11.6094 19C11.465 19 11.3221 19.0285 11.1891 19.0837C11.056 19.139 10.9355 19.22 10.8346 19.3218L1 29.0003C1.20838 29.5822 1.59349 30.0864 2.10282 30.4443C2.61215 30.8021 3.2209 30.9962 3.84605 31H28.1539C28.7791 30.9962 29.3879 30.8021 29.8972 30.4443C30.4065 30.0864 30.7916 29.5822 31 29.0003Z" fill="black" fill-opacity="0.2"/>
<path d="M31 29.0003L21.1654 19.3218C21.0645 19.22 20.944 19.139 20.8109 19.0837C20.6779 19.0285 20.535 19 20.3906 19C20.2463 19 20.1034 19.0285 19.9703 19.0837C19.8373 19.139 19.7167 19.22 19.6158 19.3218L16 22.8813L12.3842 19.3218C12.2833 19.22 12.1627 19.139 12.0297 19.0837C11.8966 19.0285 11.7537 19 11.6094 19C11.465 19 11.3221 19.0285 11.1891 19.0837C11.056 19.139 10.9355 19.22 10.8346 19.3218L1 29.0003C1.20838 29.5822 1.59349 30.0864 2.10282 30.4443C2.61215 30.8021 3.2209 30.9962 3.84605 31H28.1539C28.7791 30.9962 29.3879 30.8021 29.8972 30.4443C30.4065 30.0864 30.7916 29.5822 31 29.0003Z" fill="black" fill-opacity="0.2"/>
<path d="M27.9919 30.9091L28.2675 30.8309L28.4447 30.7527C28.5186 30.7241 28.5909 30.6905 28.6612 30.6522L28.8384 30.5405L29.0353 30.4065L29.1928 30.2724L29.3601 30.1049C29.4162 30.0617 29.466 30.009 29.5078 29.9485L29.6555 29.7587C29.701 29.7019 29.7438 29.6422 29.7834 29.58L29.9114 29.3566L30 29.1667V29.0886C29.6697 29.2312 29.3198 29.3068 28.9664 29.3119H5.34114C4.72007 29.3091 4.11561 29.0841 3.61371 28.669C3.1118 28.254 2.73801 27.67 2.54549 27L1 28.7535C1.04922 28.8875 1.10828 29.0327 1.16735 29.1667C1.17265 29.1962 1.17265 29.2266 1.16735 29.2561L1.37407 29.6135L1.44297 29.7028C1.58296 29.897 1.74142 30.0731 1.91548 30.2278C1.9528 30.2677 1.99225 30.305 2.0336 30.3394L2.23048 30.4735L2.48642 30.641L2.6833 30.7304L3.01799 30.842H3.18534C3.37307 30.9168 3.56808 30.9655 3.76612 30.9872H27.3914C27.5419 31.0043 27.6936 31.0043 27.8442 30.9872C27.8957 30.967 27.9451 30.9408 27.9919 30.9091Z" fill="#0F0D00"/>
<path d="M27.9919 30.9091L28.2675 30.8309L28.4447 30.7527C28.5186 30.7241 28.5909 30.6905 28.6612 30.6522L28.8384 30.5405L29.0353 30.4065L29.1928 30.2724L29.3601 30.1049C29.4162 30.0617 29.466 30.009 29.5078 29.9485L29.6555 29.7587C29.701 29.7019 29.7438 29.6422 29.7834 29.58L29.9114 29.3566L30 29.1667V29.0886C29.6697 29.2312 29.3198 29.3068 28.9664 29.3119H5.34114C4.72007 29.3091 4.11561 29.0841 3.61371 28.669C3.1118 28.254 2.73801 27.67 2.54549 27L1 28.7535C1.04922 28.8875 1.10828 29.0327 1.16735 29.1667C1.17265 29.1962 1.17265 29.2266 1.16735 29.2561L1.37407 29.6135L1.44297 29.7028C1.58296 29.897 1.74142 30.0731 1.91548 30.2278C1.9528 30.2677 1.99225 30.305 2.0336 30.3394L2.23048 30.4735L2.48642 30.641L2.6833 30.7304L3.01799 30.842H3.18534C3.37307 30.9168 3.56808 30.9655 3.76612 30.9872H27.3914C27.5419 31.0043 27.6936 31.0043 27.8442 30.9872C27.8957 30.967 27.9451 30.9408 27.9919 30.9091Z" fill="black" fill-opacity="0.2"/>
<path d="M27.9919 30.9091L28.2675 30.8309L28.4447 30.7527C28.5186 30.7241 28.5909 30.6905 28.6612 30.6522L28.8384 30.5405L29.0353 30.4065L29.1928 30.2724L29.3601 30.1049C29.4162 30.0617 29.466 30.009 29.5078 29.9485L29.6555 29.7587C29.701 29.7019 29.7438 29.6422 29.7834 29.58L29.9114 29.3566L30 29.1667V29.0886C29.6697 29.2312 29.3198 29.3068 28.9664 29.3119H5.34114C4.72007 29.3091 4.11561 29.0841 3.61371 28.669C3.1118 28.254 2.73801 27.67 2.54549 27L1 28.7535C1.04922 28.8875 1.10828 29.0327 1.16735 29.1667C1.17265 29.1962 1.17265 29.2266 1.16735 29.2561L1.37407 29.6135L1.44297 29.7028C1.58296 29.897 1.74142 30.0731 1.91548 30.2278C1.9528 30.2677 1.99225 30.305 2.0336 30.3394L2.23048 30.4735L2.48642 30.641L2.6833 30.7304L3.01799 30.842H3.18534C3.37307 30.9168 3.56808 30.9655 3.76612 30.9872H27.3914C27.5419 31.0043 27.6936 31.0043 27.8442 30.9872C27.8957 30.967 27.9451 30.9408 27.9919 30.9091Z" fill="black" fill-opacity="0.2"/>
<path d="M27 9H5V14.2705L15.2431 24.6815C15.444 24.8854 15.7162 25 16 25C16.2838 25 16.556 24.8854 16.7569 24.6815L27 14.2705V9Z" fill="white" fill-opacity="0.7"/>
<path d="M26 4.00019V15.4509L16.77 24.6815C16.5656 24.8854 16.2887 25 16 25C15.7113 25 15.4344 24.8854 15.23 24.6815L6 15.4509V4.00019C6 3.20449 6.31607 2.44138 6.87868 1.87873C7.44129 1.31609 8.20435 1 9 1H23C23.7956 1 24.5587 1.31609 25.1213 1.87873C25.6839 2.44138 26 3.20449 26 4.00019Z" fill="white" fill-opacity="0.7"/>
<path d="M7.21983 16.5288V5.01007C7.21983 4.21243 7.52827 3.44746 8.07729 2.88344C8.62632 2.31943 9.37096 2.00256 10.1474 2.00256H23.8095C24.2207 2.00317 24.6269 2.09552 25 2.27324C24.7279 1.87716 24.3666 1.55453 23.9469 1.33284C23.5272 1.11116 23.0615 0.996987 22.5896 1.00006H8.92758C8.15114 1.00006 7.4065 1.31692 6.85747 1.88094C6.30844 2.44496 6 3.20993 6 4.00757V15.4862L15.0072 24.7393C15.1365 24.8642 15.2942 24.9538 15.4658 25L7.21983 16.5288Z" fill="white" fill-opacity="0.9"/>
<path d="M21 7H11C10.7348 7 10.4804 6.89464 10.2929 6.70711C10.1054 6.51957 10 6.26522 10 6C10 5.73478 10.1054 5.48043 10.2929 5.29289C10.4804 5.10536 10.7348 5 11 5H21C21.2652 5 21.5196 5.10536 21.7071 5.29289C21.8946 5.48043 22 5.73478 22 6C22 6.26522 21.8946 6.51957 21.7071 6.70711C21.5196 6.89464 21.2652 7 21 7ZM21 11H11C10.7348 11 10.4804 10.8946 10.2929 10.7071C10.1054 10.5196 10 10.2652 10 10C10 9.73478 10.1054 9.48043 10.2929 9.29289C10.4804 9.10536 10.7348 9 11 9H21C21.2652 9 21.5196 9.10536 21.7071 9.29289C21.8946 9.48043 22 9.73478 22 10C22 10.2652 21.8946 10.5196 21.7071 10.7071C21.5196 10.8946 21.2652 11 21 11ZM21 15H11C10.7348 15 10.4804 14.8946 10.2929 14.7071C10.1054 14.5196 10 14.2652 10 14C10 13.7348 10.1054 13.4804 10.2929 13.2929C10.4804 13.1054 10.7348 13 11 13H21C21.2652 13 21.5196 13.1054 21.7071 13.2929C21.8946 13.4804 22 13.7348 22 14C22 14.2652 21.8946 14.5196 21.7071 14.7071C21.5196 14.8946 21.2652 15 21 15Z" fill="#0F0D00"/>
<path d="M21 7H11C10.7348 7 10.4804 6.89464 10.2929 6.70711C10.1054 6.51957 10 6.26522 10 6C10 5.73478 10.1054 5.48043 10.2929 5.29289C10.4804 5.10536 10.7348 5 11 5H21C21.2652 5 21.5196 5.10536 21.7071 5.29289C21.8946 5.48043 22 5.73478 22 6C22 6.26522 21.8946 6.51957 21.7071 6.70711C21.5196 6.89464 21.2652 7 21 7ZM21 11H11C10.7348 11 10.4804 10.8946 10.2929 10.7071C10.1054 10.5196 10 10.2652 10 10C10 9.73478 10.1054 9.48043 10.2929 9.29289C10.4804 9.10536 10.7348 9 11 9H21C21.2652 9 21.5196 9.10536 21.7071 9.29289C21.8946 9.48043 22 9.73478 22 10C22 10.2652 21.8946 10.5196 21.7071 10.7071C21.5196 10.8946 21.2652 11 21 11ZM21 15H11C10.7348 15 10.4804 14.8946 10.2929 14.7071C10.1054 14.5196 10 14.2652 10 14C10 13.7348 10.1054 13.4804 10.2929 13.2929C10.4804 13.1054 10.7348 13 11 13H21C21.2652 13 21.5196 13.1054 21.7071 13.2929C21.8946 13.4804 22 13.7348 22 14C22 14.2652 21.8946 14.5196 21.7071 14.7071C21.5196 14.8946 21.2652 15 21 15Z" fill="black" fill-opacity="0.2"/>
<path d="M21 7H11C10.7348 7 10.4804 6.89464 10.2929 6.70711C10.1054 6.51957 10 6.26522 10 6C10 5.73478 10.1054 5.48043 10.2929 5.29289C10.4804 5.10536 10.7348 5 11 5H21C21.2652 5 21.5196 5.10536 21.7071 5.29289C21.8946 5.48043 22 5.73478 22 6C22 6.26522 21.8946 6.51957 21.7071 6.70711C21.5196 6.89464 21.2652 7 21 7ZM21 11H11C10.7348 11 10.4804 10.8946 10.2929 10.7071C10.1054 10.5196 10 10.2652 10 10C10 9.73478 10.1054 9.48043 10.2929 9.29289C10.4804 9.10536 10.7348 9 11 9H21C21.2652 9 21.5196 9.10536 21.7071 9.29289C21.8946 9.48043 22 9.73478 22 10C22 10.2652 21.8946 10.5196 21.7071 10.7071C21.5196 10.8946 21.2652 11 21 11ZM21 15H11C10.7348 15 10.4804 14.8946 10.2929 14.7071C10.1054 14.5196 10 14.2652 10 14C10 13.7348 10.1054 13.4804 10.2929 13.2929C10.4804 13.1054 10.7348 13 11 13H21C21.2652 13 21.5196 13.1054 21.7071 13.2929C21.8946 13.4804 22 13.7348 22 14C22 14.2652 21.8946 14.5196 21.7071 14.7071C21.5196 14.8946 21.2652 15 21 15Z" fill="black" fill-opacity="0.2"/>
</svg>
