<svg width="336" height="185" viewBox="0 0 336 185" fill="none" xmlns="http://www.w3.org/2000/svg">
<g opacity="0.6">
<path d="M302.23 145.518H291.034V179.099H302.23V145.518Z" fill="#4C3261"/>
<path d="M319.016 134.322C319.016 137.263 318.437 140.174 317.312 142.891C316.186 145.607 314.537 148.075 312.458 150.154C310.379 152.234 307.911 153.883 305.194 155.008C302.478 156.133 299.566 156.712 296.626 156.712C293.686 156.712 290.774 156.133 288.058 155.008C285.341 153.883 282.873 152.234 280.794 150.154C278.715 148.075 277.066 145.607 275.94 142.891C274.815 140.174 274.236 137.263 274.236 134.322C274.236 95.1474 284.268 44.7764 296.631 44.7764C308.994 44.7764 319.016 95.1474 319.016 134.322Z" fill="#BFBFBF"/>
<path d="M291.034 134.322C291.034 102.184 296.097 62.5827 303.034 49.3537C301.007 46.4537 298.863 44.7627 296.639 44.7627C284.269 44.7627 274.248 95.1337 274.248 134.309C274.202 137.806 274.986 141.265 276.538 144.401C278.089 147.536 280.362 150.258 283.17 152.344C285.979 154.429 289.242 155.818 292.692 156.397C296.142 156.975 299.68 156.726 303.015 155.671C296.115 152.903 291.034 144.449 291.034 134.322Z" fill="#A5A5A5"/>
<path d="M167.908 123.127H156.712V151.113H167.908V123.127Z" fill="#234C54"/>
<path d="M246.265 123.127H235.069V151.113H246.265V123.127Z" fill="#234C54"/>
<path d="M190.299 72.7559H179.103V179.092H190.299V72.7559Z" fill="#4C3261"/>
<path d="M83.957 134.322H72.761V179.098H83.957V134.322Z" fill="#4C3261"/>
<path d="M44.781 145.518H33.585V179.099H44.781V145.518Z" fill="#4C3261"/>
<path d="M128.733 128.728C127.992 128.718 127.256 128.856 126.569 129.132C125.882 129.409 125.256 129.819 124.729 130.34C124.201 130.86 123.782 131.48 123.496 132.164C123.21 132.848 123.063 133.581 123.063 134.323C123.063 135.064 123.21 135.797 123.496 136.481C123.782 137.165 124.201 137.785 124.729 138.305C125.256 138.826 125.882 139.236 126.569 139.513C127.256 139.79 127.992 139.927 128.733 139.917C130.217 139.92 131.639 140.512 132.687 141.561C133.736 142.611 134.326 144.033 134.328 145.517V179.098H145.528V145.518C145.523 141.066 143.751 136.798 140.603 133.65C137.454 130.502 133.185 128.732 128.733 128.728Z" fill="#234C54"/>
<path d="M274.244 128.728C269.793 128.733 265.525 130.503 262.378 133.651C259.23 136.799 257.459 141.066 257.454 145.518V179.099H268.654V145.518C268.656 144.034 269.246 142.611 270.295 141.562C271.343 140.512 272.765 139.921 274.249 139.918C275.72 139.898 277.124 139.3 278.157 138.253C279.19 137.206 279.769 135.794 279.769 134.323C279.769 132.852 279.19 131.44 278.157 130.393C277.124 129.346 275.72 128.748 274.249 128.729L274.244 128.728Z" fill="#234C54"/>
<path d="M117.537 106.336C117.537 116.727 113.409 126.693 106.061 134.04C98.7138 141.388 88.7482 145.516 78.357 145.516C67.9658 145.516 58.0002 141.388 50.6526 134.04C43.3049 126.693 39.177 116.727 39.177 106.336C39.18 55.965 56.725 0 78.362 0C99.999 0 117.537 55.965 117.537 106.336Z" fill="#BFBFBF"/>
<path d="M72.76 125.068C72.76 142.54 57.727 156.707 39.179 156.707C20.631 156.707 5.599 142.54 5.599 125.068C5.599 84.4044 20.638 39.1494 39.18 39.1494C57.722 39.1494 72.76 84.3844 72.76 125.068Z" fill="#BFBFBF"/>
<path d="M184.698 83.9506C206.334 83.9506 223.873 66.4113 223.873 44.7756C223.873 23.1398 206.334 5.60059 184.698 5.60059C163.062 5.60059 145.523 23.1398 145.523 44.7756C145.523 66.4113 163.062 83.9506 184.698 83.9506Z" fill="#BFBFBF"/>
<path d="M330.216 184.693H5.6C4.11479 184.693 2.69041 184.103 1.6402 183.053C0.589998 182.003 0 180.578 0 179.093C0 177.608 0.589998 176.184 1.6402 175.133C2.69041 174.083 4.11479 173.493 5.6 173.493H330.216C331.701 173.493 333.126 174.083 334.176 175.133C335.226 176.184 335.816 177.608 335.816 179.093C335.816 180.578 335.226 182.003 334.176 183.053C333.126 184.103 331.701 184.693 330.216 184.693Z" fill="#BED4AD"/>
<path d="M61.572 106.336C61.572 60.392 71.299 9.836 83.957 1.311C82.2073 0.478622 80.2993 0.0315501 78.362 0C56.718 0 39.18 55.965 39.18 106.336C39.1391 111.965 40.3204 117.536 42.6422 122.664C44.9641 127.792 48.3712 132.355 52.6284 136.038C56.8855 139.72 61.8913 142.436 67.3 143.995C72.7087 145.555 78.3915 145.922 83.956 145.072C71.305 142.324 61.572 126.071 61.572 106.336Z" fill="#A5A5A5"/>
<path d="M27.99 125.068C27.99 88.3388 35.139 48.0678 44.49 40.5388C42.8435 39.6986 41.0316 39.2328 39.184 39.1748C20.643 39.1748 5.60303 84.3838 5.60303 125.094C5.60303 142.566 20.642 156.733 39.184 156.733C40.9611 156.722 42.7348 156.577 44.49 156.3C35.139 153.874 27.99 140.835 27.99 125.068Z" fill="#A5A5A5"/>
<path d="M167.907 44.7765C167.904 36.3364 170.627 28.1211 175.669 21.353C180.712 14.585 187.805 9.62614 195.893 7.21446C190.043 5.46077 183.864 5.09896 177.849 6.15793C171.834 7.21689 166.15 9.6673 161.25 13.3136C156.35 16.9598 152.371 21.701 149.63 27.1585C146.888 32.6161 145.46 38.639 145.46 44.7465C145.46 50.8539 146.888 56.8768 149.63 62.3344C152.371 67.792 156.35 72.5331 161.25 76.1794C166.15 79.8256 171.834 82.276 177.849 83.335C183.864 84.394 190.043 84.0322 195.893 82.2785C187.814 79.8717 180.727 74.9226 175.685 68.1667C170.643 61.4107 167.915 53.2084 167.907 44.7785V44.7765Z" fill="#A5A5A5"/>
<path d="M246.264 128.727H156.712C155.977 128.727 155.249 128.582 154.57 128.301C153.891 128.019 153.274 127.606 152.754 127.086C152.234 126.566 151.822 125.949 151.541 125.27C151.261 124.59 151.116 123.862 151.117 123.127V111.937C151.116 111.202 151.261 110.474 151.541 109.794C151.822 109.115 152.234 108.497 152.754 107.977C153.274 107.457 153.891 107.045 154.57 106.763C155.249 106.482 155.977 106.337 156.712 106.337H246.265C247 106.337 247.728 106.482 248.407 106.763C249.086 107.045 249.703 107.457 250.223 107.977C250.743 108.497 251.155 109.115 251.435 109.794C251.716 110.474 251.861 111.202 251.86 111.937V123.126C251.861 123.861 251.716 124.589 251.435 125.269C251.155 125.948 250.743 126.565 250.223 127.085C249.703 127.605 249.086 128.018 248.407 128.3C247.728 128.581 247 128.726 246.265 128.726L246.264 128.727Z" fill="#A3AD84"/>
<path d="M263.055 156.707H139.922C138.451 156.687 137.047 156.089 136.014 155.042C134.981 153.995 134.402 152.584 134.402 151.113C134.402 149.642 134.981 148.23 136.014 147.183C137.047 146.136 138.451 145.538 139.922 145.518H263.055C263.796 145.508 264.532 145.646 265.219 145.922C265.906 146.199 266.532 146.609 267.06 147.13C267.587 147.65 268.006 148.271 268.292 148.954C268.578 149.638 268.725 150.372 268.725 151.113C268.725 151.854 268.578 152.587 268.292 153.271C268.006 153.955 267.587 154.575 267.06 155.095C266.532 155.616 265.906 156.026 265.219 156.303C264.532 156.58 263.796 156.717 263.055 156.707Z" fill="#A3AD84"/>
</g>
</svg>
