<svg width="34" height="34" viewBox="0 0 34 34" fill="none" xmlns="http://www.w3.org/2000/svg">
<path d="M16.9997 2.83301C18.8601 2.83301 20.7022 3.19944 22.421 3.91138C24.1398 4.62332 25.7015 5.66683 27.017 6.98233C28.3325 8.29782 29.376 9.85955 30.088 11.5783C30.7999 13.2971 31.1663 15.1393 31.1663 16.9997C31.1663 20.7569 29.6738 24.3603 27.017 27.017C24.3603 29.6738 20.7569 31.1663 16.9997 31.1663C15.1393 31.1663 13.2971 30.7999 11.5783 30.088C9.85955 29.376 8.29782 28.3325 6.98233 27.017C4.32556 24.3603 2.83301 20.7569 2.83301 16.9997C2.83301 13.2424 4.32556 9.63909 6.98233 6.98233C9.63909 4.32556 13.2424 2.83301 16.9997 2.83301ZM11.333 10.9222V15.6538L21.448 16.9997L11.333 18.3455V23.0772L25.4997 16.9997L11.333 10.9222Z" fill="black"/>
</svg>
