<svg width="32" height="39" viewBox="0 0 32 39" fill="none" xmlns="http://www.w3.org/2000/svg">
<path d="M32 16.3399V29.3605C32 33.4267 28.7632 36.7327 24.7822 36.7327H20.4895C20.1174 38.0409 18.9317 39 17.534 39H14.8901C14.0722 39 13.302 38.6685 12.7135 38.0718C12.1293 37.4752 11.8091 36.6885 11.8091 35.8575C11.8091 34.1294 13.1895 32.7195 14.8901 32.7195H17.534C18.3605 32.7195 19.1308 33.0422 19.7106 33.6344C20.0784 34.0101 20.3467 34.4653 20.4895 34.9603H24.7822C27.8069 34.9603 30.2691 32.4455 30.2691 29.3561V28.5075C30.0917 28.5605 29.9013 28.587 29.7022 28.587H25.9159C24.7692 28.587 23.8345 27.6324 23.8345 26.4611V16.4946C23.8345 15.3233 24.7692 14.3687 25.9159 14.3687H29.7022C29.8537 14.3687 30.0008 14.3863 30.1436 14.4173C29.2219 7.28819 23.233 1.76791 16.0022 1.76791C8.78431 1.76791 2.79973 7.27051 1.86072 14.3819C1.93428 14.3731 2.00784 14.3687 2.08141 14.3687H5.86775C7.01447 14.3687 7.94915 15.3233 7.94915 16.4946V26.4655C7.94915 27.6368 7.01447 28.5915 5.86775 28.5915H2.08141C0.934686 28.5915 0 27.6368 0 26.4655V16.4946C0 16.4415 2.6405e-07 16.3929 0.00432751 16.3399H0C0 14.1432 0.42407 12.0085 1.26356 9.99309C2.07275 8.04839 3.22813 6.30258 4.69939 4.79986C6.17066 3.29714 7.87992 2.11707 9.78391 1.29057C11.7615 0.433137 13.8515 0 16.0022 0C18.1528 0 20.2429 0.433137 22.2161 1.29057C24.1201 2.11707 25.8293 3.29714 27.3006 4.79986C28.7719 6.30258 29.9272 8.04839 30.7364 9.99309C31.5759 12.0085 32 14.1432 32 16.3399Z" fill="#FED70A" fill-opacity="0.9"/>
</svg>
