<svg width="20" height="20" viewBox="0 0 20 20" fill="none" xmlns="http://www.w3.org/2000/svg">
<path d="M4.91077 15.0895V15.7145V19.2857C4.91078 19.3027 4.91562 19.3193 4.92473 19.3336L4.41284 19.6593L4.92473 19.3336C4.93383 19.348 4.94683 19.3594 4.96219 19.3666C4.97756 19.3738 4.99466 19.3764 5.01149 19.3743C5.02828 19.3721 5.0441 19.3652 5.05711 19.3544L4.91077 15.0895ZM4.91077 15.0895H4.28577H2.85718C1.62662 15.0895 0.625 14.0879 0.625 12.8573V2.85718C0.625 1.62662 1.62662 0.625 2.85718 0.625H17.1431C18.3736 0.625 19.3753 1.62662 19.3753 2.85718V12.8573C19.3753 14.0879 18.3736 15.0895 17.1431 15.0895H10.4016H10.1753L10.0015 15.2343L5.05722 19.3543L4.91077 15.0895Z" stroke="#0F0D00" stroke-width="1.25"/>
<path d="M4.91077 15.0895V15.7145V19.2857C4.91078 19.3027 4.91562 19.3193 4.92473 19.3336L4.41284 19.6593L4.92473 19.3336C4.93383 19.348 4.94683 19.3594 4.96219 19.3666C4.97756 19.3738 4.99466 19.3764 5.01149 19.3743C5.02828 19.3721 5.0441 19.3652 5.05711 19.3544L4.91077 15.0895ZM4.91077 15.0895H4.28577H2.85718C1.62662 15.0895 0.625 14.0879 0.625 12.8573V2.85718C0.625 1.62662 1.62662 0.625 2.85718 0.625H17.1431C18.3736 0.625 19.3753 1.62662 19.3753 2.85718V12.8573C19.3753 14.0879 18.3736 15.0895 17.1431 15.0895H10.4016H10.1753L10.0015 15.2343L5.05722 19.3543L4.91077 15.0895Z" stroke="black" stroke-opacity="0.2" stroke-width="1.25"/>
<path d="M4.91077 15.0895V15.7145V19.2857C4.91078 19.3027 4.91562 19.3193 4.92473 19.3336L4.41284 19.6593L4.92473 19.3336C4.93383 19.348 4.94683 19.3594 4.96219 19.3666C4.97756 19.3738 4.99466 19.3764 5.01149 19.3743C5.02828 19.3721 5.0441 19.3652 5.05711 19.3544L4.91077 15.0895ZM4.91077 15.0895H4.28577H2.85718C1.62662 15.0895 0.625 14.0879 0.625 12.8573V2.85718C0.625 1.62662 1.62662 0.625 2.85718 0.625H17.1431C18.3736 0.625 19.3753 1.62662 19.3753 2.85718V12.8573C19.3753 14.0879 18.3736 15.0895 17.1431 15.0895H10.4016H10.1753L10.0015 15.2343L5.05722 19.3543L4.91077 15.0895Z" stroke="black" stroke-opacity="0.2" stroke-width="1.25"/>
<circle cx="5.41699" cy="7.91666" r="1.25" fill="#0F0D00"/>
<circle cx="5.41699" cy="7.91666" r="1.25" fill="black" fill-opacity="0.2"/>
<circle cx="5.41699" cy="7.91666" r="1.25" fill="black" fill-opacity="0.2"/>
<circle cx="10.0005" cy="7.91666" r="1.25" fill="#0F0D00"/>
<circle cx="10.0005" cy="7.91666" r="1.25" fill="black" fill-opacity="0.2"/>
<circle cx="10.0005" cy="7.91666" r="1.25" fill="black" fill-opacity="0.2"/>
<circle cx="14.5835" cy="7.91666" r="1.25" fill="#0F0D00"/>
<circle cx="14.5835" cy="7.91666" r="1.25" fill="black" fill-opacity="0.2"/>
<circle cx="14.5835" cy="7.91666" r="1.25" fill="black" fill-opacity="0.2"/>
</svg>
