<svg width="150" height="150" viewBox="0 0 50 50" fill="none" xmlns="http://www.w3.org/2000/svg">
<path d="M50 25C50 38.8083 38.8083 50 25 50C11.1917 50 0 38.8083 0 25C0 11.1917 11.1917 0 25 0C38.8083 0 50 11.1917 50 25Z" fill="url(#paint0_linear_3296_41236)"/>
<path d="M9.31131 26.2226C12.2335 24.6115 15.4974 23.2698 18.5446 21.9198C23.7891 19.7087 29.053 17.5337 34.3696 15.5115C35.4058 15.1671 37.2641 14.831 37.4474 16.3643C37.3474 18.5337 36.9391 20.6893 36.6558 22.8476C35.9419 27.5921 35.1141 32.3226 34.3085 37.0532C34.0308 38.6282 32.0558 39.4421 30.7946 38.4337C27.7585 36.3837 24.703 34.3532 21.7058 32.256C20.7252 31.2587 21.6335 29.8282 22.5113 29.1171C25.0113 26.6532 27.6613 24.5587 30.0308 21.9698C30.6696 20.4282 28.7808 21.7254 28.1585 22.1254C24.7363 24.4837 21.3974 26.9865 17.7919 29.0587C15.9502 30.0726 13.8002 29.206 11.9585 28.6393C10.3058 27.956 7.88909 27.2671 9.31131 26.2254V26.2226Z" fill="white"/>
<defs>
<linearGradient id="paint0_linear_3296_41236" x1="33.3361" y1="8.33611" x2="20.8361" y2="37.5" gradientUnits="userSpaceOnUse">
<stop stop-color="#38ADE3"/>
<stop offset="1" stop-color="#1F96C7"/>
</linearGradient>
</defs>
</svg>
