<svg width="30" height="30" viewBox="0 0 30 30" fill="none" xmlns="http://www.w3.org/2000/svg">
<path d="M15 16.25C19.1421 16.25 22.5 12.8921 22.5 8.75C22.5 4.60786 19.1421 1.25 15 1.25C10.8579 1.25 7.5 4.60786 7.5 8.75C7.5 12.8921 10.8579 16.25 15 16.25Z" fill="#4DB25D"/>
<path d="M25.6748 21.25C22.3828 19.497 18.7281 18.5342 14.9998 18.4375C11.2714 18.5342 7.61671 19.497 4.32476 21.25C3.40156 21.7195 2.62592 22.4348 2.08334 23.3171C1.54076 24.1993 1.2523 25.2143 1.24976 26.25V27.1875C1.24976 27.8505 1.51315 28.4864 1.98199 28.9553C2.45083 29.4241 3.08671 29.6875 3.74976 29.6875H26.2498C26.9128 29.6875 27.5487 29.4241 28.0175 28.9553C28.4864 28.4864 28.7498 27.8505 28.7498 27.1875V26.275C28.7518 25.235 28.4655 24.2148 27.9227 23.3277C27.3799 22.4407 26.6017 21.7215 25.6748 21.25V21.25Z" fill="#4DB25D"/>
</svg>
