<svg width="32" height="32" viewBox="0 0 32 32" fill="none" xmlns="http://www.w3.org/2000/svg">
<path d="M28 29.3333C28 29.8638 27.7892 30.3725 27.4142 30.7475C27.0391 31.1226 26.5304 31.3333 26 31.3333H5.99995C5.60464 31.333 5.21831 31.2155 4.88973 30.9957C4.56116 30.7759 4.30508 30.4637 4.15385 30.0985C4.00262 29.7332 3.96302 29.3314 4.04004 28.9436C4.11707 28.5559 4.30727 28.1997 4.58662 27.92C5.39995 27.1067 4.29995 27.3333 26 27.3333C26.5304 27.3333 27.0391 27.544 27.4142 27.9191C27.7892 28.2942 28 28.8029 28 29.3333Z" fill="#45A054"/>
<path d="M27.88 28.6667C27.7424 29.0557 27.4879 29.3927 27.1513 29.6314C26.8148 29.8701 26.4126 29.9988 26 30H8.66663C8.34714 29.9991 8.03252 29.9217 7.7491 29.7742C7.46568 29.6268 7.22172 29.4135 7.03763 29.1524C6.85354 28.8913 6.73468 28.5899 6.69101 28.2734C6.64734 27.9569 6.68013 27.6346 6.78663 27.3333H26C26.4126 27.3345 26.8148 27.4633 27.1513 27.702C27.4879 27.9407 27.7424 28.2776 27.88 28.6667Z" fill="#4DB25D"/>
<path d="M20.4732 14.86C20.3229 15.0093 20.2035 15.1869 20.1221 15.3826C20.0407 15.5782 19.9987 15.7881 19.9987 16C19.9987 16.2119 20.0407 16.4218 20.1221 16.6174C20.2035 16.8131 20.3229 16.9907 20.4732 17.14C25.6266 22.2933 25.3332 21.3333 25.3332 27.3333H6.66657C6.66657 24.4667 6.31324 22.3533 8.22657 20.44C13.3066 15.36 13.2799 16.6133 8.22657 11.56C6.31991 9.65333 6.66657 7.58 6.66657 4.66666H25.3332C25.3332 10.5933 25.6399 9.69333 20.4732 14.86Z" fill="#DAD7E5"/>
<path d="M20.4732 14.86C20.3229 15.0093 20.2035 15.1869 20.1221 15.3826C20.0407 15.5782 19.9987 15.7881 19.9987 16C19.9987 16.2119 20.0407 16.4218 20.1221 16.6174C20.2035 16.8131 20.3229 16.9907 20.4732 17.14C25.6266 22.2933 25.3332 21.3333 25.3332 27.3333H8.66657C8.66657 24.4667 8.31324 22.3533 10.2266 20.44C15.3066 15.36 15.2799 16.6133 10.2266 11.56C8.31991 9.65333 8.66657 7.58 8.66657 4.66666H25.3332C25.3332 10.5933 25.6399 9.69333 20.4732 14.86Z" fill="#EDEBF2"/>
<path d="M22.6666 27.3333H9.33325C9.33868 26.4462 9.56152 25.5739 9.98225 24.7929C10.403 24.0119 11.0088 23.3459 11.7466 22.8533C13.0415 21.8827 13.9768 20.509 14.4053 18.9484C14.8338 17.3878 14.731 15.7291 14.1133 14.2333C13.3666 12.4333 12.3466 11.68 9.99992 9.33333C13.9514 8.45259 18.0484 8.45259 21.9999 9.33333C19.4866 11.8467 17.3333 13.42 17.3333 17.02C17.3369 18.1517 17.6023 19.2672 18.1089 20.2792C18.6155 21.2912 19.3494 22.1723 20.2533 22.8533C20.9935 23.3434 21.6012 24.0088 22.0223 24.7904C22.4433 25.572 22.6647 26.4455 22.6666 27.3333V27.3333Z" fill="#EFC901"/>
<path d="M22.6666 27.3333H10.6666C10.6721 26.4462 10.8949 25.5739 11.3156 24.7929C11.7364 24.0119 12.3421 23.3459 13.08 22.8533C14.3749 21.8827 15.3102 20.509 15.7387 18.9484C16.1671 17.3878 16.0644 15.7291 15.4466 14.2333C14.7 12.4333 13.68 11.68 11.3333 9.33333C14.8392 8.49321 18.494 8.49321 22 9.33333L19.4666 11.8667C16.62 14.7133 16.2666 19.8133 20.5333 23.0667C21.1957 23.5634 21.7333 24.2076 22.1036 24.9482C22.4739 25.6888 22.6666 26.5054 22.6666 27.3333Z" fill="#FED70A"/>
<path d="M28 2.66666C28 3.1971 27.7892 3.7058 27.4142 4.08088C27.0391 4.45595 26.5304 4.66666 26 4.66666H5.99995C5.60464 4.66632 5.21831 4.54883 4.88973 4.32904C4.56116 4.10926 4.30508 3.79703 4.15385 3.43179C4.00262 3.06656 3.96302 2.6647 4.04004 2.27697C4.11707 1.88924 4.30727 1.53303 4.58662 1.25333C5.39995 0.439997 4.29995 0.666664 26 0.666664C26.5304 0.666664 27.0391 0.877378 27.4142 1.25245C27.7892 1.62752 28 2.13623 28 2.66666Z" fill="#45A054"/>
<path d="M27.9999 2.66667C27.9999 3.1971 27.7892 3.70581 27.4141 4.08088C27.0391 4.45595 26.5303 4.66667 25.9999 4.66667H8.66658C8.27127 4.66632 7.88493 4.54883 7.55636 4.32905C7.22778 4.10926 6.97171 3.79703 6.82048 3.43179C6.66925 3.06656 6.62964 2.6647 6.70667 2.27697C6.78369 1.88924 6.97389 1.53303 7.25324 1.25333C8.07324 0.433332 7.37991 0.666665 25.9999 0.666665C26.5303 0.666665 27.0391 0.877379 27.4141 1.25245C27.7892 1.62752 27.9999 2.13623 27.9999 2.66667Z" fill="#4DB25D"/>
</svg>
