<svg width="142" height="50" viewBox="0 0 142 50" fill="none" xmlns="http://www.w3.org/2000/svg">
<path d="M50.2201 12.3978H51.2822V24.7891H50.2201V12.3978ZM63.6896 12.3978V24.7891H62.6275L55.5998 14.1148V24.7891H54.5377V12.3978H55.5998L62.6275 23.0543V12.3978H63.6896ZM70.8754 12.3978C72.268 12.3978 73.454 12.6456 74.4335 13.1412C75.413 13.6369 76.1565 14.3509 76.6639 15.2832C77.1832 16.2155 77.4428 17.3248 77.4428 18.6111C77.4428 19.8974 77.1832 21.0068 76.6639 21.9391C76.1565 22.8596 75.413 23.5676 74.4335 24.0633C73.454 24.5471 72.268 24.7891 70.8754 24.7891H66.9456V12.3978H70.8754ZM70.8754 23.904C72.6928 23.904 74.0559 23.4319 74.9646 22.4878C75.8851 21.5437 76.3453 20.2515 76.3453 18.6111C76.3453 16.9707 75.8851 15.6726 74.9646 14.7167C74.0559 13.7608 72.6928 13.2829 70.8754 13.2829H68.0077V23.904H70.8754ZM87.8034 13.2829H80.8997V18.0093H86.2102V18.8943H80.8997V23.904H87.8034V24.7891H79.8376V12.3978H87.8034V13.2829ZM94.8314 12.3978C95.7873 12.3978 96.5721 12.5571 97.1858 12.8757C97.7995 13.1825 98.2538 13.6074 98.5488 14.1502C98.8557 14.6931 99.0091 15.3009 99.0091 15.9735C99.0091 16.8586 98.7554 17.6257 98.2479 18.2748C97.7523 18.912 96.9793 19.3192 95.929 19.4962L99.1507 24.7891H97.8585L94.7429 19.567H91.769V24.7891H90.7069V12.3978H94.8314ZM97.9116 15.9735C97.9116 15.1593 97.6696 14.5102 97.1858 14.0263C96.7137 13.5425 95.929 13.3006 94.8314 13.3006H91.769V18.6996H94.8491C95.9113 18.6996 96.6842 18.4459 97.1681 17.9384C97.6637 17.4192 97.9116 16.7642 97.9116 15.9735ZM101.86 21.8683C101.955 22.2105 102.12 22.5468 102.356 22.8773C102.604 23.1959 102.946 23.4614 103.383 23.6738C103.819 23.8863 104.368 23.9925 105.029 23.9925C105.914 23.9925 106.61 23.7624 107.118 23.3021C107.625 22.8419 107.879 22.2813 107.879 21.6204C107.879 21.0776 107.755 20.6468 107.507 20.3282C107.259 20.0096 106.929 19.7617 106.516 19.5847C106.115 19.3959 105.666 19.2425 105.171 19.1245C104.687 18.9947 104.203 18.8589 103.719 18.7173C103.235 18.5639 102.787 18.3692 102.374 18.1332C101.972 17.8971 101.648 17.5726 101.4 17.1596C101.152 16.7465 101.028 16.2096 101.028 15.5487C101.028 14.9232 101.188 14.3627 101.506 13.867C101.825 13.3714 102.273 12.9819 102.852 12.6987C103.442 12.4037 104.132 12.2561 104.923 12.2561C105.961 12.2561 106.799 12.4863 107.436 12.9465C108.074 13.4068 108.504 13.9614 108.729 14.6105L107.755 14.9822C107.672 14.699 107.507 14.4217 107.259 14.1502C107.023 13.8788 106.705 13.6546 106.303 13.4776C105.914 13.2888 105.442 13.1943 104.887 13.1943C104.38 13.1825 103.914 13.2711 103.489 13.4599C103.064 13.6369 102.728 13.8965 102.48 14.2388C102.232 14.581 102.108 14.9999 102.108 15.4956C102.108 16.0384 102.232 16.4692 102.48 16.7878C102.728 17.1065 103.052 17.3602 103.453 17.549C103.867 17.726 104.315 17.8794 104.799 18.0093C105.283 18.1391 105.767 18.2807 106.25 18.4341C106.746 18.5757 107.194 18.7645 107.596 19.0006C108.009 19.2366 108.339 19.5611 108.587 19.9742C108.835 20.3754 108.959 20.9065 108.959 21.5673C108.959 22.122 108.811 22.6589 108.516 23.1782C108.221 23.6856 107.779 24.1046 107.189 24.435C106.61 24.7537 105.89 24.913 105.029 24.913C103.92 24.913 102.999 24.6592 102.267 24.1518C101.548 23.6443 101.076 23.0071 100.851 22.24L101.86 21.8683Z" fill="white"/>
<path d="M45.1913 44.1448C44.1846 44.1448 43.2331 43.9655 42.3367 43.607C41.4542 43.2484 40.675 42.7382 39.9993 42.0763C39.3236 41.4144 38.7927 40.6352 38.4066 39.7389C38.0343 38.8287 37.8481 37.829 37.8481 36.7396C37.8481 35.6502 38.0343 34.6573 38.4066 33.7609C38.7927 32.8646 39.3236 32.0854 39.9993 31.4235C40.675 30.7616 41.4542 30.2514 42.3367 29.8928C43.2331 29.5343 44.1846 29.355 45.1913 29.355C46.2255 29.355 47.1839 29.5343 48.0665 29.8928C48.9628 30.2514 49.742 30.7616 50.4039 31.4235C51.0796 32.0854 51.6036 32.8646 51.9759 33.7609C52.3621 34.6573 52.5551 35.6502 52.5551 36.7396C52.5551 37.829 52.3621 38.8287 51.9759 39.7389C51.6036 40.6352 51.0796 41.4144 50.4039 42.0763C49.742 42.7382 48.9628 43.2484 48.0665 43.607C47.1701 43.9655 46.2117 44.1448 45.1913 44.1448ZM45.1913 41.9315C46.1152 41.9315 46.9357 41.7178 47.6528 41.2903C48.3836 40.8628 48.949 40.2629 49.3489 39.4907C49.7626 38.7046 49.9695 37.7876 49.9695 36.7396C49.9695 35.6777 49.7626 34.7607 49.3489 33.9885C48.949 33.2162 48.3836 32.6232 47.6528 32.2095C46.9357 31.7821 46.1152 31.5683 45.1913 31.5683C44.2673 31.5683 43.4468 31.7821 42.7297 32.2095C42.0127 32.6232 41.4473 33.2162 41.0336 33.9885C40.6199 34.7607 40.413 35.6777 40.413 36.7396C40.413 37.7876 40.6199 38.7046 41.0336 39.4907C41.4473 40.2629 42.0127 40.8628 42.7297 41.2903C43.4468 41.7178 44.2673 41.9315 45.1913 41.9315ZM64.9246 29.5205C66.0692 29.5205 67.0138 29.7205 67.7584 30.1204C68.5169 30.5203 69.0823 31.0512 69.4546 31.7131C69.8407 32.375 70.0338 33.099 70.0338 33.885C70.0338 34.4642 69.9235 35.0365 69.7028 35.6019C69.4822 36.1535 69.1305 36.6499 68.6479 37.0912C68.1652 37.5187 67.524 37.8359 66.7242 38.0427L70.2613 44H67.2827L64.0145 38.2496H61.7184V44H59.1948V29.5205H64.9246ZM67.4482 33.9057C67.4482 33.2024 67.2413 32.6439 66.8276 32.2302C66.4139 31.8027 65.7658 31.589 64.8832 31.589H61.7184V36.2845H64.8832C65.7658 36.2845 66.4139 36.0639 66.8276 35.6226C67.2413 35.1813 67.4482 34.609 67.4482 33.9057ZM76.079 36.7396C76.079 35.6502 76.2651 34.6573 76.6375 33.7609C77.0098 32.8508 77.5269 32.0716 78.1889 31.4235C78.8646 30.7616 79.6437 30.2514 80.5263 29.8928C81.4226 29.5205 82.381 29.3343 83.4015 29.3343C84.8356 29.3343 86.1319 29.6791 87.2903 30.3686C88.4486 31.0443 89.3243 32.0234 89.9172 33.3059L87.766 34.0298C87.4626 33.4231 87.0696 32.9404 86.587 32.5819C86.1181 32.2233 85.6079 31.9682 85.0563 31.8165C84.5185 31.6511 83.9875 31.5683 83.4635 31.5683C82.5396 31.5683 81.7122 31.7821 80.9813 32.2095C80.2642 32.6232 79.692 33.2162 79.2645 33.9885C78.8508 34.7607 78.6439 35.6777 78.6439 36.7396C78.6439 37.8014 78.8508 38.7184 79.2645 39.4907C79.692 40.2629 80.2642 40.8628 80.9813 41.2903C81.7122 41.704 82.5396 41.9108 83.4635 41.9108C84.0013 41.9108 84.5529 41.8281 85.1183 41.6626C85.6837 41.4833 86.2146 41.1868 86.7111 40.7731C87.2075 40.3456 87.6281 39.7665 87.9729 39.0356L90.0827 39.7389C89.4622 41.2282 88.5589 42.3314 87.373 43.0485C86.2008 43.7656 84.877 44.1241 83.4015 44.1241C82.381 44.1241 81.4226 43.9448 80.5263 43.5863C79.6437 43.2278 78.8646 42.7175 78.1889 42.0556C77.5269 41.3937 77.0098 40.6146 76.6375 39.7182C76.2651 38.8219 76.079 37.829 76.079 36.7396ZM106.951 31.5683H99.5453V35.6433H105.068V37.6911H99.5453V41.9522H106.951V44H97.0217V29.5205H106.951V31.5683Z" fill="white"/>
<path d="M9.60371 8.67658C8.41965 8.86934 7.34347 9.67477 6.95335 10.0534C6.23052 8.33238 9.15631 6.71464 11.187 6.1295C12.283 5.81371 17.6237 4.54616 17.6237 4.615C17.6237 5.02805 17.1073 5.92298 16.7631 6.30161C16.4189 6.68023 15.4208 7.29977 15.5241 7.29977C15.6273 7.29977 16.0059 7.26535 16.0059 7.29977C16.0059 7.32731 15.937 7.42603 15.9026 7.47187C15.111 8.26354 14.4225 8.57332 13.6309 8.67658C12.8392 8.77984 11.0838 8.43564 9.60371 8.67658Z" fill="#FED70A"/>
<path d="M7.19437 11.809C6.86392 10.8728 6.47153 10.6732 6.02407 10.8797C5.30124 11.4304 3.75233 12.7728 3.2016 13.4612C2.91531 13.8191 2.74267 14.0464 2.75414 14.184C4.40632 13.5645 6.02407 13.3235 7.64183 13.3235C8.43494 13.3235 9.81031 13.8743 10.1545 14.7003C10.5313 15.6046 10.7052 15.492 10.7052 15.3887C11.0494 13.7022 10.1889 13.0138 8.84654 12.463C7.77263 12.0224 7.32055 11.8894 7.19437 11.809Z" fill="#FED70A"/>
<path d="M10.9462 25.1978C10.6478 25.0946 10.3253 24.2171 10.1889 22.3754C10.0513 20.5167 10.0856 17.7286 13.803 15.1127C17.5204 12.4967 22.5802 11.4641 25.2994 11.1199C27.3279 10.8632 36.6352 10.3382 41.89 9.53082C43.6792 9.25594 44.1962 9.02243 44.9878 8.71051C46.0071 8.30903 46.6198 7.29777 46.652 7.01972C46.648 6.99769 46.644 6.97614 46.6399 6.95508C46.6517 6.96568 46.6556 6.98791 46.652 7.01972C46.8874 8.3195 47.071 11.3311 46.5023 13.6326C46.0496 15.4652 45.8139 17.1091 43.5422 19.0366C42.8676 19.6089 41.1672 20.7046 39.6527 20.8609C38.1382 21.0171 33.0784 21.1707 24.8175 21.7558C16.5566 22.3409 12.0476 22.9949 10.9462 25.1978Z" fill="#FED70A"/>
<path d="M11.1527 33.2875C10.3611 34.2168 9.72029 36.7738 9.91359 37.7965C7.8828 35.3871 7.50011 31.3746 8.64004 28.6063C9.84475 25.6806 12.7705 24.7857 14.6636 24.5447C16.5567 24.3038 23.544 24.5792 26.6074 24.0629C29.0582 23.6498 30.9559 23.0188 31.5984 22.7549C31.7475 23.4089 32.0533 24.9734 31.5984 26.7132C30.9122 29.3371 29.261 30.6301 27.1926 31.1879C24.1292 32.0139 20.9081 31.0819 16.6255 31.36C13.9752 31.5321 11.9444 32.3581 11.1527 33.2875Z" fill="#FED70A"/>
<path d="M12.4263 40.5158C11.3249 42.8563 11.8985 44.4971 12.4263 44.9215C11.0495 44.9215 10.4299 44.6462 9.7071 43.9234C8.98427 43.2005 8.88101 42.1679 9.01869 41.1009C9.15637 40.0339 10.189 38.1408 10.5676 37.3835C10.8705 36.7777 11.1527 35.5592 11.1527 34.6299C11.6805 34.6758 12.86 35.0085 13.3556 35.9723C13.9752 37.177 13.8031 37.59 12.4263 40.5158Z" fill="#FED70A"/>
<path d="M14.619 14.5767C18.6264 14.6678 26.3017 14.9803 29.7053 15.6298C29.8343 15.6544 29.9634 15.6791 30.0928 15.7038C34.4841 16.5435 39.0303 17.4127 41.2705 16.0084C43.5494 14.5799 46.4669 11.2019 46.4691 7.43555C46.2131 7.85327 45.6996 8.43091 44.9879 8.7113C44.9389 8.73064 44.8909 8.74964 44.8437 8.76837C44.1273 9.05227 43.5685 9.27373 41.8901 9.5316C38.3831 10.0705 33.0709 10.4835 29.3222 10.775C27.454 10.9203 25.9741 11.0354 25.2994 11.1207C22.7745 11.4403 18.2315 12.3535 14.619 14.5767Z" fill="url(#paint0_radial_3716_14128)"/>
<path d="M30.7107 28.748C28.6215 29.0496 26.6808 28.5629 19.7922 26.4723C15.5035 25.1708 13.2112 25.0251 12.2042 25.1803C13.0724 24.823 13.9429 24.6365 14.6636 24.5447C15.4282 24.4475 17.0235 24.4343 18.8558 24.4193C21.5604 24.3971 24.7812 24.3706 26.6075 24.0629C29.0582 23.6498 30.9559 23.0188 31.5984 22.7549C31.7476 23.4089 32.0534 24.9734 31.5984 26.7132C31.3888 27.5149 31.087 28.1853 30.7107 28.748Z" fill="url(#paint1_radial_3716_14128)"/>
<path d="M9.91363 37.7963C9.72033 36.7736 10.3612 34.1133 11.1528 33.2872C11.9445 32.4612 14.4715 31.4912 16.6257 31.3597C18.4293 31.2496 19.9688 31.3732 21.3868 31.487C23.4327 31.6512 25.2254 31.795 27.1927 31.1876C28.6304 30.7436 29.8835 30.0103 30.7398 28.7038C30.1599 28.8311 29.5127 28.9647 28.8448 29.088C26.6075 29.501 23.2343 29.088 20.0676 28.6749C16.9009 28.2619 13.2868 28.7038 11.5314 30.6369C10.2578 32.0394 9.85271 32.9671 9.67579 33.9965C9.60674 34.3985 9.54774 34.7418 9.43175 34.9738C9.13752 35.5623 8.58487 34.8844 8.26483 34.3399C8.55899 35.6262 9.10599 36.838 9.91363 37.7963Z" fill="url(#paint2_radial_3716_14128)"/>
<path d="M11.0918 35.4605C11.4772 35.8306 12.1143 36.8533 11.8755 38.3129C11.7181 39.275 11.3917 39.9526 11.1088 40.5401C10.8351 41.1085 10.602 41.5924 10.602 42.1679C10.602 43.1042 11.451 43.7742 11.8755 43.9922L11.924 44.0335C11.7023 43.2447 11.7156 42.0259 12.4263 40.5158C13.8031 37.59 13.9752 37.177 13.3556 35.9723C12.86 35.0085 11.6804 34.6758 11.1527 34.6299C11.1527 34.8907 11.1305 35.1742 11.0918 35.4605Z" fill="url(#paint3_radial_3716_14128)"/>
<path d="M8.20953 9.16844C8.62643 8.94781 9.10556 8.75822 9.60376 8.67713C10.486 8.53352 11.4661 8.59782 12.2817 8.65131C12.8342 8.68759 13.3112 8.71884 13.6309 8.67713C14.4226 8.57386 15.111 8.26408 15.9027 7.47242C15.9371 7.42657 16.0059 7.32785 16.0059 7.30031C16.0059 7.27581 15.8137 7.2862 15.6659 7.29426C15.6062 7.29749 15.5538 7.30031 15.5241 7.30031C15.4797 7.30031 15.6387 7.18597 15.8617 7.0255C16.1578 6.81243 16.5668 6.5181 16.7632 6.30215C16.9688 6.07592 17.236 5.66536 17.4176 5.28341C17.3526 5.2744 17.2837 5.26953 17.2107 5.26953C16.3888 5.26953 14.9476 6.29257 14.0778 6.91006C13.9641 6.99081 13.8602 7.06454 13.7687 7.12821C13.1258 7.57547 12.1878 7.63681 11.2312 7.69938C11.0098 7.71384 10.7875 7.72836 10.5676 7.74778C9.75617 7.81937 8.76549 8.62006 8.20953 9.16844Z" fill="url(#paint4_radial_3716_14128)"/>
<path d="M2.75977 14.1219C4.03601 13.2609 6.53986 12.6451 7.74514 12.4287H6.09295C5.2207 12.4287 5.9585 11.8537 5.9561 11.8506C5.95556 11.8499 5.91811 11.8777 5.81759 11.9468C5.29336 12.3073 4.51962 12.6989 3.7042 12.9138C3.5 13.1184 3.32556 13.3064 3.20165 13.4613C2.95485 13.7698 2.79251 13.9813 2.75977 14.1219Z" fill="url(#paint5_radial_3716_14128)"/>
<path d="M2.75977 14.1219C4.03601 13.2609 6.53986 12.6451 7.74514 12.4287H6.09295C5.2207 12.4287 5.9585 11.8537 5.9561 11.8506C5.95556 11.8499 5.91811 11.8777 5.81759 11.9468C5.29336 12.3073 4.51962 12.6989 3.7042 12.9138C3.5 13.1184 3.32556 13.3064 3.20165 13.4613C2.95485 13.7698 2.79251 13.9813 2.75977 14.1219Z" fill="url(#paint6_radial_3716_14128)"/>
<defs>
<radialGradient id="paint0_radial_3716_14128" cx="0" cy="0" r="1" gradientUnits="userSpaceOnUse" gradientTransform="translate(45.2633 9.26202) rotate(170.145) scale(23.1275 35.707)">
<stop stop-color="#7B5D02"/>
<stop offset="1" stop-color="#7B5D02" stop-opacity="0"/>
</radialGradient>
<radialGradient id="paint1_radial_3716_14128" cx="0" cy="0" r="1" gradientUnits="userSpaceOnUse" gradientTransform="translate(30.91 25.7839) rotate(170.679) scale(13.8129 44.6442)">
<stop stop-color="#986E01"/>
<stop offset="1" stop-color="#986E01" stop-opacity="0"/>
</radialGradient>
<radialGradient id="paint2_radial_3716_14128" cx="0" cy="0" r="1" gradientUnits="userSpaceOnUse" gradientTransform="translate(14.9734 32.5644) rotate(-108.435) scale(4.78924 11.6876)">
<stop stop-color="#B58E01"/>
<stop offset="1" stop-color="#B58E01" stop-opacity="0"/>
</radialGradient>
<radialGradient id="paint3_radial_3716_14128" cx="0" cy="0" r="1" gradientUnits="userSpaceOnUse" gradientTransform="translate(13.6998 36.6263) rotate(101.819) scale(7.56764 2.49128)">
<stop stop-color="#A28900"/>
<stop offset="1" stop-color="#A28900" stop-opacity="0"/>
</radialGradient>
<radialGradient id="paint4_radial_3716_14128" cx="0" cy="0" r="1" gradientUnits="userSpaceOnUse" gradientTransform="translate(16.8321 9.91626) rotate(-140.88) scale(7.3647 17.3936)">
<stop stop-color="#584800"/>
<stop offset="1" stop-color="#584800" stop-opacity="0"/>
</radialGradient>
<radialGradient id="paint5_radial_3716_14128" cx="0" cy="0" r="1" gradientUnits="userSpaceOnUse" gradientTransform="translate(2.58208 14.2874) rotate(-26.8058) scale(3.66362 0.842044)">
<stop stop-color="#6B5C04"/>
<stop offset="1" stop-color="#6B5C04" stop-opacity="0"/>
</radialGradient>
<radialGradient id="paint6_radial_3716_14128" cx="0" cy="0" r="1" gradientUnits="userSpaceOnUse" gradientTransform="translate(3.82121 14.907) rotate(-27.943) scale(4.48072 1.90239)">
<stop stop-color="#6B5C04"/>
<stop offset="1" stop-color="#6B5C04" stop-opacity="0"/>
</radialGradient>
</defs>
</svg>
