<svg width="16" height="18" viewBox="0 0 16 18" fill="none" xmlns="http://www.w3.org/2000/svg">
<path d="M13.174 5.62299C13.174 2.58694 10.8578 0.125977 7.99983 0.125977C5.14237 0.125977 2.82617 2.58694 2.82617 5.62299C2.82617 8.65904 7.99983 14.5398 7.99983 14.5398C7.99983 14.5398 13.174 8.65845 13.174 5.62299ZM5.78477 5.56749C5.78477 4.26792 6.77671 3.21399 7.99983 3.21399C9.2235 3.21399 10.2149 4.26792 10.2149 5.56749C10.2149 6.86705 9.2235 7.92099 7.99983 7.92099C6.77671 7.92099 5.78477 6.86705 5.78477 5.56749Z" fill="white"/>
<path d="M15.9536 17.0132L13.683 11.4838C13.5946 11.2683 13.3946 11.1289 13.1734 11.1289H12.0297C10.7388 13.1051 9.28565 14.8068 8.81108 15.3464L7.99919 16.2693L7.18729 15.3464C6.71327 14.8079 5.25954 13.1057 3.96918 11.1295H2.82608C2.60547 11.1295 2.40486 11.2683 2.3165 11.4844L0.0464232 17.0138C-0.0285976 17.1963 -0.0119263 17.4065 0.09088 17.573C0.194242 17.7389 0.368735 17.8393 0.556009 17.8393H15.444C15.6313 17.8393 15.8064 17.7389 15.9086 17.5724C16.012 17.4059 16.0286 17.1951 15.9536 17.0132Z" fill="white"/>
</svg>
