<svg width="28" height="28" viewBox="0 0 28 28" fill="none" xmlns="http://www.w3.org/2000/svg">
<path d="M21.0002 10.8497V16.7997L19.2502 15.0497C17.9668 13.883 15.9835 13.883 14.7002 15.0497L13.8835 15.8663L10.9668 12.9497C9.6835 11.783 7.70016 11.783 6.41683 12.9497L4.66683 14.6997V8.16634C4.66683 7.46634 5.1335 6.99967 5.8335 6.99967H17.1502C16.8002 6.29967 16.8002 5.36634 17.1502 4.66634H5.8335C3.85016 4.66634 2.3335 6.18301 2.3335 8.16634V22.1663C2.3335 24.1497 3.85016 25.6663 5.8335 25.6663H19.8335C21.8168 25.6663 23.3335 24.1497 23.3335 22.1663V10.8497C22.9835 10.9663 22.5168 11.083 22.1668 11.083C21.8168 11.083 21.3502 10.9663 21.0002 10.8497ZM24.5002 4.66634H23.3335V3.49967C23.3335 2.79967 22.8668 2.33301 22.1668 2.33301C21.4668 2.33301 21.0002 2.79967 21.0002 3.49967V4.66634H19.8335C19.1335 4.66634 18.6668 5.13301 18.6668 5.83301C18.6668 6.53301 19.1335 6.99967 19.8335 6.99967H21.0002V8.16634C21.0002 8.86634 21.4668 9.33301 22.1668 9.33301C22.8668 9.33301 23.3335 8.86634 23.3335 8.16634V6.99967H24.5002C25.2002 6.99967 25.6668 6.53301 25.6668 5.83301C25.6668 5.13301 25.2002 4.66634 24.5002 4.66634Z" fill="#0F0D00" fill-opacity="0.9"/>
</svg>
