<svg width="100" height="100" viewBox="0 0 100 100" fill="none" xmlns="http://www.w3.org/2000/svg">
<circle cx="50" cy="50" r="50" fill="#419FD9"/>
<path fill-rule="evenodd" clip-rule="evenodd" d="M37.7999 39.7496C36.7656 39.7496 35.7736 40.1605 35.0422 40.8919C34.3108 41.6233 33.8999 42.6153 33.8999 43.6496V59.2496C33.8999 60.284 34.3108 61.2759 35.0422 62.0073C35.7736 62.7387 36.7656 63.1496 37.7999 63.1496H61.1999C62.2342 63.1496 63.2262 62.7387 63.9576 62.0073C64.689 61.2759 65.0999 60.284 65.0999 59.2496V43.6496C65.0999 42.6153 64.689 41.6233 63.9576 40.8919C63.2262 40.1605 62.2342 39.7496 61.1999 39.7496H58.1072C57.5901 39.7495 57.0942 39.544 56.7286 39.1783L54.5426 36.9923C53.8114 36.2609 52.8196 35.8498 51.7853 35.8496H47.2145C46.1802 35.8498 45.1884 36.2609 44.4572 36.9923L42.2713 39.1783C41.9056 39.544 41.4097 39.7495 40.8926 39.7496H37.7999ZM49.4999 57.2996C50.2681 57.2996 51.0288 57.1483 51.7386 56.8543C52.4484 56.5603 53.0933 56.1294 53.6365 55.5862C54.1797 55.043 54.6106 54.3981 54.9046 53.6883C55.1986 52.9786 55.3499 52.2178 55.3499 51.4496C55.3499 50.6814 55.1986 49.9207 54.9046 49.2109C54.6106 48.5012 54.1797 47.8563 53.6365 47.313C53.0933 46.7698 52.4484 46.3389 51.7386 46.0449C51.0288 45.7509 50.2681 45.5996 49.4999 45.5996C47.9484 45.5996 46.4604 46.2159 45.3633 47.313C44.2662 48.4101 43.6499 49.8981 43.6499 51.4496C43.6499 53.0011 44.2662 54.4891 45.3633 55.5862C46.4604 56.6833 47.9484 57.2996 49.4999 57.2996Z" fill="white"/>
</svg>
