<svg width="36" height="36" viewBox="0 0 36 36" fill="none" xmlns="http://www.w3.org/2000/svg">
<circle cx="18" cy="18" r="18" fill="#E94444"/>
<path fill-rule="evenodd" clip-rule="evenodd" d="M11.8362 11.8363C12.2579 11.4146 12.9417 11.4146 13.3635 11.8363L17.9998 16.4727L22.6362 11.8363C23.0579 11.4146 23.7417 11.4146 24.1635 11.8363C24.5853 12.2581 24.5853 12.9419 24.1635 13.3637L19.5272 18L24.1635 22.6363C24.5853 23.0581 24.5853 23.7419 24.1635 24.1637C23.7417 24.5855 23.0579 24.5855 22.6362 24.1637L17.9998 19.5274L13.3635 24.1637C12.9417 24.5855 12.2579 24.5855 11.8362 24.1637C11.4144 23.7419 11.4144 23.0581 11.8362 22.6363L16.4725 18L11.8362 13.3637C11.4144 12.9419 11.4144 12.2581 11.8362 11.8363Z" fill="white"/>
</svg>
