<svg width="20" height="20" viewBox="0 0 20 20" fill="none" xmlns="http://www.w3.org/2000/svg">
<path fill-rule="evenodd" clip-rule="evenodd" d="M0.868532 0.86902C1.49337 0.244181 2.50643 0.244181 3.13127 0.86902L9.9999 7.73765L16.8685 0.86902C17.4934 0.244181 18.5064 0.244181 19.1313 0.86902C19.7561 1.49386 19.7561 2.50692 19.1313 3.13176L12.2626 10.0004L19.1313 16.869C19.7561 17.4939 19.7561 18.5069 19.1313 19.1318C18.5064 19.7566 17.4934 19.7566 16.8685 19.1318L9.9999 12.2631L3.13127 19.1318C2.50643 19.7566 1.49337 19.7566 0.868532 19.1318C0.243693 18.5069 0.243693 17.4939 0.868532 16.869L7.73716 10.0004L0.868532 3.13176C0.243693 2.50692 0.243693 1.49386 0.868532 0.86902Z" fill="#0F0D00"/>
<path fill-rule="evenodd" clip-rule="evenodd" d="M0.868532 0.86902C1.49337 0.244181 2.50643 0.244181 3.13127 0.86902L9.9999 7.73765L16.8685 0.86902C17.4934 0.244181 18.5064 0.244181 19.1313 0.86902C19.7561 1.49386 19.7561 2.50692 19.1313 3.13176L12.2626 10.0004L19.1313 16.869C19.7561 17.4939 19.7561 18.5069 19.1313 19.1318C18.5064 19.7566 17.4934 19.7566 16.8685 19.1318L9.9999 12.2631L3.13127 19.1318C2.50643 19.7566 1.49337 19.7566 0.868532 19.1318C0.243693 18.5069 0.243693 17.4939 0.868532 16.869L7.73716 10.0004L0.868532 3.13176C0.243693 2.50692 0.243693 1.49386 0.868532 0.86902Z" fill="black" fill-opacity="0.2"/>
<path fill-rule="evenodd" clip-rule="evenodd" d="M0.868532 0.86902C1.49337 0.244181 2.50643 0.244181 3.13127 0.86902L9.9999 7.73765L16.8685 0.86902C17.4934 0.244181 18.5064 0.244181 19.1313 0.86902C19.7561 1.49386 19.7561 2.50692 19.1313 3.13176L12.2626 10.0004L19.1313 16.869C19.7561 17.4939 19.7561 18.5069 19.1313 19.1318C18.5064 19.7566 17.4934 19.7566 16.8685 19.1318L9.9999 12.2631L3.13127 19.1318C2.50643 19.7566 1.49337 19.7566 0.868532 19.1318C0.243693 18.5069 0.243693 17.4939 0.868532 16.869L7.73716 10.0004L0.868532 3.13176C0.243693 2.50692 0.243693 1.49386 0.868532 0.86902Z" fill="black" fill-opacity="0.2"/>
</svg>
