<svg width="419" height="58" viewBox="0 0 419 58" fill="none" xmlns="http://www.w3.org/2000/svg">
<rect opacity="0.1" y="46" width="6" height="11" rx="2" fill="black"/>
<rect opacity="0.1" x="14" y="40" width="6" height="17" rx="2" fill="black"/>
<rect opacity="0.1" x="28" width="6" height="57" rx="2" fill="black"/>
<rect opacity="0.1" x="42" y="7" width="6" height="50" rx="2" fill="black"/>
<rect opacity="0.1" x="56" y="7" width="6" height="50" rx="2" fill="black"/>
<rect opacity="0.1" x="70" y="46" width="6" height="11" rx="2" fill="black"/>
<rect opacity="0.1" x="84" y="46" width="6" height="11" rx="2" fill="black"/>
<rect opacity="0.1" x="98" y="40" width="6" height="17" rx="2" fill="black"/>
<rect opacity="0.1" x="112" y="40" width="6" height="17" rx="2" fill="black"/>
<rect opacity="0.1" x="126" width="6" height="57" rx="2" fill="black"/>
<rect opacity="0.1" x="140" width="6" height="57" rx="2" fill="black"/>
<rect opacity="0.1" x="154" y="7" width="6" height="50" rx="2" fill="black"/>
<rect opacity="0.1" x="168" y="7" width="6" height="50" rx="2" fill="black"/>
<rect opacity="0.1" x="182" y="7" width="6" height="50" rx="2" fill="black"/>
<rect opacity="0.1" x="196" y="7" width="6" height="50" rx="2" fill="black"/>
<rect opacity="0.1" x="210" y="46" width="6" height="11" rx="2" fill="black"/>
<rect opacity="0.1" x="224" y="46" width="6" height="11" rx="2" fill="black"/>
<rect opacity="0.1" x="238" y="40" width="6" height="17" rx="2" fill="black"/>
<rect opacity="0.1" x="252" y="40" width="6" height="17" rx="2" fill="black"/>
<rect opacity="0.1" x="266" width="6" height="57" rx="2" fill="black"/>
<rect opacity="0.1" x="280" y="29" width="6" height="28" rx="2" fill="black"/>
<rect x="294" y="13" width="6" height="44" rx="2" fill="#FED70A"/>
<path opacity="0.1" d="M0 57H419" stroke="black"/>
</svg>
