<svg width="336" height="185" viewBox="0 0 336 185" fill="none" xmlns="http://www.w3.org/2000/svg">
<g opacity="0.6">
<path d="M302.23 145.518H291.034V179.099H302.23V145.518Z" fill="#4C3261"/>
<path d="M319.016 134.322C319.016 137.262 318.437 140.174 317.311 142.89C316.186 145.607 314.537 148.075 312.458 150.154C310.379 152.233 307.911 153.882 305.194 155.008C302.478 156.133 299.566 156.712 296.626 156.712C293.686 156.712 290.774 156.133 288.058 155.008C285.341 153.882 282.873 152.233 280.794 150.154C278.715 148.075 277.065 145.607 275.94 142.89C274.815 140.174 274.236 137.262 274.236 134.322C274.236 95.147 284.268 44.776 296.631 44.776C308.994 44.776 319.016 95.147 319.016 134.322Z" fill="#BFBFBF"/>
<path d="M291.034 134.322C291.034 102.184 296.097 62.5829 303.034 49.3539C301.007 46.4539 298.863 44.7629 296.639 44.7629C284.269 44.7629 274.248 95.1339 274.248 134.309C274.202 137.807 274.986 141.265 276.538 144.401C278.089 147.536 280.362 150.259 283.17 152.344C285.979 154.43 289.242 155.819 292.692 156.397C296.142 156.975 299.68 156.727 303.015 155.671C296.115 152.903 291.034 144.449 291.034 134.322Z" fill="#A5A5A5"/>
<path d="M167.908 123.127H156.712V151.113H167.908V123.127Z" fill="#234C54"/>
<path d="M246.265 123.127H235.069V151.113H246.265V123.127Z" fill="#234C54"/>
<path d="M190.299 72.756H179.103V179.092H190.299V72.756Z" fill="#4C3261"/>
<path d="M83.9572 134.322H72.7612V179.098H83.9572V134.322Z" fill="#4C3261"/>
<path d="M44.781 145.518H33.585V179.099H44.781V145.518Z" fill="#4C3261"/>
<path d="M128.733 128.728C127.992 128.718 127.256 128.856 126.569 129.132C125.881 129.409 125.256 129.819 124.728 130.34C124.201 130.86 123.782 131.48 123.496 132.164C123.21 132.848 123.063 133.581 123.063 134.323C123.063 135.064 123.21 135.797 123.496 136.481C123.782 137.165 124.201 137.785 124.728 138.305C125.256 138.826 125.881 139.236 126.569 139.513C127.256 139.79 127.992 139.927 128.733 139.917C130.216 139.92 131.638 140.512 132.687 141.561C133.736 142.611 134.326 144.033 134.328 145.517V179.098H145.528V145.518C145.522 141.066 143.751 136.798 140.602 133.65C137.454 130.502 133.185 128.732 128.733 128.728Z" fill="#234C54"/>
<path d="M274.244 128.728C269.793 128.733 265.525 130.504 262.378 133.652C259.23 136.799 257.459 141.067 257.454 145.518V179.099H268.654V145.518C268.656 144.034 269.246 142.612 270.295 141.562C271.344 140.513 272.765 139.921 274.249 139.918C275.72 139.898 277.124 139.3 278.157 138.253C279.19 137.206 279.769 135.794 279.769 134.324C279.769 132.853 279.19 131.441 278.157 130.394C277.124 129.347 275.72 128.749 274.249 128.729L274.244 128.728Z" fill="#234C54"/>
<path d="M117.537 106.336C117.537 116.727 113.409 126.693 106.061 134.04C98.7135 141.388 88.7479 145.516 78.3568 145.516C67.9656 145.516 58 141.388 50.6523 134.04C43.3046 126.693 39.1768 116.727 39.1768 106.336C39.1798 55.965 56.7248 0 78.3618 0C99.9988 0 117.537 55.965 117.537 106.336Z" fill="#BFBFBF"/>
<path d="M72.7601 125.068C72.7601 142.54 57.7271 156.707 39.1791 156.707C20.6311 156.707 5.59912 142.54 5.59912 125.068C5.59912 84.404 20.6381 39.149 39.1801 39.149C57.7221 39.149 72.7601 84.384 72.7601 125.068Z" fill="#BFBFBF"/>
<path d="M184.698 83.951C206.334 83.951 223.873 66.4117 223.873 44.776C223.873 23.1402 206.334 5.60095 184.698 5.60095C163.062 5.60095 145.523 23.1402 145.523 44.776C145.523 66.4117 163.062 83.951 184.698 83.951Z" fill="#BFBFBF"/>
<path d="M330.216 184.693H5.6C4.11479 184.693 2.69041 184.103 1.6402 183.053C0.589998 182.003 0 180.578 0 179.093C0 177.608 0.589998 176.183 1.6402 175.133C2.69041 174.083 4.11479 173.493 5.6 173.493H330.216C331.701 173.493 333.126 174.083 334.176 175.133C335.226 176.183 335.816 177.608 335.816 179.093C335.816 180.578 335.226 182.003 334.176 183.053C333.126 184.103 331.701 184.693 330.216 184.693Z" fill="#BED4AD"/>
<path d="M61.5722 106.336C61.5722 60.392 71.2992 9.836 83.9572 1.311C82.2075 0.478622 80.2996 0.0315501 78.3622 0C56.7182 0 39.1802 55.965 39.1802 106.336C39.1393 111.965 40.3206 117.536 42.6425 122.664C44.9643 127.792 48.3715 132.355 52.6286 136.038C56.8858 139.72 61.8915 142.436 67.3002 143.995C72.7089 145.555 78.3917 145.922 83.9562 145.072C71.3052 142.324 61.5722 126.071 61.5722 106.336Z" fill="#A5A5A5"/>
<path d="M27.99 125.068C27.99 88.3391 35.139 48.0681 44.49 40.5391C42.8435 39.6989 41.0316 39.2331 39.184 39.175C20.643 39.175 5.60303 84.3841 5.60303 125.094C5.60303 142.566 20.642 156.733 39.184 156.733C40.9611 156.722 42.7348 156.578 44.49 156.3C35.139 153.874 27.99 140.835 27.99 125.068Z" fill="#A5A5A5"/>
<path d="M167.907 44.776C167.904 36.3359 170.627 28.1206 175.669 21.3525C180.712 14.5845 187.805 9.62565 195.893 7.21397C190.043 5.46028 183.864 5.09848 177.849 6.15744C171.834 7.21641 166.15 9.66681 161.25 13.3131C156.351 16.9593 152.371 21.7005 149.63 27.158C146.888 32.6156 145.46 38.6385 145.46 44.746C145.46 50.8534 146.888 56.8763 149.63 62.3339C152.371 67.7915 156.351 72.5326 161.25 76.1789C166.15 79.8251 171.834 82.2755 177.849 83.3345C183.864 84.3935 190.043 84.0317 195.893 82.278C187.814 79.8712 180.727 74.9221 175.685 68.1662C170.643 61.4102 167.915 53.2079 167.907 44.778V44.776Z" fill="#A5A5A5"/>
<path d="M246.264 128.727H156.712C155.977 128.727 155.249 128.582 154.57 128.301C153.891 128.019 153.274 127.607 152.754 127.087C152.235 126.566 151.823 125.949 151.542 125.27C151.261 124.59 151.117 123.862 151.117 123.127V111.937C151.117 111.202 151.261 110.474 151.542 109.794C151.823 109.115 152.235 108.498 152.754 107.978C153.274 107.457 153.891 107.045 154.57 106.763C155.249 106.482 155.977 106.337 156.712 106.337H246.265C247 106.337 247.728 106.482 248.407 106.763C249.087 107.045 249.704 107.457 250.223 107.978C250.743 108.498 251.155 109.115 251.436 109.794C251.717 110.474 251.861 111.202 251.86 111.937V123.126C251.861 123.861 251.717 124.589 251.436 125.269C251.155 125.948 250.743 126.565 250.223 127.086C249.704 127.606 249.087 128.018 248.407 128.3C247.728 128.581 247 128.726 246.265 128.726L246.264 128.727Z" fill="#A3AD84"/>
<path d="M263.055 156.707H139.922C138.451 156.687 137.047 156.089 136.014 155.042C134.981 153.995 134.402 152.583 134.402 151.112C134.402 149.642 134.981 148.23 136.014 147.183C137.047 146.136 138.451 145.538 139.922 145.518H263.055C263.796 145.508 264.532 145.645 265.219 145.922C265.906 146.199 266.532 146.609 267.06 147.13C267.587 147.65 268.006 148.27 268.292 148.954C268.578 149.638 268.725 150.371 268.725 151.112C268.725 151.853 268.578 152.587 268.292 153.271C268.006 153.955 267.587 154.575 267.06 155.095C266.532 155.616 265.906 156.026 265.219 156.303C264.532 156.579 263.796 156.717 263.055 156.707Z" fill="#A3AD84"/>
</g>
</svg>
