<svg width="106" height="46" viewBox="0 0 106 46" fill="none" xmlns="http://www.w3.org/2000/svg">
<path d="M48.7468 11.7416H49.7478V23.2286H48.7468V11.7416ZM61.0265 11.7416V23.2286H60.0255L53.4779 13.3498V23.2286H52.4769V11.7416H53.4779L60.0255 21.604V11.7416H61.0265ZM67.4143 11.7416C68.7052 11.7416 69.7992 11.9713 70.6963 12.4308C71.6043 12.8903 72.2935 13.5522 72.7639 14.4164C73.2453 15.2807 73.486 16.309 73.486 17.5015C73.486 18.694 73.2453 19.7168 72.7639 20.5702C72.2935 21.4235 71.6043 22.0799 70.6963 22.5394C69.7992 22.9988 68.7052 23.2286 67.4143 23.2286H63.7549V11.7416H67.4143ZM67.4143 22.3588C69.099 22.3588 70.3626 21.9322 71.205 21.0789C72.0583 20.2146 72.485 19.0222 72.485 17.5015C72.485 15.9808 72.0583 14.7884 71.205 13.9241C70.3626 13.0489 69.099 12.6113 67.4143 12.6113H64.7559V22.3588H67.4143ZM82.8985 12.6113H76.4986V16.9272H81.3067V17.7969H76.4986V22.3588H82.8985V23.2286H75.4976V11.7416H82.8985V12.6113ZM91.9801 15.0892C91.9801 14.3344 91.7613 13.7327 91.3237 13.2841C90.8861 12.8356 90.1532 12.6113 89.1248 12.6113H86.3023V17.5507H89.1576C89.814 17.5507 90.3501 17.4468 90.7658 17.2389C91.1815 17.0311 91.4878 16.7412 91.6848 16.3692C91.8817 15.9973 91.9801 15.5706 91.9801 15.0892ZM89.1248 11.7416C90.0328 11.7416 90.7658 11.8893 91.3237 12.1847C91.8926 12.4801 92.3138 12.8794 92.5873 13.3826C92.8608 13.8858 92.9975 14.4547 92.9975 15.0892C92.9975 15.5597 92.921 15.9973 92.7678 16.402C92.6146 16.8068 92.3794 17.1624 92.0622 17.4687C91.7449 17.7641 91.3456 17.9993 90.8643 18.1743C90.3829 18.3493 89.814 18.4369 89.1576 18.4369H86.3023V23.2286H85.3013V11.7416H89.1248ZM89.9945 18.0594L93.1945 23.2286H92.0622L88.9115 18.0594H89.9945ZM95.5293 20.4717C95.6059 20.778 95.7536 21.0843 95.9724 21.3907C96.1912 21.697 96.4975 21.9541 96.8913 22.1619C97.2961 22.3588 97.8212 22.4573 98.4667 22.4573C99.3747 22.4573 100.048 22.2494 100.485 21.8337C100.923 21.418 101.142 20.9038 101.142 20.2912C101.142 19.8208 101.016 19.4324 100.764 19.1261C100.523 18.8198 100.19 18.5681 99.7631 18.3712C99.3473 18.1743 98.8769 17.9993 98.3518 17.8461C97.9033 17.7258 97.4657 17.5945 97.039 17.4523C96.6233 17.2991 96.2459 17.1131 95.9067 16.8943C95.5676 16.6755 95.2996 16.3966 95.1026 16.0574C94.9057 15.7073 94.8073 15.2752 94.8073 14.761C94.8073 14.1265 94.9549 13.5795 95.2503 13.12C95.5457 12.6496 95.9614 12.2831 96.4975 12.0206C97.0445 11.758 97.6845 11.6267 98.4175 11.6267C99.0629 11.6267 99.6208 11.7252 100.091 11.9221C100.562 12.1081 100.95 12.3707 101.256 12.7098C101.563 13.038 101.781 13.4045 101.913 13.8093L101.043 14.1375C100.956 13.8858 100.797 13.6342 100.567 13.3826C100.348 13.12 100.053 12.9067 99.681 12.7426C99.32 12.5676 98.8879 12.4801 98.3846 12.4801C97.9142 12.4801 97.4821 12.5676 97.0882 12.7426C96.6944 12.9067 96.3771 13.1529 96.1365 13.4811C95.9067 13.7983 95.7919 14.1812 95.7919 14.6298C95.7919 15.1111 95.9231 15.494 96.1857 15.7785C96.4483 16.052 96.7929 16.2762 97.2195 16.4513C97.6571 16.6154 98.1385 16.774 98.6636 16.9272C99.1121 17.0694 99.5443 17.2225 99.96 17.3866C100.387 17.5507 100.759 17.7531 101.076 17.9938C101.404 18.2345 101.661 18.5353 101.847 18.8963C102.044 19.2464 102.143 19.6786 102.143 20.1927C102.143 20.7507 102.011 21.2703 101.749 21.7517C101.497 22.233 101.103 22.6214 100.567 22.9168C100.031 23.2012 99.3364 23.3434 98.4831 23.3434C97.7501 23.3434 97.1156 23.234 96.5795 23.0152C96.0544 22.7855 95.6278 22.4847 95.2996 22.1127C94.9714 21.7298 94.7471 21.3031 94.6268 20.8327L95.5293 20.4717Z" fill="black"/>
<path d="M43.7898 40.8056C42.8438 40.8056 41.9554 40.6395 41.1245 40.3071C40.2935 39.9747 39.5649 39.5081 38.9385 38.9073C38.3248 38.2937 37.8391 37.5714 37.4811 36.7405C37.136 35.8967 36.9634 34.9699 36.9634 33.96C36.9634 32.9629 37.136 32.0489 37.4811 31.2179C37.8391 30.3742 38.3248 29.6456 38.9385 29.032C39.5649 28.4183 40.2935 27.9453 41.1245 27.613C41.9554 27.2806 42.8438 27.1144 43.7898 27.1144C44.7358 27.1144 45.6179 27.2806 46.436 27.613C47.267 27.9453 47.9892 28.4183 48.6029 29.032C49.2293 29.6456 49.715 30.3742 50.0602 31.2179C50.4181 32.0489 50.5971 32.9629 50.5971 33.96C50.5971 34.9699 50.4181 35.8967 50.0602 36.7405C49.715 37.5714 49.2293 38.2937 48.6029 38.9073C47.9892 39.5081 47.267 39.9747 46.436 40.3071C45.6179 40.6395 44.7358 40.8056 43.7898 40.8056ZM43.7898 38.8689C44.6591 38.8689 45.4325 38.6708 46.1101 38.2745C46.7876 37.8654 47.3181 37.2965 47.7016 36.5679C48.0851 35.8264 48.2769 34.9572 48.2769 33.96C48.2769 32.9501 48.0851 32.0808 47.7016 31.3522C47.3181 30.6235 46.7876 30.061 46.1101 29.6647C45.4325 29.2557 44.6591 29.0511 43.7898 29.0511C42.9206 29.0511 42.1471 29.2557 41.4696 29.6647C40.7921 30.061 40.2552 30.6235 39.8589 31.3522C39.4754 32.0808 39.2836 32.9501 39.2836 33.96C39.2836 34.9572 39.4754 35.8264 39.8589 36.5679C40.2552 37.2965 40.7921 37.8654 41.4696 38.2745C42.1471 38.6708 42.9206 38.8689 43.7898 38.8689ZM64.2151 31.2947C64.2151 30.6299 64.0169 30.1058 63.6206 29.7223C63.2243 29.3388 62.6107 29.147 61.7798 29.147H58.8076V33.4615H61.7798C62.3423 33.4615 62.7961 33.3784 63.1412 33.2122C63.4992 33.0332 63.7676 32.7839 63.9466 32.4643C64.1256 32.132 64.2151 31.7421 64.2151 31.2947ZM61.7798 27.2486C62.8536 27.2486 63.7357 27.434 64.426 27.8047C65.1291 28.1627 65.6532 28.6548 65.9984 29.2812C66.3435 29.8948 66.5161 30.566 66.5161 31.2947C66.5161 31.7804 66.433 32.2598 66.2668 32.7328C66.1007 33.2058 65.8322 33.6468 65.4615 34.0559C65.0907 34.4522 64.5986 34.7718 63.985 35.0147C63.3841 35.2448 62.6491 35.3598 61.7798 35.3598H58.8076V40.6714H56.5257V27.2486H61.7798ZM63.1412 34.612L66.8037 40.6714H64.2342L60.706 34.612H63.1412ZM72.0671 33.96C72.0671 32.9501 72.2397 32.0297 72.5848 31.1988C72.9428 30.3551 73.4285 29.6328 74.0422 29.032C74.6686 28.4183 75.3908 27.9453 76.209 27.613C77.0399 27.2806 77.9284 27.1144 78.8744 27.1144C80.1911 27.1144 81.3799 27.4276 82.441 28.054C83.5148 28.6804 84.333 29.5816 84.8954 30.7577L83.0354 31.3905C82.7414 30.8281 82.3643 30.3742 81.9041 30.0291C81.4439 29.6839 80.9581 29.4346 80.4467 29.2812C79.9354 29.1278 79.4304 29.0511 78.9319 29.0511C78.0626 29.0511 77.2828 29.2557 76.5925 29.6647C75.9022 30.061 75.3589 30.6299 74.9626 31.3714C74.5791 32.1 74.3873 32.9629 74.3873 33.96C74.3873 34.9444 74.5791 35.8073 74.9626 36.5487C75.3589 37.2774 75.9022 37.8462 76.5925 38.2553C77.2828 38.6644 78.0626 38.8689 78.9319 38.8689C79.4432 38.8689 79.961 38.7922 80.4851 38.6388C81.022 38.4726 81.527 38.1914 81.9999 37.7951C82.4857 37.386 82.8884 36.8427 83.208 36.1652L85.0488 36.7596C84.4608 38.1403 83.6235 39.163 82.5369 39.8277C81.4503 40.4797 80.2294 40.8056 78.8744 40.8056C77.9284 40.8056 77.0399 40.6395 76.209 40.3071C75.3908 39.9747 74.6686 39.5017 74.0422 38.8881C73.4285 38.2745 72.9428 37.5522 72.5848 36.7213C72.2397 35.8776 72.0671 34.9572 72.0671 33.96ZM100.365 29.147H93.4806V32.9246H98.6388V34.8229H93.4806V38.7731H100.365V40.6714H91.1987V27.2486H100.365V29.147Z" fill="black"/>
<path d="M9.36616 8.0525C8.2114 8.23139 7.16185 8.97889 6.78138 9.33028C6.07644 7.73306 8.92984 6.23168 10.9103 5.68863C11.9791 5.39555 17.1877 4.21918 17.1877 4.28307C17.1877 4.6664 16.6841 5.49696 16.3484 5.84835C16.0127 6.19974 15.0393 6.77472 15.14 6.77472C15.2407 6.77472 15.6099 6.74278 15.6099 6.77472C15.6099 6.80028 15.5428 6.8919 15.5092 6.93445C14.7371 7.66917 14.0658 7.95667 13.2937 8.0525C12.5216 8.14833 10.8096 7.82889 9.36616 8.0525Z" fill="#FED70A"/>
<path d="M7.01643 10.9594C6.69416 10.0905 6.31148 9.90527 5.87509 10.0969C5.17015 10.608 3.65957 11.8539 3.12246 12.4928C2.84325 12.8249 2.67489 13.0358 2.68607 13.1636C4.29737 12.5886 5.87509 12.365 7.45282 12.365C8.22631 12.365 9.56764 12.8761 9.90333 13.6428C10.2708 14.482 10.4404 14.3775 10.4404 14.2817C10.7761 12.7164 9.9369 12.0775 8.62772 11.5664C7.58038 11.1575 7.13949 11.034 7.01643 10.9594Z" fill="#FED70A"/>
<path d="M10.6745 23.3858C10.3836 23.29 10.069 22.4757 9.93603 20.7664C9.80176 19.0414 9.83526 16.4539 13.4607 14.0261C17.0861 11.5983 22.0207 10.64 24.6726 10.3206C26.6509 10.0822 35.7279 9.5951 40.8527 8.84574C42.5977 8.59064 43.1018 8.37392 43.8739 8.08444C44.8679 7.71184 45.4654 6.77332 45.4968 6.51527C45.493 6.49482 45.4891 6.47483 45.4851 6.45528C45.4966 6.46512 45.5004 6.48575 45.4968 6.51527C45.7264 7.72155 45.9054 10.5165 45.3509 12.6525C44.9093 14.3533 44.6795 15.8789 42.464 17.6678C41.8061 18.1989 40.1478 19.2158 38.6707 19.3608C37.1937 19.5059 32.2591 19.6483 24.2026 20.1914C16.1462 20.7344 11.7487 21.3414 10.6745 23.3858Z" fill="#FED70A"/>
<path d="M10.8771 30.8928C10.105 31.7553 9.48007 34.1284 9.66859 35.0775C7.68804 32.8414 7.31483 29.1175 8.42655 26.5483C9.60145 23.833 12.4548 23.0025 14.3011 22.7789C16.1473 22.5553 22.9618 22.8108 25.9494 22.3317C28.3394 21.9483 30.1902 21.3627 30.8168 21.1178C30.9623 21.7247 31.2605 23.1767 30.8168 24.7914C30.1476 27.2265 28.5373 28.4265 26.52 28.9442C23.5324 29.7108 20.391 28.8458 16.2145 29.1039C13.6297 29.2636 11.6491 30.0303 10.8771 30.8928Z" fill="#FED70A"/>
<path d="M12.1184 37.6011C11.0442 39.7733 11.6037 41.296 12.1184 41.69C10.7757 41.69 10.1714 41.4344 9.46648 40.7636C8.76154 40.0928 8.66083 39.1344 8.79511 38.1442C8.92938 37.1539 9.93644 35.3969 10.3057 34.6942C10.6011 34.1319 10.8764 33.0011 10.8764 32.1386C11.391 32.1812 12.5414 32.49 13.0248 33.3844C13.629 34.5025 13.4611 34.8858 12.1184 37.6011Z" fill="#FED70A"/>
<path d="M14.2578 13.528C18.166 13.6125 25.6514 13.9025 28.9708 14.5053C29.0966 14.5281 29.2226 14.5511 29.3487 14.574C33.6313 15.3533 38.0651 16.1599 40.2498 14.8567C42.4723 13.5309 45.3176 10.3959 45.3198 6.90045C45.0701 7.28813 44.5694 7.82422 43.8752 8.08444C43.8274 8.10239 43.7806 8.12003 43.7346 8.1374C43.036 8.40088 42.491 8.60641 40.8541 8.84574C37.4338 9.34586 32.2531 9.7292 28.5972 9.9997C26.7752 10.1345 25.332 10.2413 24.6739 10.3206C22.2115 10.6172 17.7809 11.4647 14.2578 13.528Z" fill="url(#paint0_radial_3071_31247)"/>
<path d="M29.9509 26.6798C27.9134 26.9597 26.0208 26.508 19.3026 24.5678C15.12 23.3599 12.8844 23.2247 11.9023 23.3688C12.7491 23.0371 13.598 22.864 14.3009 22.7789C15.0465 22.6886 16.6024 22.6764 18.3893 22.6625C21.027 22.6418 24.1681 22.6173 25.9492 22.3317C28.3393 21.9483 30.19 21.3627 30.8166 21.1178C30.9621 21.7247 31.2603 23.1767 30.8166 24.7914C30.6122 25.5354 30.3179 26.1576 29.9509 26.6798Z" fill="url(#paint1_radial_3071_31247)"/>
<path d="M9.66855 35.0775C9.48003 34.1284 10.105 31.6594 10.8771 30.8928C11.6492 30.1261 14.1136 29.2259 16.2145 29.1039C17.9735 29.0017 19.4749 29.1164 20.8578 29.222C22.8531 29.3744 24.6014 29.5079 26.52 28.9442C27.9222 28.5321 29.1443 27.8515 29.9794 26.639C29.4139 26.7572 28.7827 26.8811 28.1313 26.9955C25.9493 27.3789 22.6596 26.9955 19.5713 26.6122C16.483 26.2289 12.9583 26.639 11.2463 28.433C10.0042 29.7346 9.60913 30.5956 9.43659 31.551C9.36925 31.9241 9.31172 32.2427 9.19859 32.458C8.91164 33.0042 8.37267 32.375 8.06055 31.8698C8.34742 33.0635 8.8809 34.1882 9.66855 35.0775Z" fill="url(#paint2_radial_3071_31247)"/>
<path d="M10.8175 32.9095C11.1934 33.2529 11.8148 34.2021 11.5819 35.5567C11.4283 36.4496 11.11 37.0785 10.8341 37.6236C10.5672 38.1512 10.3398 38.6003 10.3398 39.1344C10.3398 40.0033 11.1678 40.6252 11.5819 40.8275L11.6291 40.8658C11.4129 40.1338 11.4259 39.0026 12.119 37.6011C13.4617 34.8858 13.6296 34.5025 13.0253 33.3844C12.5419 32.49 11.3916 32.1812 10.8769 32.1386C10.8769 32.3806 10.8553 32.6438 10.8175 32.9095Z" fill="url(#paint3_radial_3071_31247)"/>
<path d="M8.00586 8.50846C8.41244 8.3037 8.87972 8.12775 9.36559 8.05249C10.226 7.91921 11.1819 7.97889 11.9772 8.02853C12.5161 8.0622 12.9813 8.0912 13.2931 8.05249C14.0652 7.95665 14.7366 7.66915 15.5086 6.93443C15.5422 6.89188 15.6093 6.80026 15.6093 6.77471C15.6093 6.75196 15.4219 6.76161 15.2777 6.76909C15.2195 6.77209 15.1684 6.77471 15.1395 6.77471C15.0961 6.77471 15.2512 6.66859 15.4687 6.51966C15.7574 6.32192 16.1564 6.04876 16.3479 5.84834C16.5484 5.63838 16.809 5.25736 16.9861 4.90288C16.9227 4.89452 16.8555 4.89 16.7843 4.89C15.9827 4.89 14.5772 5.83945 13.729 6.41252C13.6181 6.48746 13.5167 6.55589 13.4275 6.61499C12.8005 7.03007 11.8856 7.087 10.9528 7.14507C10.7369 7.15849 10.52 7.17197 10.3056 7.18999C9.51423 7.25643 8.54806 7.99952 8.00586 8.50846Z" fill="url(#paint4_radial_3071_31247)"/>
<path d="M2.69141 13.1059C3.93607 12.3068 6.37796 11.7352 7.55342 11.5344H5.94211C5.09145 11.5344 5.811 11.0008 5.80865 10.9979C5.80813 10.9973 5.77161 11.0231 5.67357 11.0872C5.16231 11.4217 4.40771 11.7851 3.61247 11.9847C3.41333 12.1745 3.2432 12.349 3.12235 12.4928C2.88167 12.7791 2.72334 12.9753 2.69141 13.1059Z" fill="url(#paint5_radial_3071_31247)"/>
<path d="M2.69141 13.1059C3.93607 12.3068 6.37796 11.7352 7.55342 11.5344H5.94211C5.09145 11.5344 5.811 11.0008 5.80865 10.9979C5.80813 10.9973 5.77161 11.0231 5.67357 11.0872C5.16231 11.4217 4.40771 11.7851 3.61247 11.9847C3.41333 12.1745 3.2432 12.349 3.12235 12.4928C2.88167 12.7791 2.72334 12.9753 2.69141 13.1059Z" fill="url(#paint6_radial_3071_31247)"/>
<defs>
<radialGradient id="paint0_radial_3071_31247" cx="0" cy="0" r="1" gradientUnits="userSpaceOnUse" gradientTransform="translate(44.1438 8.59555) rotate(170.613) scale(22.524 33.1846)">
<stop stop-color="#7B5D02"/>
<stop offset="1" stop-color="#7B5D02" stop-opacity="0"/>
</radialGradient>
<radialGradient id="paint1_radial_3071_31247" cx="0" cy="0" r="1" gradientUnits="userSpaceOnUse" gradientTransform="translate(30.1453 23.9289) rotate(171.123) scale(13.4544 41.4844)">
<stop stop-color="#986E01"/>
<stop offset="1" stop-color="#986E01" stop-opacity="0"/>
</radialGradient>
<radialGradient id="paint2_radial_3071_31247" cx="0" cy="0" r="1" gradientUnits="userSpaceOnUse" gradientTransform="translate(14.6031 30.2219) rotate(-109.304) scale(4.46787 11.3394)">
<stop stop-color="#B58E01"/>
<stop offset="1" stop-color="#B58E01" stop-opacity="0"/>
</radialGradient>
<radialGradient id="paint3_radial_3071_31247" cx="0" cy="0" r="1" gradientUnits="userSpaceOnUse" gradientTransform="translate(13.361 33.9914) rotate(102.402) scale(7.03865 2.42434)">
<stop stop-color="#A28900"/>
<stop offset="1" stop-color="#A28900" stop-opacity="0"/>
</radialGradient>
<radialGradient id="paint4_radial_3071_31247" cx="0" cy="0" r="1" gradientUnits="userSpaceOnUse" gradientTransform="translate(16.4151 9.20249) rotate(-142.263) scale(7.04618 16.4547)">
<stop stop-color="#584800"/>
<stop offset="1" stop-color="#584800" stop-opacity="0"/>
</radialGradient>
<radialGradient id="paint5_radial_3071_31247" cx="0" cy="0" r="1" gradientUnits="userSpaceOnUse" gradientTransform="translate(2.51812 13.2594) rotate(-25.679) scale(3.53849 0.789089)">
<stop stop-color="#6B5C04"/>
<stop offset="1" stop-color="#6B5C04" stop-opacity="0"/>
</radialGradient>
<radialGradient id="paint6_radial_3071_31247" cx="0" cy="0" r="1" gradientUnits="userSpaceOnUse" gradientTransform="translate(3.72659 13.8344) rotate(-26.7833) scale(4.32431 1.78414)">
<stop stop-color="#6B5C04"/>
<stop offset="1" stop-color="#6B5C04" stop-opacity="0"/>
</radialGradient>
</defs>
</svg>
