<svg width="88" height="40" viewBox="0 0 88 40" fill="none" xmlns="http://www.w3.org/2000/svg">
<path d="M40.5277 10.2852H41.3991V20.2852H40.5277V10.2852ZM51.2177 10.2852V20.2852H50.3463L44.6463 11.6852V20.2852H43.7749V10.2852H44.6463L50.3463 18.8709V10.2852H51.2177ZM56.7787 10.2852C57.9025 10.2852 58.8548 10.4852 59.6358 10.8852C60.4263 11.2852 61.0263 11.8613 61.4358 12.6137C61.8548 13.3661 62.0644 14.2613 62.0644 15.2994C62.0644 16.3375 61.8548 17.228 61.4358 17.9709C61.0263 18.7137 60.4263 19.2852 59.6358 19.6852C58.8548 20.0852 57.9025 20.2852 56.7787 20.2852H53.5929V10.2852H56.7787ZM56.7787 19.528C58.2453 19.528 59.3453 19.1566 60.0787 18.4137C60.8215 17.6613 61.1929 16.6233 61.1929 15.2994C61.1929 13.9756 60.8215 12.9375 60.0787 12.1852C59.3453 11.4233 58.2453 11.0423 56.7787 11.0423H54.4644V19.528H56.7787ZM70.2585 11.0423H64.687V14.7994H68.8727V15.5566H64.687V19.528H70.2585V20.2852H63.8156V10.2852H70.2585V11.0423ZM78.1645 13.1994C78.1645 12.5423 77.974 12.0185 77.5931 11.628C77.2121 11.2375 76.574 11.0423 75.6788 11.0423H73.2216V15.3423H75.7073C76.2788 15.3423 76.7454 15.2518 77.1073 15.0709C77.4692 14.8899 77.7359 14.6375 77.9073 14.3137C78.0788 13.9899 78.1645 13.6185 78.1645 13.1994ZM75.6788 10.2852C76.4692 10.2852 77.1073 10.4137 77.5931 10.6709C78.0883 10.928 78.455 11.2756 78.6931 11.7137C78.9311 12.1518 79.0502 12.6471 79.0502 13.1994C79.0502 13.609 78.9835 13.9899 78.8502 14.3423C78.7169 14.6947 78.5121 15.0042 78.2359 15.2709C77.9597 15.528 77.6121 15.7328 77.1931 15.8852C76.774 16.0375 76.2788 16.1137 75.7073 16.1137H73.2216V20.2852H72.3502V10.2852H75.6788ZM76.4359 15.7852L79.2216 20.2852H78.2359L75.4931 15.7852H76.4359ZM81.2542 17.8852C81.3209 18.1518 81.4495 18.4185 81.6399 18.6852C81.8304 18.9518 82.0971 19.1756 82.4399 19.3566C82.7923 19.528 83.2495 19.6137 83.8114 19.6137C84.6018 19.6137 85.1875 19.4328 85.5685 19.0709C85.9495 18.709 86.1399 18.2613 86.1399 17.728C86.1399 17.3185 86.0304 16.9804 85.8114 16.7137C85.6018 16.4471 85.3114 16.228 84.9399 16.0566C84.578 15.8852 84.1685 15.7328 83.7114 15.5994C83.3209 15.4947 82.9399 15.3804 82.5685 15.2566C82.2066 15.1233 81.878 14.9613 81.5828 14.7709C81.2875 14.5804 81.0542 14.3375 80.8828 14.0423C80.7114 13.7375 80.6256 13.3613 80.6256 12.9137C80.6256 12.3613 80.7542 11.8852 81.0114 11.4852C81.2685 11.0756 81.6304 10.7566 82.0971 10.528C82.5733 10.2994 83.1304 10.1852 83.7685 10.1852C84.3304 10.1852 84.8161 10.2709 85.2256 10.4423C85.6352 10.6042 85.9733 10.8328 86.2399 11.128C86.5066 11.4137 86.6971 11.7328 86.8114 12.0852L86.0542 12.3709C85.978 12.1518 85.8399 11.9328 85.6399 11.7137C85.4495 11.4852 85.1923 11.2994 84.8685 11.1566C84.5542 11.0042 84.178 10.928 83.7399 10.928C83.3304 10.928 82.9542 11.0042 82.6114 11.1566C82.2685 11.2994 81.9923 11.5137 81.7828 11.7994C81.5828 12.0756 81.4828 12.409 81.4828 12.7994C81.4828 13.2185 81.5971 13.5518 81.8256 13.7994C82.0542 14.0375 82.3542 14.2328 82.7256 14.3852C83.1066 14.528 83.5256 14.6661 83.9828 14.7994C84.3733 14.9233 84.7495 15.0566 85.1114 15.1994C85.4828 15.3423 85.8066 15.5185 86.0828 15.728C86.3685 15.9375 86.5923 16.1994 86.7542 16.5137C86.9256 16.8185 87.0114 17.1947 87.0114 17.6423C87.0114 18.128 86.8971 18.5804 86.6685 18.9994C86.4495 19.4185 86.1066 19.7566 85.6399 20.0137C85.1733 20.2613 84.5685 20.3852 83.8256 20.3852C83.1875 20.3852 82.6352 20.2899 82.1685 20.0994C81.7114 19.8994 81.3399 19.6375 81.0542 19.3137C80.7685 18.9804 80.5733 18.609 80.4685 18.1994L81.2542 17.8852Z" fill="white"/>
<path d="M36.6581 35.8317C35.8345 35.8317 35.0611 35.687 34.3377 35.3977C33.6144 35.1083 32.98 34.7021 32.4347 34.1791C31.9005 33.6449 31.4776 33.0161 31.166 32.2927C30.8655 31.5582 30.7153 30.7514 30.7153 29.8722C30.7153 29.0042 30.8655 28.2085 31.166 27.4851C31.4776 26.7506 31.9005 26.1163 32.4347 25.5821C32.98 25.0479 33.6144 24.6361 34.3377 24.3468C35.0611 24.0574 35.8345 23.9128 36.6581 23.9128C37.4816 23.9128 38.2495 24.0574 38.9617 24.3468C39.6851 24.6361 40.3139 25.0479 40.8481 25.5821C41.3934 26.1163 41.8163 26.7506 42.1167 27.4851C42.4283 28.2085 42.5841 29.0042 42.5841 29.8722C42.5841 30.7514 42.4283 31.5582 42.1167 32.2927C41.8163 33.0161 41.3934 33.6449 40.8481 34.1791C40.3139 34.7021 39.6851 35.1083 38.9617 35.3977C38.2495 35.687 37.4816 35.8317 36.6581 35.8317ZM36.6581 34.1457C37.4148 34.1457 38.0881 33.9732 38.6779 33.6282C39.2678 33.2721 39.7296 32.7768 40.0635 32.1425C40.3973 31.497 40.5643 30.7403 40.5643 29.8722C40.5643 28.9931 40.3973 28.2363 40.0635 27.602C39.7296 26.9676 39.2678 26.478 38.6779 26.133C38.0881 25.7768 37.4148 25.5988 36.6581 25.5988C35.9013 25.5988 35.228 25.7768 34.6382 26.133C34.0484 26.478 33.581 26.9676 33.236 27.602C32.9021 28.2363 32.7352 28.9931 32.7352 29.8722C32.7352 30.7403 32.9021 31.497 33.236 32.1425C33.581 32.7768 34.0484 33.2721 34.6382 33.6282C35.228 33.9732 35.9013 34.1457 36.6581 34.1457ZM54.4393 27.5519C54.4393 26.9732 54.2668 26.5169 53.9218 26.183C53.5768 25.8492 53.0426 25.6823 52.3193 25.6823H49.7318V29.4382H52.3193C52.8089 29.4382 53.204 29.3659 53.5045 29.2212C53.8161 29.0654 54.0498 28.8484 54.2056 28.5702C54.3614 28.2808 54.4393 27.9414 54.4393 27.5519ZM52.3193 24.0296C53.2541 24.0296 54.022 24.191 54.6229 24.5137C55.235 24.8253 55.6913 25.2538 55.9918 25.7991C56.2922 26.3333 56.4425 26.9175 56.4425 27.5519C56.4425 27.9748 56.3701 28.3921 56.2255 28.8039C56.0808 29.2156 55.8471 29.5996 55.5243 29.9557C55.2016 30.3007 54.7732 30.5789 54.239 30.7904C53.7159 30.9907 53.076 31.0908 52.3193 31.0908H49.7318V35.7148H47.7453V24.0296H52.3193ZM53.5045 30.4398L56.6929 35.7148H54.456L51.3844 30.4398H53.5045ZM61.2749 29.8722C61.2749 28.9931 61.4251 28.1918 61.7256 27.4684C62.0372 26.7339 62.4601 26.1051 62.9943 25.5821C63.5396 25.0479 64.1684 24.6361 64.8806 24.3468C65.604 24.0574 66.3774 23.9128 67.201 23.9128C68.3472 23.9128 69.3822 24.1854 70.3059 24.7307C71.2407 25.276 71.9529 26.0606 72.4426 27.0845L70.8234 27.6354C70.5674 27.1457 70.2391 26.7506 69.8385 26.4501C69.4378 26.1497 69.0149 25.9326 68.5698 25.7991C68.1246 25.6656 67.6851 25.5988 67.251 25.5988C66.4943 25.5988 65.8154 25.7768 65.2145 26.133C64.6135 26.478 64.1405 26.9732 63.7956 27.6187C63.4617 28.253 63.2948 29.0042 63.2948 29.8722C63.2948 30.7292 63.4617 31.4803 63.7956 32.1258C64.1405 32.7602 64.6135 33.2554 65.2145 33.6115C65.8154 33.9676 66.4943 34.1457 67.251 34.1457C67.6962 34.1457 68.1469 34.0789 68.6032 33.9454C69.0706 33.8007 69.5102 33.5559 69.9219 33.2109C70.3448 32.8547 70.6954 32.3818 70.9736 31.7919L72.5762 32.3094C72.0642 33.5113 71.3353 34.4016 70.3894 34.9803C69.4434 35.5479 68.3806 35.8317 67.201 35.8317C66.3774 35.8317 65.604 35.687 64.8806 35.3977C64.1684 35.1083 63.5396 34.6966 62.9943 34.1624C62.4601 33.6282 62.0372 32.9994 61.7256 32.2761C61.4251 31.5416 61.2749 30.7403 61.2749 29.8722ZM85.9093 25.6823H79.9165V28.9708H84.4069V30.6234H79.9165V34.0622H85.9093V35.7148H77.93V24.0296H85.9093V25.6823Z" fill="white"/>
<path d="M7.77583 7.0026C6.81716 7.15816 5.94583 7.80816 5.62997 8.11371C5.04474 6.72482 7.4136 5.41928 9.05777 4.94706C9.94509 4.69221 14.2692 3.66928 14.2692 3.72484C14.2692 4.05817 13.8511 4.7804 13.5724 5.08595C13.2937 5.39151 12.4856 5.89149 12.5692 5.89149C12.6528 5.89149 12.9593 5.86371 12.9593 5.89149C12.9593 5.91371 12.9036 5.99338 12.8757 6.03038C12.2347 6.66927 11.6774 6.91927 11.0364 7.0026C10.3954 7.08594 8.97416 6.80816 7.77583 7.0026Z" fill="#FED70A"/>
<path d="M5.82494 9.53045C5.5574 8.77489 5.2397 8.61378 4.87741 8.78045C4.29218 9.22489 3.03811 10.3082 2.59222 10.8638C2.36042 11.1526 2.22064 11.336 2.22993 11.4471C3.56761 10.9471 4.87741 10.7527 6.18723 10.7527C6.82937 10.7527 7.94293 11.1971 8.22161 11.8638C8.52666 12.5936 8.66751 12.5027 8.66751 12.4193C8.94619 11.0582 8.24948 10.5027 7.16262 10.0582C6.29313 9.70267 5.92711 9.59528 5.82494 9.53045Z" fill="#FED70A"/>
<path d="M8.86257 20.3355C8.62101 20.2522 8.35989 19.5441 8.24947 18.0577C8.138 16.5577 8.16581 14.3077 11.1756 12.1966C14.1854 10.0855 18.282 9.25217 20.4836 8.97439C22.126 8.76717 29.6616 8.34356 33.9161 7.69195C35.3648 7.47011 35.7833 7.28167 36.4243 7.02995C37.2495 6.70595 37.7456 5.88984 37.7717 5.66545C37.7684 5.64767 37.7652 5.63028 37.7619 5.61328C37.7714 5.62184 37.7746 5.63978 37.7717 5.66545C37.9622 6.71439 38.1109 9.14478 37.6505 11.0022C37.2839 12.4811 37.0931 13.8077 35.2538 15.3633C34.7077 15.8252 33.3309 16.7094 32.1047 16.8355C30.8785 16.9616 26.7819 17.0855 20.0934 17.5577C13.405 18.0299 9.75436 18.5577 8.86257 20.3355Z" fill="#FED70A"/>
<path d="M9.02983 26.8633C8.38891 27.6133 7.87006 29.6768 8.02657 30.5022C6.38234 28.5577 6.0725 25.3196 6.99544 23.0855C7.97083 20.7244 10.3396 20.0022 11.8724 19.8077C13.4051 19.6133 19.0624 19.8355 21.5427 19.4188C23.5269 19.0855 25.0634 18.5763 25.5836 18.3633C25.7044 18.8911 25.9519 20.1537 25.5836 21.5577C25.028 23.6752 23.6912 24.7187 22.0164 25.1688C19.5362 25.8355 16.9282 25.0833 13.4609 25.3077C11.315 25.4466 9.6708 26.1133 9.02983 26.8633Z" fill="#FED70A"/>
<path d="M10.061 32.6973C9.16925 34.5862 9.6337 35.9103 10.061 36.2528C8.94631 36.2528 8.44468 36.0306 7.85944 35.4473C7.27421 34.8639 7.19061 34.0306 7.30208 33.1695C7.41355 32.3084 8.2496 30.7806 8.55615 30.1695C8.80139 29.6806 9.02991 28.6973 9.02991 27.9473C9.45719 27.9843 10.4122 28.2528 10.8135 29.0306C11.3151 30.0028 11.1758 30.3362 10.061 32.6973Z" fill="#FED70A"/>
<path d="M11.8364 11.7631C15.081 11.8366 21.2952 12.0887 24.051 12.6129C24.1554 12.6328 24.26 12.6527 24.3647 12.6727C27.9201 13.3503 31.6009 14.0517 33.4147 12.9184C35.2598 11.7656 37.6219 9.0395 37.6238 6C37.4165 6.33711 37.0007 6.80328 36.4245 7.02956C36.3848 7.04517 36.3459 7.0605 36.3077 7.07561C35.7277 7.30472 35.2753 7.48344 33.9163 7.69156C31.0769 8.12644 26.7759 8.45978 23.7408 8.695C22.2282 8.81222 21.0301 8.90511 20.4838 8.974C18.4395 9.23194 14.7613 9.96889 11.8364 11.7631Z" fill="url(#paint0_radial_7012_55627)"/>
<path d="M24.8646 23.1998C23.1731 23.4432 21.6018 23.0504 16.0245 21.3633C12.5521 20.3129 10.6962 20.1954 9.88086 20.3207C10.5838 20.0323 11.2885 19.8818 11.8721 19.8077C12.4911 19.7292 13.7828 19.7186 15.2663 19.7065C17.4561 19.6886 20.0638 19.6672 21.5424 19.4188C23.5266 19.0855 25.0631 18.5763 25.5833 18.3633C25.7041 18.8911 25.9516 20.1537 25.5833 21.5577C25.4136 22.2047 25.1693 22.7457 24.8646 23.1998Z" fill="url(#paint1_radial_7012_55627)"/>
<path d="M8.02635 30.5028C7.86984 29.6775 8.3887 27.5306 9.02966 26.8639C9.67063 26.1973 11.7166 25.4145 13.4607 25.3084C14.921 25.2195 16.1675 25.3193 17.3156 25.4111C18.972 25.5436 20.4234 25.6597 22.0163 25.1695C23.1803 24.8112 24.1949 24.2194 24.8882 23.165C24.4187 23.2678 23.8947 23.3755 23.3539 23.475C21.5425 23.8084 18.8114 23.475 16.2475 23.1417C13.6836 22.8084 10.7574 23.165 9.33616 24.725C8.30503 25.8569 7.97702 26.6055 7.83378 27.4363C7.77788 27.7608 7.73011 28.0378 7.6362 28.225C7.39798 28.7 6.95053 28.1529 6.69141 27.7135C6.92957 28.7515 7.37245 29.7295 8.02635 30.5028Z" fill="url(#paint2_radial_7012_55627)"/>
<path d="M8.98055 28.6176C9.29262 28.9163 9.80846 29.7416 9.61511 30.9195C9.48764 31.6959 9.22339 32.2428 8.99432 32.7169C8.77271 33.1756 8.58398 33.5662 8.58398 34.0306C8.58398 34.7862 9.27138 35.3269 9.61511 35.5028L9.65435 35.5362C9.47482 34.8996 9.48558 33.916 10.061 32.6973C11.1757 30.3362 11.3151 30.0028 10.8134 29.0306C10.4121 28.2528 9.45715 27.9843 9.02988 27.9473C9.02988 28.1577 9.01187 28.3865 8.98055 28.6176Z" fill="url(#paint3_radial_7012_55627)"/>
<path d="M6.64697 7.39844C6.98451 7.22039 7.37244 7.06739 7.7758 7.00194C8.49012 6.88605 9.28364 6.93794 9.94395 6.98111C10.3913 7.01039 10.7775 7.03561 11.0364 7.00194C11.6774 6.91861 12.2347 6.66861 12.8757 6.02972C12.9036 5.99272 12.9593 5.91305 12.9593 5.89083C12.9593 5.87105 12.8037 5.87944 12.684 5.88594C12.6356 5.88855 12.5932 5.89083 12.5692 5.89083C12.5333 5.89083 12.6619 5.79855 12.8425 5.66905C13.0823 5.4971 13.4134 5.25957 13.5724 5.08529C13.7389 4.90272 13.9552 4.5714 14.1023 4.26315C14.0496 4.25588 13.9938 4.25195 13.9347 4.25195C13.2693 4.25195 12.1025 5.07756 11.3982 5.57589C11.3062 5.64105 11.222 5.70055 11.1479 5.75194C10.6274 6.11289 9.86793 6.16239 9.09347 6.21289C8.91422 6.22455 8.73419 6.23628 8.55617 6.25194C7.8992 6.30972 7.0971 6.95589 6.64697 7.39844Z" fill="url(#paint4_radial_7012_55627)"/>
<path d="M2.23438 11.3975C3.26768 10.7026 5.29491 10.2056 6.27076 10.031H4.93308C4.22686 10.031 4.82422 9.56696 4.82228 9.56446C4.82184 9.56391 4.79152 9.58635 4.71013 9.64213C4.28569 9.93302 3.65923 10.249 2.99903 10.4225C2.8337 10.5876 2.69247 10.7394 2.59214 10.8644C2.39233 11.1133 2.26089 11.284 2.23438 11.3975Z" fill="url(#paint5_radial_7012_55627)"/>
<path d="M2.23438 11.3975C3.26768 10.7026 5.29491 10.2056 6.27076 10.031H4.93308C4.22686 10.031 4.82422 9.56696 4.82228 9.56446C4.82184 9.56391 4.79152 9.58635 4.71013 9.64213C4.28569 9.93302 3.65923 10.249 2.99903 10.4225C2.8337 10.5876 2.69247 10.7394 2.59214 10.8644C2.39233 11.1133 2.26089 11.284 2.23438 11.3975Z" fill="url(#paint6_radial_7012_55627)"/>
<defs>
<radialGradient id="paint0_radial_7012_55627" cx="0" cy="0" r="1" gradientUnits="userSpaceOnUse" gradientTransform="translate(36.6474 7.474) rotate(170.176) scale(18.7233 28.819)">
<stop stop-color="#7B5D02"/>
<stop offset="1" stop-color="#7B5D02" stop-opacity="0"/>
</radialGradient>
<radialGradient id="paint1_radial_7012_55627" cx="0" cy="0" r="1" gradientUnits="userSpaceOnUse" gradientTransform="translate(25.0259 20.8077) rotate(170.709) scale(11.1826 36.0317)">
<stop stop-color="#986E01"/>
<stop offset="1" stop-color="#986E01" stop-opacity="0"/>
</radialGradient>
<radialGradient id="paint2_radial_7012_55627" cx="0" cy="0" r="1" gradientUnits="userSpaceOnUse" gradientTransform="translate(12.123 26.2806) rotate(-108.491) scale(3.86627 9.45975)">
<stop stop-color="#B58E01"/>
<stop offset="1" stop-color="#B58E01" stop-opacity="0"/>
</radialGradient>
<radialGradient id="paint3_radial_7012_55627" cx="0" cy="0" r="1" gradientUnits="userSpaceOnUse" gradientTransform="translate(11.0921 29.5584) rotate(101.856) scale(6.10806 2.01678)">
<stop stop-color="#A28900"/>
<stop offset="1" stop-color="#A28900" stop-opacity="0"/>
</radialGradient>
<radialGradient id="paint4_radial_7012_55627" cx="0" cy="0" r="1" gradientUnits="userSpaceOnUse" gradientTransform="translate(13.6282 8.00194) rotate(-140.971) scale(5.95511 14.0551)">
<stop stop-color="#584800"/>
<stop offset="1" stop-color="#584800" stop-opacity="0"/>
</radialGradient>
<radialGradient id="paint5_radial_7012_55627" cx="0" cy="0" r="1" gradientUnits="userSpaceOnUse" gradientTransform="translate(2.09051 11.531) rotate(-26.7309) scale(2.96428 0.679993)">
<stop stop-color="#6B5C04"/>
<stop offset="1" stop-color="#6B5C04" stop-opacity="0"/>
</radialGradient>
<radialGradient id="paint6_radial_7012_55627" cx="0" cy="0" r="1" gradientUnits="userSpaceOnUse" gradientTransform="translate(3.09377 12.031) rotate(-27.8659) scale(3.62522 1.53635)">
<stop stop-color="#6B5C04"/>
<stop offset="1" stop-color="#6B5C04" stop-opacity="0"/>
</radialGradient>
</defs>
</svg>
