<svg width="168" height="40" viewBox="0 0 168 40" fill="none" xmlns="http://www.w3.org/2000/svg">
<path d="M139.666 39.8096C139.649 39.5622 139.278 39.2666 138.841 39.1525C137.806 38.8817 137.815 38.0774 138.854 38.0774C139.714 38.0774 140.238 38.9135 139.902 39.7502C139.777 40.0603 139.685 40.0837 139.666 39.8096H139.666ZM85.8176 38.4516C81.484 38.0286 79.7311 37.0758 79.7311 35.1434C79.7311 34.8744 80.3483 34.36 81.1025 34.0004C82.4958 33.336 90.5964 31.5885 94.2112 31.1724C101.504 30.3329 106.889 29.7532 109.286 29.5498C110.814 29.4202 112.51 29.2546 113.055 29.1822C113.601 29.1098 115.743 28.9167 117.816 28.7534C119.888 28.5901 122.12 28.3979 122.775 28.3264C123.429 28.2549 125.393 28.1055 127.138 27.995C130.093 27.8076 138.986 27.1039 142.61 26.7708C143.483 26.6905 145.804 26.5125 147.768 26.3751C149.731 26.2377 151.874 25.9643 152.528 25.7676C153.183 25.5708 154.343 25.309 155.107 25.1856C159.192 24.5258 164.628 22.6171 164.628 21.8423C164.628 21.205 162.601 20.6801 159.075 20.4043C156.522 20.2047 155.196 19.9203 154.754 19.4776C154.004 18.7282 149.895 18.6875 146.424 19.3952C143.28 20.0361 142.372 19.9603 142.13 19.0373C141.87 18.0411 141.067 18.0218 140.146 18.9899C139.317 19.8612 135.562 21.8141 134.716 21.8141C133.812 21.8141 133.589 20.4294 134.242 18.8682C134.567 18.0886 134.735 17.4509 134.614 17.4509C134.493 17.4509 133.743 17.9625 132.948 18.588C131.267 19.9104 127.379 21.8141 126.36 21.8141C125.84 21.8141 125.721 21.6074 125.902 21.0208C126.037 20.5845 126.257 19.8705 126.391 19.4341C126.622 18.6872 126.453 18.6408 123.504 18.6408C120.576 18.6408 120.288 18.7182 119.064 19.8357C118.345 20.4929 117.603 20.9364 117.416 20.821C117.23 20.7058 116.965 20.7929 116.828 21.0143C116.511 21.5267 111.418 21.5378 108.75 21.033C107.512 20.7981 106.366 20.7885 105.82 21.008C105.326 21.2064 105.146 21.3798 105.418 21.3936C106.319 21.4392 105.935 22.1439 104.663 22.7781C103.064 23.5758 102.184 23.5876 102.5 22.8062C102.632 22.479 102.843 21.9579 102.969 21.6482C103.136 21.2368 102.575 21.3412 100.886 22.0355C97.882 23.2706 95.9964 23.3238 95.9964 22.1732C95.9964 21.3776 95.9032 21.3946 93.8205 22.5698C92.6237 23.2452 91.3741 23.7977 91.0435 23.7977C90.2066 23.7977 90.2936 22.9007 91.2358 21.8144C92.3156 20.5696 92.2615 20.091 91.1573 21.1202C90.8648 21.3929 89.4979 22.2167 88.1198 22.9507C85.1451 24.5352 84.4199 24.2592 85.6771 22.0212C86.1375 21.2016 86.4569 20.4737 86.3869 20.4037C86.3169 20.3338 85.7279 20.5162 85.0781 20.8094C81.5894 22.383 79.7312 22.3147 79.7312 20.6132C79.7312 19.9418 79.3886 20.071 77.2042 21.5663C71.5842 25.4135 67.4578 25.4589 68.989 21.6569C70.0629 18.9904 70.0334 18.7418 68.779 19.8888C67.0103 21.506 62.2474 24.2686 61.6338 24.0332C60.6503 23.6558 61.0528 22.1523 62.8793 19.3801C63.8658 17.8828 64.803 16.6523 64.962 16.6454C65.121 16.6392 65.5719 16.1923 65.9639 15.6537C66.7359 14.5932 66.2698 14.3076 65.3189 15.2584C64.8046 15.7726 64.6762 15.7717 64.244 15.2522C63.8482 14.7753 63.879 14.5217 64.4029 13.9429C65.2503 13.0067 65.2243 12.7218 64.3134 12.9599C63.8423 13.083 63.2957 12.7994 62.8066 12.1777L62.0391 11.2021L60.2731 14.5848C59.3017 16.4453 58.3285 18.1672 58.1103 18.4114C57.4582 19.141 56.2608 21.4191 56.5294 21.4191C56.6664 21.4191 57.0479 21.1496 57.3772 20.8205C57.7065 20.4912 58.1445 20.3259 58.3505 20.4532C58.5565 20.5806 58.676 20.447 58.616 20.1593C58.5561 19.8704 58.7748 19.634 59.1021 19.634C59.4294 19.634 59.7864 19.5447 59.8955 19.4357C60.8188 18.5125 63.4659 16.6992 63.4659 16.9899C63.4659 17.1926 62.8028 17.8639 61.9923 18.482C61.1819 19.1001 60.1938 19.9307 59.7967 20.3278C58.8673 21.2571 55.0501 23.7001 53.7628 24.1895C52.9453 24.5003 52.6936 24.4263 52.3432 23.7715C52.1089 23.3338 52.0412 22.5809 52.1926 22.0982C52.4491 21.2806 49.7364 24.4314 49.0206 25.7823C48.8473 26.1096 47.4296 28.8718 45.8703 31.9205C43.2462 37.0509 42.0434 38.6837 42.0434 37.1152C42.0434 36.7668 42.2142 36.1718 42.4231 35.7929C43.5701 33.712 48.5704 23.1367 48.5845 22.762C48.5936 22.519 48.829 22.0453 49.1076 21.7097C49.5188 21.2143 49.5177 21.0599 49.1017 20.8893C48.7624 20.7503 48.8627 20.5948 49.3983 20.4297C49.8432 20.2925 50.3788 19.7906 50.5884 19.3144C51.0278 18.3162 52.358 17.8979 52.358 18.7581C52.358 19.0719 52.001 19.7825 51.5646 20.3372C51.1282 20.8919 50.772 21.4962 50.7731 21.6799C50.7762 22.1868 52.7241 19.7028 52.7405 19.1712C52.7483 18.9166 52.8886 18.6489 53.0523 18.5762C53.2159 18.5034 54.5077 17.016 55.923 15.2706C57.3382 13.5253 58.6325 12.0377 58.7992 11.965C58.9658 11.8922 59.1051 11.6246 59.1087 11.37C59.1171 10.7683 62.4646 7.53557 63.0792 7.53557C63.3386 7.53557 63.4481 7.80322 63.3225 8.13055C63.0159 8.92961 63.4291 8.87611 64.8545 7.93219C66.8505 6.61044 67.3443 7.06258 65.5487 8.56787C63.3411 10.4187 63.2964 11.4154 65.4236 11.3596C66.2821 11.3378 66.8169 11.2151 66.6119 11.0886C66.4069 10.9621 66.9946 10.4551 67.9178 9.96237C68.9342 9.41994 69.6518 9.2327 69.7369 9.48788C69.8336 9.77773 70.1121 9.7837 70.6299 9.50666C71.2166 9.19266 71.3359 9.22525 71.1711 9.6544C71.0549 9.95706 70.512 10.4089 69.9647 10.6583C69.2053 11.0043 69.0378 11.001 69.2581 10.6458C69.4558 10.326 69.3285 10.2625 68.8542 10.4443C68.4733 10.5905 68.0764 10.7101 67.9723 10.7101C67.8682 10.7101 67.9003 10.9 68.0436 11.1317C68.187 11.3635 67.9913 11.8992 67.6089 12.3218C66.7616 13.2579 65.9261 13.3565 66.6903 12.4302C67.1874 11.8277 67.1515 11.8145 66.2787 12.2796C65.4303 12.7317 65.3976 12.8311 65.9883 13.1616C66.3545 13.3665 66.9997 13.4788 67.4222 13.4112C67.8448 13.3437 68.1986 13.4237 68.2085 13.5858C68.2628 14.4813 68.1658 14.7374 67.5323 15.371C65.8027 17.1008 61.9082 22.6101 62.4149 22.6101C62.5067 22.6101 63.0804 22.3514 63.6897 22.0353C64.299 21.7192 64.9889 21.5693 65.2227 21.7022C65.4566 21.8353 65.5136 21.796 65.3495 21.6151C64.9533 21.1784 66.1959 19.8341 66.9987 19.8309C67.9843 19.8277 71.1692 16.8919 72.7152 14.5631C74.2704 12.2203 77.042 9.5086 78.8222 8.58817C79.463 8.25678 80.2194 7.70611 80.503 7.36448C81.0416 6.7155 82.2751 6.49177 82.0454 7.08462C81.8958 7.47092 78.4995 10.4451 77.4463 11.1121C76.9511 11.4258 76.8961 11.6082 77.2518 11.7577C78.1016 12.1148 77.8134 12.6925 75.7511 14.7655C74.653 15.8692 73.3708 17.3271 72.9017 18.0053C72.4325 18.6835 74.9638 16.3341 78.5266 12.7844C82.0894 9.23467 84.9139 6.23978 84.8032 6.12906C84.6924 6.01849 84.1017 6.11657 83.4904 6.3502C82.8121 6.60787 82.2365 6.63001 82.0132 6.40701C81.79 6.18368 82.3634 5.76788 83.4847 5.33973C86.7544 4.09115 86.8916 5.78756 83.7988 9.22185C81.2633 12.0373 78.4454 14.7734 75.9425 16.8502C74.6224 17.9455 73.0543 19.288 72.4578 19.8334C71.8614 20.3788 71.0224 21.1374 70.5934 21.5192C69.4812 22.509 69.5517 23.5756 70.706 23.2242C71.1969 23.0746 72.0747 22.8806 72.6566 22.7929C73.2385 22.7051 74.2018 22.1818 74.7973 21.63C75.3927 21.0782 76.1663 20.6261 76.5163 20.6252C77.7253 20.6224 79.5989 19.1284 80.3107 17.5994C81.5552 14.9262 84.439 10.8444 85.836 9.77898C86.5772 9.21374 87.8722 8.05678 88.7139 7.20806C91.1786 4.72253 93.2195 3.99016 93.2195 5.59118C93.2195 6.76535 89.0515 12.405 87.1244 13.8383C86.7178 14.1406 85.9203 14.9098 85.3523 15.5472C84.7844 16.1845 83.6572 17.0782 82.8476 17.5332C81.5263 18.2758 80.5269 19.9678 81.0819 20.5228C81.1915 20.6324 81.9128 20.6034 82.6848 20.4588C83.4569 20.3139 84.2239 20.1714 84.3893 20.142C84.5548 20.1139 84.926 19.8528 85.2144 19.5644C85.5027 19.2761 86.0383 19.0527 86.4045 19.068C86.9416 19.0899 86.9169 19.1617 86.277 19.4368C85.5199 19.7621 85.5245 19.779 86.3762 19.8056C86.9175 19.8212 87.2688 19.5995 87.2688 19.2386C87.2688 18.3582 87.9685 18.5167 88.2696 19.4653C88.4362 19.9902 88.2802 20.5634 87.8381 21.052C86.8625 22.1299 87.6563 22.0026 89.2524 20.8252C89.9917 20.2798 90.8179 19.8335 91.0883 19.8335C91.3587 19.8335 92.4677 19.2817 93.5527 18.6073C94.6378 17.9328 95.8419 17.442 96.2286 17.5164C97.0325 17.6714 96.8696 17.8761 94.2514 20.0017C92.8757 21.1185 92.4549 21.8169 93.1578 21.8169C93.342 21.8169 94.0004 21.3808 94.6207 20.8478C95.2411 20.3148 95.8939 19.9684 96.0714 20.0781C96.2489 20.1877 96.8849 19.4257 97.4847 18.3844C98.8322 16.0449 103.771 11.0229 105.459 10.2759C106.146 9.97197 106.708 9.58817 106.708 9.42325C106.708 9.25834 106.976 9.12338 107.303 9.12338C107.63 9.12338 107.898 8.93575 107.898 8.70656C107.898 8.09081 110.611 7.06647 111.497 7.3477C111.918 7.48107 112.262 7.73829 112.262 7.91932C112.262 8.43459 105.857 14.5746 103.778 16.0529L101.908 17.3819L103.121 17.6484C103.789 17.7948 104.233 18.0788 104.109 18.2792C103.985 18.4797 104.296 18.6295 104.8 18.6122C105.304 18.5935 105.493 18.491 105.22 18.3808C104.278 18.0007 104.729 17.5328 106.037 17.5328C106.796 17.5328 107.99 17.0981 108.869 16.5015C109.705 15.9343 110.502 15.4701 110.64 15.4701C110.778 15.4701 111.238 14.8254 111.663 14.0375C112.087 13.2496 113.319 11.777 114.4 10.765C115.481 9.75307 117.099 8.19117 117.994 7.29413C119.703 5.58164 121.226 4.83824 121.816 5.42837C122.019 5.63108 121.346 6.79293 120.219 8.18612C117.82 11.1504 112.382 16.6601 111.856 16.6601C111.643 16.6601 111.468 16.8901 111.468 17.1708C111.468 17.8826 113.585 17.9707 115.136 17.3235C117.405 16.3765 119.17 16.2027 120.017 16.8428C120.922 17.5268 127.337 17.7143 127.337 17.0567C127.337 16.8384 127.789 16.6601 128.341 16.6601C129.714 16.6601 130.112 17.8212 128.993 18.564C127.859 19.3169 127.885 19.9069 129.033 19.4705C129.937 19.1271 135.023 15.7562 135.898 14.9211C140.619 10.4149 146.553 5.11903 147.44 4.61969C147.789 4.42386 148.204 4.44328 148.427 4.66535C148.674 4.91303 148.253 5.49117 147.24 6.29329C142.229 10.262 135.271 18.0609 135.271 19.7097C135.271 20.3745 138.247 19.2752 139.506 18.145C139.981 17.719 140.541 17.4761 140.75 17.6054C140.959 17.7347 141.323 17.0749 141.558 16.1394C142.053 14.1755 143.485 12.0749 147.082 8.03895C150.129 4.61928 156.04 0 157.368 0C158.478 0 157.809 1.85887 155.996 3.80968C154.962 4.92323 153.133 6.95621 151.933 8.32738C149.849 10.7087 145.661 14.9053 143.648 16.6306C142.874 17.2936 142.79 17.5485 143.19 18.0296C143.552 18.4664 144.154 18.5569 145.524 18.381C146.54 18.2507 147.54 17.9886 147.748 17.7988C147.955 17.6089 148.428 17.4535 148.799 17.4535C149.17 17.4535 150.39 16.8367 151.51 16.0829C152.773 15.2334 153.797 14.8079 154.204 14.964C154.8 15.193 154.795 15.2545 154.143 15.6406C153.749 15.8742 153.045 16.3876 152.58 16.7817L151.735 17.4983L152.601 17.0792C153.715 16.5404 154.768 16.5104 153.928 17.0415C152.544 17.9165 154.067 17.8208 156.859 16.8572C158.523 16.2832 160.984 15.7263 162.33 15.6197C165.016 15.407 165.558 15.2181 165.19 14.6232C165.039 14.379 165.53 14.2757 166.473 14.3531C167.313 14.4221 168 14.6569 168 14.8752C168 15.3057 164.485 16.5392 162.248 16.8934C160.019 17.2463 159.728 17.3172 158.552 17.7941C157.938 18.043 157.09 18.2469 156.668 18.2469C156.246 18.2469 155.9 18.4018 155.9 18.5913C155.9 18.9394 156.357 19.0399 162.009 19.9332C165.562 20.4949 166.478 21.2237 165.286 22.5411C163.048 25.0137 150.545 27.2602 131.779 28.5614C128.221 28.8082 124.026 29.1759 122.456 29.3787C120.886 29.5814 118.173 29.8478 116.427 29.9704C114.682 30.0932 112.986 30.2958 112.658 30.4209C112.331 30.5458 111.171 30.6854 110.08 30.7307C108.037 30.8156 105.527 31.0784 100.36 31.7479C98.7239 31.96 96.6667 32.1865 95.7889 32.2512C94.911 32.3159 94.0184 32.4705 93.8053 32.5943C93.5922 32.7183 92.2575 32.9418 90.8392 33.0913C87.755 33.4165 81.402 34.8469 81.1368 35.276C81.0332 35.4438 81.4333 35.8308 82.0259 36.1364C82.6185 36.4418 83.359 36.9349 83.6715 37.2318C84.085 37.6246 84.7332 37.6912 86.0518 37.4764C87.0484 37.3139 88.3102 37.2043 88.8556 37.2327C89.4011 37.2608 91.6326 37.2421 93.8146 37.1918C103.029 36.9766 118.926 37.2168 120.394 37.5937C121.888 37.9771 121.795 38.0043 118.808 38.0589C109.661 38.2256 99.5464 38.453 94.608 38.6025C91.5533 38.695 87.5977 38.6275 85.8177 38.4548L85.8176 38.4516ZM88.1613 37.8147C87.8886 37.7048 87.4423 37.7048 87.1695 37.8147C86.8968 37.9247 87.1199 38.0149 87.6654 38.0149C88.2109 38.0149 88.434 37.925 88.1613 37.8147ZM54.5051 22.3674C54.849 22.2356 55.0391 21.98 54.9277 21.7997C54.7233 21.4691 56.1451 19.0329 57.2921 17.7481C57.633 17.3663 57.8125 17.0539 57.691 17.0539C57.5696 17.0539 57.7481 16.6571 58.0877 16.1723C59.1117 14.7105 58.7842 14.4504 57.4812 15.6905C56.8079 16.3313 55.6817 17.8373 54.9785 19.0372C52.948 22.5019 52.8784 22.9915 54.5051 22.3674ZM99.6717 21.3401C100.057 21.3557 100.828 20.9463 101.385 20.4298C102.385 19.5028 102.388 19.4854 101.586 19.0561C100.521 18.4861 98.9034 18.9159 98.1691 19.9642C97.3491 21.1348 97.4046 21.9745 98.2775 21.6051C98.6593 21.4436 99.2867 21.3243 99.6717 21.3402L99.6717 21.3401ZM103.931 20.2273C104.258 20.0158 104.347 19.8428 104.129 19.8428C103.911 19.8428 103.465 20.0158 103.137 20.2273C102.81 20.4387 102.721 20.6118 102.939 20.6118C103.157 20.6118 103.603 20.4388 103.931 20.2273ZM117.121 20.128C117.503 20.0892 117.816 19.8277 117.816 19.5474C117.816 19.2669 118.005 19.0374 118.236 19.0374C118.467 19.0374 118.56 18.8825 118.443 18.6932C118.063 18.0777 111.468 19.7029 111.468 20.4121C111.468 20.557 114.295 20.4151 117.121 20.1279V20.128ZM110.019 19.6161C109.809 19.071 107.501 18.9292 107.501 19.4615C107.501 19.8339 108.004 20.0121 109.26 20.0845C109.906 20.1217 110.154 19.9687 110.019 19.6162V19.6161ZM102.283 15.8622C104.308 14.3956 105.136 13.6785 108.786 10.2308C111.475 7.6917 111.563 7.55743 110.108 8.21634C108.162 9.09807 107.394 9.71318 103.165 13.7759C99.7018 17.1036 99.3188 18.0095 102.283 15.8622ZM147.57 11.6717C149.166 10.2286 151.16 8.05639 155.493 3.04351L156.871 1.44931L155.645 1.69457C154.841 1.85511 153.595 2.80188 152.031 4.43935C147.348 9.34207 143.776 13.7543 143.174 15.3803C142.813 16.3537 142.921 16.3041 144.28 14.8724C145.108 13.9997 146.589 12.5594 147.57 11.6717ZM84.5116 14.9164C85.131 14.3953 85.5287 13.8599 85.3954 13.7265C85.262 13.5931 85.4504 13.4841 85.8141 13.4841C86.1777 13.4841 86.4753 13.3045 86.4753 13.0848C86.4753 12.8652 86.9416 12.2851 87.5115 11.7956C88.5319 10.9193 92.0293 6.59235 92.0293 6.20617C92.0293 6.09716 91.4937 6.27525 90.8391 6.60184C90.1845 6.92832 89.649 7.4501 89.649 7.76138C89.649 8.07278 89.4162 8.32738 89.1317 8.32738C88.5166 8.32738 86.94 9.99471 84.3497 13.3849C82.4161 15.9156 82.4902 16.6173 84.5116 14.9165V14.9164ZM118.221 8.3963C117.938 8.30197 117.567 8.47097 117.397 8.77185C117.227 9.07263 116.361 10.1222 115.474 11.104C112.913 13.9363 113.618 13.9542 116.306 11.1258C117.824 9.5279 118.543 8.50428 118.221 8.39706V8.3963ZM61.1782 10.7471L62.0236 9.41201L61.1468 9.88126C60.6645 10.1393 60.3747 10.52 60.5028 10.7272C60.6309 10.9343 60.5657 11.104 60.358 11.104C60.1503 11.104 59.8719 11.3867 59.7393 11.7321C59.3251 12.8113 60.2889 12.1515 61.1782 10.7471H61.1782ZM119.708 7.2114C119.805 6.92155 119.624 6.83287 119.237 6.9812C118.892 7.11395 118.609 7.39652 118.609 7.60954C118.609 8.13093 119.511 7.80443 119.708 7.21149V7.2114ZM84.814 37.0132C85.1004 36.8986 85.4426 36.9127 85.5744 37.0445C85.7062 37.1763 85.4719 37.27 85.0537 37.2528C84.5916 37.2341 84.4976 37.1397 84.814 37.0132ZM0.592564 32.5304C-0.491423 31.3327 -0.04366 27.7916 1.57204 24.7841C2.27383 23.4777 3.22976 21.6949 3.69633 20.8223C6.16228 16.21 12.6679 9.23447 15.3071 8.37294C17.6733 7.60053 18.7877 8.25088 18.5164 10.2459C18.2339 12.3239 18.062 12.9368 17.5917 13.543C16.9672 14.348 15.8602 17.3584 15.8602 18.2519C15.8602 18.6838 15.6817 19.0372 15.4635 19.0372C15.2453 19.0372 15.0668 19.2903 15.0668 19.5992C15.0668 19.9085 14.9329 20.2206 14.7693 20.2933C14.2705 20.5151 11.8931 25.4441 11.8931 26.2565C11.8931 26.675 11.7314 26.9175 11.5338 26.7954C11.1662 26.5683 8.131 30.4813 8.43724 30.7875C8.53024 30.8806 8.83214 30.6843 9.10814 30.3519C9.38416 30.0194 9.86149 29.7474 10.1689 29.7474C10.4763 29.7474 10.8462 29.435 10.9908 29.0532C11.3245 28.1718 11.9043 27.5922 12.7857 27.2584C13.1675 27.1138 13.48 26.7428 13.48 26.4337C13.48 25.9416 15.0691 24.5907 15.6479 24.5907C16.259 24.5907 15.7262 26.1644 14.832 27.0007C14.2665 27.5296 13.6495 28.2485 13.4608 28.5982C13.1811 29.1167 13.2932 29.2005 14.068 29.0524C14.6768 28.9359 15.1637 28.4534 15.4233 27.7088C15.6817 26.9677 16.3042 26.3481 17.1417 25.9981C17.864 25.6964 18.7914 25.0777 19.2027 24.6234C19.6139 24.169 20.1012 23.7972 20.2856 23.7972C20.9441 23.7972 20.6009 24.6999 19.3345 26.2988C18.3272 27.5704 18.2196 27.8513 18.8386 27.594C19.2733 27.4131 20.0307 27.1782 20.5216 27.0717C21.0125 26.9652 21.4142 26.7395 21.4142 26.5701C21.4142 26.2375 27.64 22.6073 28.2103 22.6073C28.3999 22.6073 28.5551 22.4127 28.5551 22.1752C28.5551 21.3943 32.5897 13.3189 33.5894 12.0988C34.1272 11.4425 35.2773 9.87916 36.1452 8.62468C38.7567 4.84994 40.1753 5.87137 38.0468 9.99393C37.3374 11.368 36.5629 12.8924 36.3256 13.3816C36.0884 13.8708 35.7604 14.2724 35.5967 14.2741C35.4331 14.2758 35.2992 14.498 35.2992 14.7677C35.2992 15.3104 32.0268 20.2586 30.6651 21.775C30.1892 22.3049 29.3207 23.6188 28.7351 24.6947C27.8347 26.3488 27.7845 26.5886 28.4102 26.2482C28.8172 26.0267 29.5443 25.4739 30.0262 25.0197C30.508 24.5655 31.0637 24.194 31.2612 24.194C31.4586 24.194 32.4551 23.3014 33.4756 22.2106C34.4961 21.1197 35.5024 20.2273 35.7118 20.2273C36.3681 20.2273 36.1276 21.2626 35.2968 22.0144C34.0479 23.1445 34.6676 23.1621 36.4347 22.0466C37.3186 21.4887 38.3174 21.1379 38.6541 21.2671C39.4735 21.5815 39.4509 21.6651 38.0762 23.4005C37.4216 24.2269 36.8861 25.0212 36.8861 25.1658C36.8861 25.6968 39.506 23.952 40.877 22.508C41.6538 21.6898 42.4125 21.0204 42.563 21.0204C43.2737 21.0204 42.6672 22.1868 41.0381 23.9532C40.0535 25.0208 39.3182 25.9646 39.4042 26.0506C39.6152 26.2617 41.6881 25.3124 42.4346 24.663C42.7649 24.3757 43.7935 23.6162 44.7205 22.9752C45.6474 22.3342 46.3615 21.6156 46.3073 21.3783C46.1561 20.7156 47.4957 19.9668 47.975 20.446C48.2432 20.7143 47.6274 21.6084 46.1015 23.1662L43.8285 25.4869L45.553 24.6144C47.8447 23.4548 48.0363 23.8024 45.9506 25.3361C44.3136 26.5398 42.8368 26.9519 42.8368 26.2051C42.8368 26.0024 42.0363 26.2838 41.058 26.8305C39.1403 27.9021 37.8478 27.9256 37.9277 26.8876C37.9815 26.1888 37.336 26.299 35.8626 27.2399C34.4999 28.1101 34.4362 27.3563 35.6855 25.143L36.8658 23.0518L35.1899 23.8124C34.2682 24.2308 33.2047 24.577 32.8266 24.5818C32.2113 24.5881 31.3256 25.2423 28.9117 27.4664C28.084 28.2291 26.7572 28.3853 26.3738 27.7651C26.236 27.542 25.5768 27.8874 24.8628 28.5565C23.6549 29.6885 21.8109 30.1767 21.8109 29.3644C21.8109 29.1539 22.3911 28.3205 23.1003 27.5127C24.2589 26.1927 24.2903 26.0969 23.4101 26.5677C22.8713 26.856 21.7288 27.5998 20.8711 28.2211C19.1718 29.4519 17.0504 29.7487 17.0504 28.7556C17.0504 27.9262 16.8956 27.9812 14.8602 29.5346C13.3459 30.6904 12.9028 30.849 12.0714 30.5329C11.2486 30.2201 10.9393 30.3224 10.2263 31.1422C9.21227 32.3083 7.3678 32.4635 6.7676 31.433C6.54519 31.0512 6.3578 30.9303 6.35117 31.1644C6.33586 31.7025 3.1417 33.3172 2.09247 33.3172C1.65925 33.3172 0.984295 32.9631 0.592564 32.5303V32.5304ZM4.56926 31.1456C6.09916 30.4459 6.78601 29.8838 6.9605 29.1887C7.09513 28.6523 7.41454 28.2937 7.67028 28.3919C7.92602 28.4899 8.45166 27.9829 8.83835 27.2649C9.22505 26.5469 10.1462 25.2994 10.8854 24.4926C11.6246 23.6858 12.3534 22.6192 12.5049 22.1223C12.6564 21.6254 13.0062 20.9511 13.2821 20.6239C13.9319 19.8534 16.8072 13.7279 17.4328 11.7816C17.6986 10.9545 17.8162 10.0174 17.694 9.69911C17.3728 8.86213 15.7057 8.98877 14.8684 9.91367C14.4735 10.35 13.9209 10.707 13.6404 10.707C13.3599 10.707 12.3778 11.5995 11.4579 12.6904C10.538 13.7812 9.58763 14.6738 9.346 14.6738C9.10438 14.6738 8.46535 15.3878 7.92595 16.2604C7.38655 17.1331 6.8347 17.8471 6.69962 17.8471C6.13684 17.8471 1.18181 28.5674 1.18181 29.785C1.18181 30.6215 1.84474 32.1272 2.21298 32.1272C2.32838 32.1272 3.38871 31.6855 4.56925 31.1455L4.56926 31.1456ZM26.1748 26.0679C26.1748 25.8946 25.8177 25.9439 25.3814 26.1772C24.945 26.4109 24.5879 26.7756 24.5879 26.9879C24.5879 27.2019 24.9419 27.1528 25.3814 26.8786C25.8177 26.6059 26.1748 26.2413 26.1748 26.0679ZM33.514 16.0137C34.3868 14.5784 35.2794 13.1946 35.4976 12.9387C35.7158 12.6829 35.9496 12.2223 36.0172 11.9155C36.0849 11.6088 36.4865 10.8715 36.9098 10.2771C37.9563 8.80769 37.9321 8.16409 36.8521 8.74202C36.397 8.98564 36.1215 9.28159 36.2399 9.3999C36.3582 9.51828 36.0358 10.1732 35.5233 10.8553C34.3366 12.435 31.2246 18.6434 31.6252 18.6319C31.7913 18.6257 32.6412 17.449 33.514 16.0137ZM47.2006 23.0149C47.2006 22.4771 47.9056 22.1433 48.1627 22.5592C48.2856 22.7582 48.1194 23.0232 47.7934 23.1483C47.4674 23.2736 47.2006 23.2132 47.2006 23.0149ZM154.71 16.4921C154.71 16.1078 155.518 15.3236 156.495 14.7595C157.21 14.3467 157.151 14.2969 155.9 14.2569L154.512 14.2125L155.857 13.6261C156.747 13.238 157.335 13.1728 157.595 13.4334C158.121 13.9592 157.676 15.0279 156.802 15.3381C156.415 15.4756 155.786 15.8561 155.404 16.184C155.022 16.5119 154.71 16.6505 154.71 16.492V16.4921ZM67.0363 6.40729C67.0363 5.78655 70.0556 5.02799 70.8211 5.4564C71.4039 5.78248 71.1611 5.93263 69.4623 6.29691C66.9863 6.82789 67.0363 6.82564 67.0363 6.4072V6.40729Z" fill="white"/>
</svg>
