<svg width="154" height="50" viewBox="0 0 154 50" fill="none" xmlns="http://www.w3.org/2000/svg">
<path d="M50.2201 12.3976H51.2822V24.7889H50.2201V12.3976ZM63.6896 12.3976V24.7889H62.6275L55.5998 14.1147V24.7889H54.5377V12.3976H55.5998L62.6275 23.0541V12.3976H63.6896ZM70.8754 12.3976C72.268 12.3976 73.454 12.6454 74.4335 13.1411C75.413 13.6367 76.1565 14.3507 76.6639 15.283C77.1832 16.2153 77.4428 17.3246 77.4428 18.611C77.4428 19.8973 77.1832 21.0066 76.6639 21.9389C76.1565 22.8594 75.413 23.5675 74.4335 24.0631C73.454 24.547 72.268 24.7889 70.8754 24.7889H66.9456V12.3976H70.8754ZM70.8754 23.9038C72.6928 23.9038 74.0559 23.4318 74.9646 22.4877C75.8851 21.5436 76.3453 20.2513 76.3453 18.611C76.3453 16.9706 75.8851 15.6725 74.9646 14.7166C74.0559 13.7607 72.6928 13.2827 70.8754 13.2827H68.0077V23.9038H70.8754ZM87.8034 13.2827H80.8997V18.0091H86.2102V18.8942H80.8997V23.9038H87.8034V24.7889H79.8376V12.3976H87.8034V13.2827ZM94.8314 12.3976C95.7873 12.3976 96.5721 12.5569 97.1858 12.8756C97.7995 13.1824 98.2538 13.6072 98.5488 14.1501C98.8557 14.6929 99.0091 15.3007 99.0091 15.9734C99.0091 16.8585 98.7554 17.6256 98.2479 18.2746C97.7523 18.9119 96.9793 19.319 95.929 19.4961L99.1507 24.7889H97.8585L94.7429 19.5669H91.769V24.7889H90.7069V12.3976H94.8314ZM97.9116 15.9734C97.9116 15.1591 97.6696 14.51 97.1858 14.0262C96.7137 13.5423 95.929 13.3004 94.8314 13.3004H91.769V18.6995H94.8491C95.9113 18.6995 96.6842 18.4457 97.1681 17.9383C97.6637 17.419 97.9116 16.7641 97.9116 15.9734ZM101.86 21.8681C101.955 22.2103 102.12 22.5467 102.356 22.8771C102.604 23.1957 102.946 23.4613 103.383 23.6737C103.819 23.8861 104.368 23.9923 105.029 23.9923C105.914 23.9923 106.61 23.7622 107.118 23.302C107.625 22.8417 107.879 22.2811 107.879 21.6203C107.879 21.0774 107.755 20.6467 107.507 20.328C107.259 20.0094 106.929 19.7616 106.516 19.5846C106.115 19.3957 105.666 19.2423 105.171 19.1243C104.687 18.9945 104.203 18.8588 103.719 18.7172C103.235 18.5638 102.787 18.369 102.374 18.133C101.972 17.897 101.648 17.5725 101.4 17.1594C101.152 16.7464 101.028 16.2094 101.028 15.5485C101.028 14.9231 101.188 14.3625 101.506 13.8669C101.825 13.3712 102.273 12.9818 102.852 12.6985C103.442 12.4035 104.132 12.256 104.923 12.256C105.961 12.256 106.799 12.4861 107.436 12.9464C108.074 13.4066 108.504 13.9613 108.729 14.6103L107.755 14.9821C107.672 14.6989 107.507 14.4215 107.259 14.1501C107.023 13.8787 106.705 13.6544 106.303 13.4774C105.914 13.2886 105.442 13.1942 104.887 13.1942C104.38 13.1824 103.914 13.2709 103.489 13.4597C103.064 13.6367 102.728 13.8964 102.48 14.2386C102.232 14.5808 102.108 14.9998 102.108 15.4954C102.108 16.0383 102.232 16.469 102.48 16.7877C102.728 17.1063 103.052 17.36 103.453 17.5488C103.867 17.7259 104.315 17.8793 104.799 18.0091C105.283 18.1389 105.767 18.2805 106.25 18.4339C106.746 18.5756 107.194 18.7644 107.596 19.0004C108.009 19.2364 108.339 19.561 108.587 19.974C108.835 20.3752 108.959 20.9063 108.959 21.5672C108.959 22.1218 108.811 22.6588 108.516 23.178C108.221 23.6855 107.779 24.1044 107.189 24.4349C106.61 24.7535 105.89 24.9128 105.029 24.9128C103.92 24.9128 102.999 24.6591 102.267 24.1516C101.548 23.6442 101.076 23.0069 100.851 22.2398L101.86 21.8681Z" fill="white"/>
<path d="M45.1913 44.1448C44.1846 44.1448 43.2331 43.9655 42.3367 43.607C41.4542 43.2484 40.675 42.7382 39.9993 42.0763C39.3236 41.4144 38.7927 40.6352 38.4066 39.7389C38.0343 38.8287 37.8481 37.829 37.8481 36.7396C37.8481 35.6502 38.0343 34.6573 38.4066 33.7609C38.7927 32.8646 39.3236 32.0854 39.9993 31.4235C40.675 30.7616 41.4542 30.2514 42.3367 29.8928C43.2331 29.5343 44.1846 29.355 45.1913 29.355C46.2255 29.355 47.1839 29.5343 48.0665 29.8928C48.9628 30.2514 49.742 30.7616 50.4039 31.4235C51.0796 32.0854 51.6036 32.8646 51.9759 33.7609C52.3621 34.6573 52.5551 35.6502 52.5551 36.7396C52.5551 37.829 52.3621 38.8287 51.9759 39.7389C51.6036 40.6352 51.0796 41.4144 50.4039 42.0763C49.742 42.7382 48.9628 43.2484 48.0665 43.607C47.1701 43.9655 46.2117 44.1448 45.1913 44.1448ZM45.1913 41.9315C46.1152 41.9315 46.9357 41.7178 47.6528 41.2903C48.3836 40.8628 48.949 40.2629 49.3489 39.4907C49.7626 38.7046 49.9695 37.7876 49.9695 36.7396C49.9695 35.6777 49.7626 34.7607 49.3489 33.9885C48.949 33.2162 48.3836 32.6232 47.6528 32.2095C46.9357 31.7821 46.1152 31.5683 45.1913 31.5683C44.2673 31.5683 43.4468 31.7821 42.7297 32.2095C42.0127 32.6232 41.4473 33.2162 41.0336 33.9885C40.6199 34.7607 40.413 35.6777 40.413 36.7396C40.413 37.7876 40.6199 38.7046 41.0336 39.4907C41.4473 40.2629 42.0127 40.8628 42.7297 41.2903C43.4468 41.7178 44.2673 41.9315 45.1913 41.9315ZM64.9246 29.5205C66.0692 29.5205 67.0138 29.7205 67.7584 30.1204C68.5169 30.5203 69.0823 31.0512 69.4546 31.7131C69.8407 32.375 70.0338 33.099 70.0338 33.885C70.0338 34.4642 69.9235 35.0365 69.7028 35.6019C69.4822 36.1535 69.1305 36.6499 68.6479 37.0912C68.1652 37.5187 67.524 37.8359 66.7242 38.0427L70.2613 44H67.2827L64.0145 38.2496H61.7184V44H59.1948V29.5205H64.9246ZM67.4482 33.9057C67.4482 33.2024 67.2413 32.6439 66.8276 32.2302C66.4139 31.8027 65.7658 31.589 64.8832 31.589H61.7184V36.2845H64.8832C65.7658 36.2845 66.4139 36.0639 66.8276 35.6226C67.2413 35.1813 67.4482 34.609 67.4482 33.9057ZM76.079 36.7396C76.079 35.6502 76.2651 34.6573 76.6375 33.7609C77.0098 32.8508 77.5269 32.0716 78.1889 31.4235C78.8646 30.7616 79.6437 30.2514 80.5263 29.8928C81.4226 29.5205 82.381 29.3343 83.4015 29.3343C84.8356 29.3343 86.1319 29.6791 87.2903 30.3686C88.4486 31.0443 89.3243 32.0234 89.9172 33.3059L87.766 34.0298C87.4626 33.4231 87.0696 32.9404 86.587 32.5819C86.1181 32.2233 85.6079 31.9682 85.0563 31.8165C84.5185 31.6511 83.9875 31.5683 83.4635 31.5683C82.5396 31.5683 81.7122 31.7821 80.9813 32.2095C80.2642 32.6232 79.692 33.2162 79.2645 33.9885C78.8508 34.7607 78.6439 35.6777 78.6439 36.7396C78.6439 37.8014 78.8508 38.7184 79.2645 39.4907C79.692 40.2629 80.2642 40.8628 80.9813 41.2903C81.7122 41.704 82.5396 41.9108 83.4635 41.9108C84.0013 41.9108 84.5529 41.8281 85.1183 41.6626C85.6837 41.4833 86.2146 41.1868 86.7111 40.7731C87.2075 40.3456 87.6281 39.7665 87.9729 39.0356L90.0827 39.7389C89.4622 41.2282 88.5589 42.3314 87.373 43.0485C86.2008 43.7656 84.877 44.1241 83.4015 44.1241C82.381 44.1241 81.4226 43.9448 80.5263 43.5863C79.6437 43.2278 78.8646 42.7175 78.1889 42.0556C77.5269 41.3937 77.0098 40.6146 76.6375 39.7182C76.2651 38.8219 76.079 37.829 76.079 36.7396ZM106.951 31.5683H99.5453V35.6433H105.068V37.6911H99.5453V41.9522H106.951V44H97.0217V29.5205H106.951V31.5683Z" fill="white"/>
<path d="M9.60371 8.67671C8.41965 8.86946 7.34347 9.67489 6.95335 10.0535C6.23052 8.3325 9.15631 6.71476 11.187 6.12963C12.283 5.81383 17.6237 4.54629 17.6237 4.61513C17.6237 5.02817 17.1073 5.9231 16.7631 6.30173C16.4189 6.68035 15.4208 7.29989 15.5241 7.29989C15.6273 7.29989 16.0059 7.26547 16.0059 7.29989C16.0059 7.32743 15.937 7.42615 15.9026 7.472C15.111 8.26366 14.4225 8.57345 13.6309 8.67671C12.8392 8.77997 11.0838 8.43576 9.60371 8.67671Z" fill="#FED70A"/>
<path d="M7.19437 11.8088C6.86392 10.8726 6.47153 10.673 6.02407 10.8795C5.30124 11.4302 3.75233 12.7726 3.2016 13.461C2.91531 13.8189 2.74267 14.0461 2.75414 14.1838C4.40632 13.5643 6.02407 13.3233 7.64183 13.3233C8.43494 13.3233 9.81031 13.874 10.1545 14.7001C10.5313 15.6044 10.7052 15.4918 10.7052 15.3885C11.0494 13.7019 10.1889 13.0135 8.84654 12.4628C7.77263 12.0222 7.32055 11.8892 7.19437 11.8088Z" fill="#FED70A"/>
<path d="M10.9462 25.1983C10.6478 25.0951 10.3253 24.2176 10.1889 22.3759C10.0513 20.5172 10.0856 17.7291 13.803 15.1132C17.5204 12.4972 22.5802 11.4646 25.2994 11.1204C27.3279 10.8636 36.6352 10.3387 41.89 9.5313C43.6792 9.25642 44.1962 9.02292 44.9878 8.711C46.0071 8.30952 46.6198 7.29825 46.652 7.02021C46.648 6.99818 46.644 6.97663 46.6399 6.95557C46.6517 6.96617 46.6556 6.9884 46.652 7.02021C46.8874 8.31999 47.071 11.3316 46.5023 13.6331C46.0496 15.4657 45.8139 17.1095 43.5422 19.0371C42.8676 19.6094 41.1672 20.7051 39.6527 20.8614C38.1382 21.0176 33.0784 21.1711 24.8175 21.7563C16.5566 22.3414 12.0476 22.9954 10.9462 25.1983Z" fill="#FED70A"/>
<path d="M11.1527 33.287C10.3611 34.2164 9.72029 36.7734 9.91359 37.7961C7.8828 35.3867 7.50011 31.3742 8.64004 28.6059C9.84475 25.6801 12.7705 24.7852 14.6636 24.5443C16.5567 24.3033 23.544 24.5787 26.6074 24.0624C29.0582 23.6494 30.9559 23.0184 31.5984 22.7544C31.7475 23.4084 32.0533 24.9729 31.5984 26.7128C30.9122 29.3366 29.261 30.6296 27.1926 31.1874C24.1292 32.0135 20.9081 31.0814 16.6255 31.3595C13.9752 31.5316 11.9444 32.3577 11.1527 33.287Z" fill="#FED70A"/>
<path d="M12.4263 40.5154C11.3249 42.856 11.8985 44.4968 12.4263 44.9212C11.0495 44.9212 10.4299 44.6459 9.7071 43.9231C8.98427 43.2002 8.88101 42.1676 9.01869 41.1006C9.15637 40.0336 10.189 38.1404 10.5676 37.3832C10.8705 36.7774 11.1527 35.5589 11.1527 34.6296C11.6805 34.6755 12.86 35.0082 13.3556 35.972C13.9752 37.1767 13.8031 37.5897 12.4263 40.5154Z" fill="#FED70A"/>
<path d="M14.619 14.5764C18.6264 14.6675 26.3017 14.9799 29.7053 15.6294C29.8343 15.6541 29.9634 15.6788 30.0928 15.7035C34.4841 16.5432 39.0303 17.4123 41.2705 16.0081C43.5494 14.5796 46.4669 11.2015 46.4691 7.43521C46.2131 7.85294 45.6996 8.43058 44.9879 8.71096C44.9389 8.73031 44.8909 8.74931 44.8437 8.76803C44.1273 9.05193 43.5685 9.27339 41.8901 9.53127C38.3831 10.0702 33.0709 10.4832 29.3222 10.7747C27.454 10.9199 25.9741 11.035 25.2994 11.1204C22.7745 11.44 18.2315 12.3532 14.619 14.5764Z" fill="url(#paint0_radial_3906_5013)"/>
<path d="M30.7107 28.7475C28.6215 29.0491 26.6808 28.5624 19.7922 26.4718C15.5035 25.1703 13.2112 25.0246 12.2042 25.1799C13.0724 24.8225 13.9429 24.636 14.6636 24.5443C15.4282 24.447 17.0235 24.4339 18.8558 24.4189C21.5604 24.3966 24.7812 24.3702 26.6075 24.0624C29.0582 23.6494 30.9559 23.0184 31.5984 22.7544C31.7476 23.4084 32.0534 24.9729 31.5984 26.7128C31.3888 27.5144 31.087 28.1848 30.7107 28.7475Z" fill="url(#paint1_radial_3906_5013)"/>
<path d="M9.91363 37.7963C9.72033 36.7736 10.3612 34.1133 11.1528 33.2872C11.9445 32.4611 14.4715 31.4912 16.6257 31.3597C18.4293 31.2496 19.9688 31.3732 21.3868 31.487C23.4327 31.6511 25.2254 31.795 27.1927 31.1876C28.6304 30.7436 29.8835 30.0103 30.7398 28.7038C30.1599 28.8311 29.5127 28.9646 28.8448 29.0879C26.6075 29.501 23.2343 29.0879 20.0676 28.6749C16.9009 28.2618 13.2868 28.7038 11.5314 30.6368C10.2578 32.0393 9.85271 32.967 9.67579 33.9965C9.60674 34.3985 9.54774 34.7418 9.43175 34.9738C9.13752 35.5623 8.58487 34.8844 8.26483 34.3399C8.55899 35.6262 9.10599 36.838 9.91363 37.7963Z" fill="url(#paint2_radial_3906_5013)"/>
<path d="M11.0918 35.4602C11.4772 35.8303 12.1143 36.853 11.8755 38.3125C11.7181 39.2747 11.3917 39.9523 11.1088 40.5397C10.8351 41.1082 10.602 41.5921 10.602 42.1676C10.602 43.1039 11.451 43.7739 11.8755 43.9919L11.924 44.0332C11.7023 43.2444 11.7156 42.0256 12.4263 40.5154C13.8031 37.5897 13.9752 37.1767 13.3556 35.972C12.86 35.0082 11.6804 34.6755 11.1527 34.6296C11.1527 34.8903 11.1305 35.1739 11.0918 35.4602Z" fill="url(#paint3_radial_3906_5013)"/>
<path d="M8.20953 9.16795C8.62643 8.94732 9.10556 8.75773 9.60376 8.67664C10.486 8.53304 11.4661 8.59733 12.2817 8.65082C12.8342 8.6871 13.3112 8.71835 13.6309 8.67664C14.4226 8.57338 15.111 8.26359 15.9027 7.47193C15.9371 7.42608 16.0059 7.32736 16.0059 7.29983C16.0059 7.27532 15.8137 7.28571 15.6659 7.29377C15.6062 7.297 15.5538 7.29983 15.5241 7.29983C15.4797 7.29983 15.6387 7.18548 15.8617 7.02501C16.1578 6.81195 16.5668 6.51761 16.7632 6.30166C16.9688 6.07543 17.236 5.66488 17.4176 5.28292C17.3526 5.27391 17.2837 5.26904 17.2107 5.26904C16.3888 5.26904 14.9476 6.29208 14.0778 6.90957C13.9641 6.99032 13.8602 7.06405 13.7687 7.12772C13.1258 7.57498 12.1878 7.63632 11.2312 7.69889C11.0098 7.71335 10.7875 7.72788 10.5676 7.74729C9.75617 7.81888 8.76549 8.61957 8.20953 9.16795Z" fill="url(#paint4_radial_3906_5013)"/>
<path d="M2.75977 14.1217C4.03601 13.2607 6.53986 12.6448 7.74514 12.4285H6.09295C5.2207 12.4285 5.9585 11.8535 5.9561 11.8504C5.95556 11.8497 5.91811 11.8775 5.81759 11.9466C5.29336 12.307 4.51962 12.6986 3.7042 12.9136C3.5 13.1182 3.32556 13.3062 3.20165 13.4611C2.95485 13.7696 2.79251 13.981 2.75977 14.1217Z" fill="url(#paint5_radial_3906_5013)"/>
<path d="M2.75977 14.1217C4.03601 13.2607 6.53986 12.6448 7.74514 12.4285H6.09295C5.2207 12.4285 5.9585 11.8535 5.9561 11.8504C5.95556 11.8497 5.91811 11.8775 5.81759 11.9466C5.29336 12.307 4.51962 12.6986 3.7042 12.9136C3.5 13.1182 3.32556 13.3062 3.20165 13.4611C2.95485 13.7696 2.79251 13.981 2.75977 14.1217Z" fill="url(#paint6_radial_3906_5013)"/>
<defs>
<radialGradient id="paint0_radial_3906_5013" cx="0" cy="0" r="1" gradientUnits="userSpaceOnUse" gradientTransform="translate(45.2633 9.26169) rotate(170.145) scale(23.1275 35.707)">
<stop stop-color="#7B5D02"/>
<stop offset="1" stop-color="#7B5D02" stop-opacity="0"/>
</radialGradient>
<radialGradient id="paint1_radial_3906_5013" cx="0" cy="0" r="1" gradientUnits="userSpaceOnUse" gradientTransform="translate(30.91 25.7834) rotate(170.679) scale(13.8129 44.6442)">
<stop stop-color="#986E01"/>
<stop offset="1" stop-color="#986E01" stop-opacity="0"/>
</radialGradient>
<radialGradient id="paint2_radial_3906_5013" cx="0" cy="0" r="1" gradientUnits="userSpaceOnUse" gradientTransform="translate(14.9734 32.5644) rotate(-108.435) scale(4.78924 11.6876)">
<stop stop-color="#B58E01"/>
<stop offset="1" stop-color="#B58E01" stop-opacity="0"/>
</radialGradient>
<radialGradient id="paint3_radial_3906_5013" cx="0" cy="0" r="1" gradientUnits="userSpaceOnUse" gradientTransform="translate(13.6998 36.626) rotate(101.819) scale(7.56764 2.49128)">
<stop stop-color="#A28900"/>
<stop offset="1" stop-color="#A28900" stop-opacity="0"/>
</radialGradient>
<radialGradient id="paint4_radial_3906_5013" cx="0" cy="0" r="1" gradientUnits="userSpaceOnUse" gradientTransform="translate(16.8321 9.91577) rotate(-140.88) scale(7.3647 17.3936)">
<stop stop-color="#584800"/>
<stop offset="1" stop-color="#584800" stop-opacity="0"/>
</radialGradient>
<radialGradient id="paint5_radial_3906_5013" cx="0" cy="0" r="1" gradientUnits="userSpaceOnUse" gradientTransform="translate(2.58208 14.2872) rotate(-26.8058) scale(3.66362 0.842044)">
<stop stop-color="#6B5C04"/>
<stop offset="1" stop-color="#6B5C04" stop-opacity="0"/>
</radialGradient>
<radialGradient id="paint6_radial_3906_5013" cx="0" cy="0" r="1" gradientUnits="userSpaceOnUse" gradientTransform="translate(3.82121 14.9067) rotate(-27.943) scale(4.48072 1.90239)">
<stop stop-color="#6B5C04"/>
<stop offset="1" stop-color="#6B5C04" stop-opacity="0"/>
</radialGradient>
</defs>
</svg>
