<svg width="24" height="24" viewBox="0 0 24 24" fill="none" xmlns="http://www.w3.org/2000/svg">
<path d="M18.9999 8.84968V14.7997L17.2499 13.0497C15.9666 11.883 13.9833 11.883 12.6999 13.0497L11.8833 13.8663L8.96659 10.9497C7.68325 9.78301 5.69992 9.78301 4.41659 10.9497L2.66659 12.6997V6.16634C2.66659 5.46634 3.13325 4.99967 3.83325 4.99967H15.1499C14.7999 4.29967 14.7999 3.36634 15.1499 2.66634H3.83325C1.84992 2.66634 0.333252 4.18301 0.333252 6.16634V20.1663C0.333252 22.1497 1.84992 23.6663 3.83325 23.6663H17.8333C19.8166 23.6663 21.3333 22.1497 21.3333 20.1663V8.84968C20.9833 8.96634 20.5166 9.08301 20.1666 9.08301C19.8166 9.08301 19.3499 8.96634 18.9999 8.84968ZM22.4999 2.66634H21.3333V1.49967C21.3333 0.799674 20.8666 0.333008 20.1666 0.333008C19.4666 0.333008 18.9999 0.799674 18.9999 1.49967V2.66634H17.8333C17.1333 2.66634 16.6666 3.13301 16.6666 3.83301C16.6666 4.53301 17.1333 4.99967 17.8333 4.99967H18.9999V6.16634C18.9999 6.86634 19.4666 7.33301 20.1666 7.33301C20.8666 7.33301 21.3333 6.86634 21.3333 6.16634V4.99967H22.4999C23.1999 4.99967 23.6666 4.53301 23.6666 3.83301C23.6666 3.13301 23.1999 2.66634 22.4999 2.66634Z" fill="white"/>
</svg>
