<svg width="49" height="36" viewBox="0 0 49 36" fill="none" xmlns="http://www.w3.org/2000/svg">
<path d="M39.5 18C39.395 18 39.296 18.027 39.194 18.03C39.3982 17.033 39.5007 16.0177 39.5 15C39.5 6.717 32.783 0 24.5 0C16.217 0 9.5 6.717 9.5 15C9.5 15.051 9.515 15.099 9.515 15.15C4.427 15.876 0.5 20.211 0.5 25.5C0.5 28.2848 1.60625 30.9555 3.57538 32.9246C5.54451 34.8938 8.21523 36 11 36H18.524C18.9148 36 19.3018 35.923 19.6629 35.7735C20.0239 35.6239 20.352 35.4047 20.6283 35.1283C20.9047 34.852 21.1239 34.5239 21.2735 34.1629C21.423 33.8018 21.5 33.4148 21.5 33.024V24H15.134L24.5 12L33.866 24H27.5V33.024C27.5 34.668 28.832 36 30.476 36H39.5C40.6819 36 41.8522 35.7672 42.9442 35.3149C44.0361 34.8626 45.0282 34.1997 45.864 33.364C46.6997 32.5282 47.3626 31.5361 47.8149 30.4442C48.2672 29.3522 48.5 28.1819 48.5 27C48.5 25.8181 48.2672 24.6478 47.8149 23.5558C47.3626 22.4639 46.6997 21.4718 45.864 20.636C45.0282 19.8003 44.0361 19.1374 42.9442 18.6851C41.8522 18.2328 40.6819 18 39.5 18Z" fill="black"/>
</svg>
