<svg width="16" height="16" viewBox="0 0 16 16" fill="none" xmlns="http://www.w3.org/2000/svg">
<path fill-rule="evenodd" clip-rule="evenodd" d="M12.6154 8.29071C14.689 4.87544 11.9999 0.356598 7.99984 0.356598C3.99974 0.356598 1.31065 4.87544 3.38426 8.29071C3.69843 8.82996 5.10447 11.1719 6.28303 13.1318C7.06068 14.425 8.93522 14.4228 9.71095 13.1284C10.8849 11.1695 12.2877 8.83043 12.6154 8.29071ZM7.99984 3.06988C9.43141 3.06988 10.5919 4.23033 10.5919 5.6619C10.5919 7.09347 9.43141 8.25392 7.99984 8.25392C6.56826 8.25392 5.40747 7.09347 5.40747 5.6619C5.40747 4.23033 6.56826 3.06988 7.99984 3.06988Z" fill="black"/>
</svg>
