<svg width="16" height="23" viewBox="0 0 16 23" fill="none" xmlns="http://www.w3.org/2000/svg">
<path fill-rule="evenodd" clip-rule="evenodd" d="M14.9234 12.4358C18.0338 7.31293 14.0001 0.534668 8 0.534668C1.99986 0.534668 -2.03379 7.31293 1.07664 12.4358C1.62761 13.3816 4.4174 18.0235 6.28311 21.1244C7.06109 22.4174 8.93509 22.4152 9.7107 21.1208C11.5684 18.0204 14.3485 13.3826 14.9234 12.4358ZM8 4.60459C10.1474 4.60459 11.888 6.34526 11.888 8.49262C11.888 10.64 10.1474 12.3807 8 12.3807C5.85264 12.3807 4.11145 10.64 4.11145 8.49262C4.11145 6.34526 5.85264 4.60459 8 4.60459Z" fill="#0F0D00"/>
<path fill-rule="evenodd" clip-rule="evenodd" d="M14.9234 12.4358C18.0338 7.31293 14.0001 0.534668 8 0.534668C1.99986 0.534668 -2.03379 7.31293 1.07664 12.4358C1.62761 13.3816 4.4174 18.0235 6.28311 21.1244C7.06109 22.4174 8.93509 22.4152 9.7107 21.1208C11.5684 18.0204 14.3485 13.3826 14.9234 12.4358ZM8 4.60459C10.1474 4.60459 11.888 6.34526 11.888 8.49262C11.888 10.64 10.1474 12.3807 8 12.3807C5.85264 12.3807 4.11145 10.64 4.11145 8.49262C4.11145 6.34526 5.85264 4.60459 8 4.60459Z" fill="black" fill-opacity="0.2"/>
<path fill-rule="evenodd" clip-rule="evenodd" d="M14.9234 12.4358C18.0338 7.31293 14.0001 0.534668 8 0.534668C1.99986 0.534668 -2.03379 7.31293 1.07664 12.4358C1.62761 13.3816 4.4174 18.0235 6.28311 21.1244C7.06109 22.4174 8.93509 22.4152 9.7107 21.1208C11.5684 18.0204 14.3485 13.3826 14.9234 12.4358ZM8 4.60459C10.1474 4.60459 11.888 6.34526 11.888 8.49262C11.888 10.64 10.1474 12.3807 8 12.3807C5.85264 12.3807 4.11145 10.64 4.11145 8.49262C4.11145 6.34526 5.85264 4.60459 8 4.60459Z" fill="black" fill-opacity="0.2"/>
</svg>
