<svg width="16" height="23" viewBox="0 0 16 23" fill="none" xmlns="http://www.w3.org/2000/svg">
<path fill-rule="evenodd" clip-rule="evenodd" d="M14.9234 12.4361C18.0338 7.31317 14.0001 0.534912 8 0.534912C1.99986 0.534912 -2.03379 7.31317 1.07664 12.4361C1.62761 13.3818 4.4174 18.0237 6.28311 21.1246C7.06109 22.4177 8.93509 22.4155 9.7107 21.121C11.5684 18.0206 14.3485 13.3828 14.9234 12.4361ZM8 4.60483C10.1474 4.60483 11.888 6.34551 11.888 8.49287C11.888 10.6402 10.1474 12.3809 8 12.3809C5.85264 12.3809 4.11145 10.6402 4.11145 8.49287C4.11145 6.34551 5.85264 4.60483 8 4.60483Z" fill="#E94444"/>
</svg>
