<svg width="124" height="56" viewBox="0 0 124 56" fill="none" xmlns="http://www.w3.org/2000/svg">
<path d="M56.3577 13.4087H57.4375V25.8H56.3577V13.4087ZM69.6041 13.4087V25.8H68.5243L61.4612 15.1435V25.8H60.3814V13.4087H61.4612L68.5243 24.0476V13.4087H69.6041ZM76.4948 13.4087C77.8873 13.4087 79.0675 13.6566 80.0352 14.1522C81.0147 14.6479 81.7582 15.3619 82.2656 16.2942C82.7849 17.2264 83.0445 18.3358 83.0445 19.6221C83.0445 20.9084 82.7849 22.0119 82.2656 22.9323C81.7582 23.8528 81.0147 24.5609 80.0352 25.0566C79.0675 25.5522 77.8873 25.8 76.4948 25.8H72.5473V13.4087H76.4948ZM76.4948 24.8619C78.3122 24.8619 79.6752 24.4016 80.5839 23.4811C81.5044 22.5488 81.9647 21.2625 81.9647 19.6221C81.9647 17.9817 81.5044 16.6954 80.5839 15.7631C79.6752 14.819 78.3122 14.3469 76.4948 14.3469H73.6271V24.8619H76.4948ZM93.198 14.3469H86.2943V19.0025H91.4809V19.9407H86.2943V24.8619H93.198V25.8H85.2145V13.4087H93.198V14.3469ZM102.995 17.0199C102.995 16.2056 102.759 15.5566 102.287 15.0727C101.814 14.5889 101.024 14.3469 99.9145 14.3469H96.8698V19.6752H99.9499C100.658 19.6752 101.236 19.5631 101.685 19.3389C102.133 19.1146 102.464 18.8019 102.676 18.4007C102.888 17.9994 102.995 17.5392 102.995 17.0199ZM99.9145 13.4087C100.894 13.4087 101.685 13.5681 102.287 13.8867C102.9 14.2053 103.355 14.6361 103.65 15.1789C103.945 15.7218 104.092 16.3355 104.092 17.0199C104.092 17.5274 104.01 17.9994 103.844 18.4361C103.679 18.8727 103.425 19.2563 103.083 19.5867C102.741 19.9053 102.31 20.1591 101.791 20.3479C101.272 20.5367 100.658 20.6311 99.9499 20.6311H96.8698V25.8H95.79V13.4087H99.9145ZM100.853 20.224L104.305 25.8H103.083L99.6844 20.224H100.853ZM106.823 22.8261C106.906 23.1566 107.065 23.487 107.301 23.8174C107.537 24.1479 107.868 24.4252 108.292 24.6494C108.729 24.8619 109.296 24.9681 109.992 24.9681C110.971 24.9681 111.697 24.7438 112.169 24.2954C112.641 23.8469 112.877 23.2923 112.877 22.6314C112.877 22.124 112.742 21.705 112.47 21.3746C112.21 21.0441 111.851 20.7727 111.39 20.5603C110.942 20.3479 110.434 20.1591 109.868 19.9938C109.384 19.864 108.912 19.7224 108.452 19.569C108.003 19.4038 107.596 19.2032 107.23 18.9671C106.865 18.7311 106.575 18.4302 106.363 18.0643C106.151 17.6867 106.044 17.2205 106.044 16.6659C106.044 15.9814 106.204 15.3914 106.522 14.8957C106.841 14.3882 107.289 13.9929 107.868 13.7097C108.458 13.4264 109.148 13.2848 109.939 13.2848C110.635 13.2848 111.237 13.391 111.744 13.6035C112.252 13.8041 112.671 14.0873 113.001 14.4532C113.332 14.8072 113.568 15.2025 113.709 15.6392L112.771 15.9932C112.677 15.7218 112.505 15.4504 112.258 15.1789C112.022 14.8957 111.703 14.6656 111.302 14.4886C110.912 14.2997 110.446 14.2053 109.903 14.2053C109.396 14.2053 108.93 14.2997 108.505 14.4886C108.08 14.6656 107.738 14.9311 107.478 15.2851C107.23 15.6274 107.106 16.0404 107.106 16.5243C107.106 17.0435 107.248 17.4566 107.531 17.7634C107.815 18.0584 108.186 18.3004 108.646 18.4892C109.119 18.6662 109.638 18.8373 110.204 19.0025C110.688 19.156 111.154 19.3212 111.603 19.4982C112.063 19.6752 112.464 19.8935 112.806 20.1532C113.16 20.4128 113.438 20.7373 113.638 21.1268C113.851 21.5044 113.957 21.9705 113.957 22.5252C113.957 23.1271 113.815 23.6876 113.532 24.2069C113.261 24.7261 112.836 25.1451 112.258 25.4637C111.679 25.7705 110.93 25.924 110.01 25.924C109.219 25.924 108.534 25.8059 107.956 25.5699C107.39 25.3221 106.929 24.9976 106.575 24.5963C106.221 24.1833 105.979 23.723 105.85 23.2156L106.823 22.8261Z" fill="white"/>
<path d="M50.1292 47.7449C49.1087 47.7449 48.1503 47.5656 47.254 47.2071C46.3576 46.8485 45.5716 46.3452 44.8959 45.6971C44.234 45.0352 43.71 44.256 43.3238 43.3597C42.9515 42.4495 42.7653 41.4498 42.7653 40.3603C42.7653 39.2847 42.9515 38.2987 43.3238 37.4024C43.71 36.4923 44.234 35.7062 44.8959 35.0443C45.5716 34.3824 46.3576 33.8721 47.254 33.5136C48.1503 33.1551 49.1087 32.9758 50.1292 32.9758C51.1497 32.9758 52.1012 33.1551 52.9837 33.5136C53.8801 33.8721 54.6592 34.3824 55.3211 35.0443C55.9969 35.7062 56.5209 36.4923 56.8932 37.4024C57.2793 38.2987 57.4724 39.2847 57.4724 40.3603C57.4724 41.4498 57.2793 42.4495 56.8932 43.3597C56.5209 44.256 55.9969 45.0352 55.3211 45.6971C54.6592 46.3452 53.8801 46.8485 52.9837 47.2071C52.1012 47.5656 51.1497 47.7449 50.1292 47.7449ZM50.1292 45.6557C51.0669 45.6557 51.9012 45.442 52.6321 45.0145C53.363 44.5732 53.9352 43.9595 54.3489 43.1735C54.7626 42.3737 54.9695 41.436 54.9695 40.3603C54.9695 39.2709 54.7626 38.3332 54.3489 37.5472C53.9352 36.7612 53.363 36.1544 52.6321 35.7269C51.9012 35.2856 51.0669 35.065 50.1292 35.065C49.1915 35.065 48.3572 35.2856 47.6263 35.7269C46.8955 36.1544 46.3163 36.7612 45.8888 37.5472C45.4751 38.3332 45.2682 39.2709 45.2682 40.3603C45.2682 41.436 45.4751 42.3737 45.8888 43.1735C46.3163 43.9595 46.8955 44.5732 47.6263 45.0145C48.3572 45.442 49.1915 45.6557 50.1292 45.6557ZM72.1625 37.4851C72.1625 36.7681 71.9487 36.2027 71.5212 35.789C71.0937 35.3753 70.4318 35.1684 69.5355 35.1684H66.3293V39.8225H69.5355C70.1422 39.8225 70.6318 39.7329 71.0041 39.5536C71.3902 39.3606 71.6798 39.0917 71.8729 38.7469C72.0659 38.3884 72.1625 37.9678 72.1625 37.4851ZM69.5355 33.1206C70.6938 33.1206 71.6453 33.3205 72.39 33.7205C73.1484 34.1066 73.7138 34.6375 74.0862 35.3132C74.4585 35.9751 74.6447 36.6991 74.6447 37.4851C74.6447 38.0092 74.555 38.5263 74.3757 39.0365C74.1965 39.5467 73.9069 40.0225 73.507 40.4638C73.1071 40.8913 72.5762 41.236 71.9142 41.498C71.2661 41.7462 70.4732 41.8704 69.5355 41.8704H66.3293V47.6001H63.8678V33.1206H69.5355ZM71.0041 41.0636L74.9549 47.6001H72.1831L68.3771 41.0636H71.0041ZM80.6326 40.3603C80.6326 39.2709 80.8188 38.2781 81.1911 37.3817C81.5773 36.4716 82.1013 35.6924 82.7632 35.0443C83.4389 34.3824 84.218 33.8721 85.1006 33.5136C85.997 33.1551 86.9554 32.9758 87.9758 32.9758C89.3962 32.9758 90.6787 33.3137 91.8232 33.9894C92.9816 34.6651 93.8641 35.6373 94.4709 36.906L92.4645 37.5886C92.1473 36.9818 91.7405 36.4923 91.244 36.1199C90.7476 35.7476 90.2236 35.4787 89.672 35.3132C89.1204 35.1477 88.5757 35.065 88.0379 35.065C87.1002 35.065 86.259 35.2856 85.5143 35.7269C84.7696 36.1544 84.1836 36.7681 83.7561 37.5679C83.3424 38.3539 83.1355 39.2847 83.1355 40.3603C83.1355 41.4222 83.3424 42.353 83.7561 43.1528C84.1836 43.9389 84.7696 44.5525 85.5143 44.9938C86.259 45.4351 87.1002 45.6557 88.0379 45.6557C88.5895 45.6557 89.148 45.573 89.7134 45.4075C90.2925 45.2282 90.8372 44.9248 91.3475 44.4973C91.8715 44.0561 92.3059 43.47 92.6506 42.7391L94.6364 43.3804C94.002 44.8697 93.0988 45.9729 91.9267 46.69C90.7545 47.3932 89.4376 47.7449 87.9758 47.7449C86.9554 47.7449 85.997 47.5656 85.1006 47.2071C84.218 46.8485 83.4389 46.3383 82.7632 45.6764C82.1013 45.0145 81.5773 44.2353 81.1911 43.339C80.8188 42.4288 80.6326 41.436 80.6326 40.3603ZM111.158 35.1684H103.732V39.2434H109.296V41.2912H103.732V45.5523H111.158V47.6001H101.27V33.1206H111.158V35.1684Z" fill="white"/>
<path d="M10.8506 9.80311C9.51277 10.0209 8.29687 10.9309 7.85611 11.3587C7.03944 9.41422 10.3451 7.58645 12.6394 6.92535C13.8777 6.56856 19.9117 5.13645 19.9117 5.21423C19.9117 5.6809 19.3283 6.69202 18.9394 7.1198C18.5506 7.54757 17.4229 8.24755 17.5395 8.24755C17.6562 8.24755 18.0839 8.20866 18.0839 8.24755C18.0839 8.27866 18.0061 8.39019 17.9672 8.44199C17.0728 9.33644 16.295 9.68644 15.4006 9.80311C14.5061 9.91977 12.5228 9.53088 10.8506 9.80311Z" fill="#FED70A"/>
<path d="M8.12837 13.3419C7.75502 12.2841 7.31169 12.0586 6.80614 12.2919C5.98947 12.9141 4.23948 14.4308 3.61725 15.2086C3.29379 15.6129 3.09873 15.8697 3.11169 16.0252C4.97837 15.3252 6.80614 15.053 8.63393 15.053C9.53001 15.053 11.0839 15.6752 11.4728 16.6086C11.8985 17.6302 12.095 17.503 12.095 17.3863C12.4839 15.4808 11.5117 14.703 9.99504 14.0808C8.78171 13.583 8.27094 13.4327 8.12837 13.3419Z" fill="#FED70A"/>
<path d="M12.3672 28.4698C12.0302 28.3531 11.6658 27.3617 11.5117 25.2809C11.3561 23.1809 11.3949 20.0309 15.5949 17.0753C19.7949 14.1198 25.5116 12.9531 28.5838 12.5642C30.8757 12.2741 41.3913 11.681 47.3284 10.7688C49.3499 10.4582 49.9339 10.1944 50.8284 9.84198C51.9799 9.38838 52.6722 8.24582 52.7086 7.93168C52.704 7.90679 52.6995 7.88244 52.6949 7.85864C52.7082 7.87062 52.7127 7.89574 52.7086 7.93168C52.9745 9.4002 53.1819 12.8027 52.5395 15.4031C52.0279 17.4736 51.7617 19.3309 49.195 21.5086C48.4329 22.1553 46.5117 23.3932 44.8006 23.5698C43.0895 23.7463 37.3728 23.9198 28.0394 24.5809C18.7061 25.242 13.6117 25.9809 12.3672 28.4698Z" fill="#FED70A"/>
<path d="M12.6006 37.6085C11.7063 38.6585 10.9822 41.5475 11.2006 42.7029C8.90618 39.9807 8.47381 35.4473 9.76174 32.3196C11.1228 29.0141 14.4284 28.0029 16.5673 27.7307C18.7062 27.4585 26.6006 27.7696 30.0617 27.1863C32.8306 26.7196 34.9747 26.0067 35.7006 25.7085C35.8692 26.4474 36.2147 28.215 35.7006 30.1807C34.9253 33.1452 33.0598 34.6061 30.7228 35.2363C27.2617 36.1696 23.6224 35.1166 18.784 35.4307C15.7895 35.6252 13.4951 36.5585 12.6006 37.6085Z" fill="#FED70A"/>
<path d="M14.0395 45.7754C12.7951 48.4198 13.4432 50.2736 14.0395 50.7531C12.484 50.7531 11.784 50.442 10.9673 49.6254C10.1507 48.8087 10.034 47.642 10.1895 46.4365C10.3451 45.2309 11.5118 43.092 11.9395 42.2365C12.2818 41.552 12.6007 40.1754 12.6007 39.1254C13.1969 39.1772 14.5295 39.5531 15.0895 40.642C15.7895 42.0031 15.5951 42.4698 14.0395 45.7754Z" fill="#FED70A"/>
<path d="M16.5169 16.4687C21.0445 16.5716 29.7163 16.9246 33.5618 17.6584C33.7075 17.6863 33.8534 17.7142 33.9996 17.7421C38.9609 18.6908 44.0974 19.6728 46.6284 18.0862C49.2032 16.4722 52.4994 12.6557 52.502 8.40039C52.2127 8.87235 51.6326 9.52498 50.8284 9.84177C50.773 9.86362 50.7188 9.88509 50.6655 9.90625C49.8561 10.227 49.2248 10.4772 47.3284 10.7686C43.3661 11.3774 37.3643 11.8441 33.1289 12.1734C31.0182 12.3375 29.3462 12.4675 28.5839 12.564C25.7312 12.9251 20.5984 13.9568 16.5169 16.4687Z" fill="url(#paint0_radial_3071_22625)"/>
<path d="M34.6977 32.4797C32.3373 32.8204 30.1447 32.2705 22.3618 29.9085C17.5163 28.438 14.9264 28.2735 13.7886 28.4488C14.7696 28.0451 15.753 27.8344 16.5673 27.7307C17.4311 27.6208 19.2336 27.606 21.3038 27.589C24.3595 27.5639 27.9984 27.534 30.0618 27.1863C32.8307 26.7196 34.9748 26.0067 35.7007 25.7085C35.8692 26.4474 36.2147 28.215 35.7007 30.1807C35.4638 31.0864 35.1229 31.8439 34.6977 32.4797Z" fill="url(#paint1_radial_3071_22625)"/>
<path d="M11.2006 42.7031C10.9822 41.5476 11.7063 38.542 12.6007 37.6087C13.4951 36.6753 16.3502 35.5794 18.784 35.4309C20.8218 35.3065 22.5612 35.4461 24.1633 35.5747C26.4748 35.7602 28.5002 35.9227 30.7229 35.2364C32.3473 34.7348 33.7631 33.9063 34.7306 32.4302C34.0754 32.574 33.3442 32.7249 32.5895 32.8642C30.0617 33.3309 26.2506 32.8642 22.6728 32.3975C19.0951 31.9309 15.0117 32.4302 13.0284 34.6142C11.5895 36.1988 11.1318 37.2469 10.9319 38.41C10.8539 38.8642 10.7872 39.2521 10.6562 39.5142C10.3238 40.1791 9.69936 39.4132 9.33777 38.798C9.67011 40.2513 10.2881 41.6204 11.2006 42.7031Z" fill="url(#paint2_radial_3071_22625)"/>
<path d="M12.5318 40.0638C12.9673 40.482 13.6871 41.6374 13.4173 43.2865C13.2394 44.3735 12.8707 45.1391 12.551 45.8028C12.2417 46.445 11.9784 46.9918 11.9784 47.642C11.9784 48.6998 12.9376 49.4569 13.4173 49.7031L13.472 49.7498C13.2215 48.8586 13.2365 47.4816 14.0395 45.7754C15.5951 42.4698 15.7895 42.0031 15.0895 40.642C14.5295 39.5531 13.1969 39.1772 12.6006 39.1254C12.6006 39.42 12.5755 39.7404 12.5318 40.0638Z" fill="url(#paint3_radial_3071_22625)"/>
<path d="M9.27533 10.3582C9.74635 10.1089 10.2877 9.89473 10.8506 9.80311C11.8474 9.64087 12.9547 9.71351 13.8761 9.77394C14.5004 9.81493 15.0393 9.85024 15.4006 9.80311C16.295 9.68644 17.0728 9.33644 17.9672 8.442C18.0061 8.3902 18.0839 8.27867 18.0839 8.24755C18.0839 8.21987 17.8667 8.23161 17.6997 8.24071C17.6322 8.24436 17.5731 8.24755 17.5395 8.24755C17.4894 8.24755 17.669 8.11836 17.921 7.93706C18.2555 7.69633 18.7176 7.36379 18.9395 7.1198C19.1718 6.8642 19.4736 6.40035 19.6789 5.9688C19.6054 5.95862 19.5275 5.95312 19.4451 5.95312C18.5164 5.95312 16.8882 7.10898 15.9055 7.80663C15.777 7.89787 15.6596 7.98117 15.5562 8.05311C14.8298 8.55843 13.77 8.62773 12.6893 8.69843C12.4392 8.71477 12.188 8.73118 11.9395 8.75311C11.0228 8.834 9.90346 9.73863 9.27533 10.3582Z" fill="url(#paint4_radial_3071_22625)"/>
<path d="M3.11804 15.9551C4.55997 14.9824 7.38888 14.2866 8.75064 14.0421H6.88396C5.89847 14.0421 6.73206 13.3924 6.72934 13.3889C6.72874 13.3882 6.68642 13.4196 6.57285 13.4977C5.98056 13.9049 5.10637 14.3473 4.18508 14.5902C3.95438 14.8214 3.75729 15.0338 3.61729 15.2088C3.33846 15.5573 3.15504 15.7962 3.11804 15.9551Z" fill="url(#paint5_radial_3071_22625)"/>
<path d="M3.11804 15.9551C4.55997 14.9824 7.38888 14.2866 8.75064 14.0421H6.88396C5.89847 14.0421 6.73206 13.3924 6.72934 13.3889C6.72874 13.3882 6.68642 13.4196 6.57285 13.4977C5.98056 13.9049 5.10637 14.3473 4.18508 14.5902C3.95438 14.8214 3.75729 15.0338 3.61729 15.2088C3.33846 15.5573 3.15504 15.7962 3.11804 15.9551Z" fill="url(#paint6_radial_3071_22625)"/>
<defs>
<radialGradient id="paint0_radial_3071_22625" cx="0" cy="0" r="1" gradientUnits="userSpaceOnUse" gradientTransform="translate(51.1395 10.464) rotate(170.145) scale(26.13 40.3427)">
<stop stop-color="#7B5D02"/>
<stop offset="1" stop-color="#7B5D02" stop-opacity="0"/>
</radialGradient>
<radialGradient id="paint1_radial_3071_22625" cx="0" cy="0" r="1" gradientUnits="userSpaceOnUse" gradientTransform="translate(34.9229 29.1307) rotate(170.679) scale(15.6061 50.4401)">
<stop stop-color="#986E01"/>
<stop offset="1" stop-color="#986E01" stop-opacity="0"/>
</radialGradient>
<radialGradient id="paint2_radial_3071_22625" cx="0" cy="0" r="1" gradientUnits="userSpaceOnUse" gradientTransform="translate(16.9173 36.792) rotate(-108.435) scale(5.41101 13.205)">
<stop stop-color="#B58E01"/>
<stop offset="1" stop-color="#B58E01" stop-opacity="0"/>
</radialGradient>
<radialGradient id="paint3_radial_3071_22625" cx="0" cy="0" r="1" gradientUnits="userSpaceOnUse" gradientTransform="translate(15.4784 41.3809) rotate(101.819) scale(8.55011 2.81472)">
<stop stop-color="#A28900"/>
<stop offset="1" stop-color="#A28900" stop-opacity="0"/>
</radialGradient>
<radialGradient id="paint4_radial_3071_22625" cx="0" cy="0" r="1" gradientUnits="userSpaceOnUse" gradientTransform="translate(19.0173 11.2031) rotate(-140.88) scale(8.32082 19.6517)">
<stop stop-color="#584800"/>
<stop offset="1" stop-color="#584800" stop-opacity="0"/>
</radialGradient>
<radialGradient id="paint5_radial_3071_22625" cx="0" cy="0" r="1" gradientUnits="userSpaceOnUse" gradientTransform="translate(2.91729 16.1421) rotate(-26.8058) scale(4.13925 0.951362)">
<stop stop-color="#6B5C04"/>
<stop offset="1" stop-color="#6B5C04" stop-opacity="0"/>
</radialGradient>
<radialGradient id="paint6_radial_3071_22625" cx="0" cy="0" r="1" gradientUnits="userSpaceOnUse" gradientTransform="translate(4.31729 16.8421) rotate(-27.943) scale(5.06243 2.14936)">
<stop stop-color="#6B5C04"/>
<stop offset="1" stop-color="#6B5C04" stop-opacity="0"/>
</radialGradient>
</defs>
</svg>
