<svg width="40" height="40" viewBox="0 0 40 40" fill="none" xmlns="http://www.w3.org/2000/svg">
<circle opacity="0.15" cx="20" cy="20" r="20" fill="#E94444"/>
<path d="M10 13.8689C10.0363 13.6932 10.068 13.5174 10.1096 13.3417C10.5645 11.4373 12.3526 10.0532 14.425 10.0091C15.0183 9.9962 15.612 9.99776 16.2053 10.0091C17.1986 10.0251 17.9835 10.7664 17.9967 11.6885C18.006 12.138 17.8276 12.5729 17.5004 12.8985C17.1731 13.224 16.7235 13.4139 16.2493 13.4268C15.7224 13.4448 15.1946 13.4295 14.6668 13.4331C13.9775 13.4377 13.6117 13.7885 13.6113 14.4422C13.6113 18.1395 13.6113 21.8378 13.6113 25.5374C13.6113 26.2037 13.9788 26.5528 14.6779 26.5571C15.2271 26.5599 15.778 26.5415 16.326 26.5704C17.6123 26.6384 18.4029 27.9948 17.787 29.0699C17.4808 29.6038 17.0041 29.9534 16.3548 29.9768C15.5658 30.0049 14.7686 30.0198 13.9845 29.9475C11.9908 29.7616 10.3222 28.1947 10.0466 26.3154C10.0367 26.2467 10.0157 26.181 10 26.1143C10 22.0325 10 17.9507 10 13.8689Z" fill="#E94444"/>
<path d="M24.486 18.334C24.4094 18.2438 24.365 18.1883 24.3174 18.1371C23.6382 17.401 22.9553 16.6685 22.2808 15.9276C21.7365 15.3294 21.6694 14.4125 22.1089 13.752C22.5755 13.0506 23.4168 12.7997 24.1202 13.1711C24.2944 13.2655 24.4533 13.3895 24.5908 13.5382C26.2295 15.2926 27.8647 17.0509 29.4964 18.8129C30.169 19.5388 30.1679 20.5786 29.4931 21.3056C27.8964 23.0259 26.2972 24.7439 24.6957 26.4594C24.0285 27.1739 23.0348 27.1786 22.3842 26.4827C21.749 25.8029 21.764 24.7376 22.426 24.0196C23.0542 23.3369 23.6859 22.659 24.321 21.9858C24.3706 21.9404 24.4236 21.8994 24.4794 21.8633L24.4493 21.7873H24.2353C22.0448 21.7873 19.8543 21.7873 17.6638 21.7873C16.8841 21.7873 16.2177 21.2414 16.0469 20.4742C15.8006 19.3691 16.5535 18.3431 17.6264 18.338C19.0409 18.3309 20.4558 18.338 21.8706 18.338H24.486V18.334Z" fill="#E94444"/>
</svg>
