<svg width="24" height="24" viewBox="0 0 24 24" fill="none" xmlns="http://www.w3.org/2000/svg">
<path d="M2 5.86891C2.03626 5.69316 2.06798 5.51741 2.10959 5.34166C2.56445 3.43734 4.35257 2.05322 6.42497 2.00909C7.01826 1.9962 7.61196 1.99776 8.20525 2.00909C9.19861 2.0251 9.98348 2.76637 9.99667 3.68846C10.006 4.13805 9.82762 4.57293 9.50038 4.89848C9.17315 5.22404 8.72352 5.41392 8.24934 5.4268C7.72238 5.44477 7.1946 5.42954 6.66682 5.43305C5.97753 5.43774 5.61166 5.78846 5.61125 6.44224C5.61125 10.1395 5.61125 13.8378 5.61125 17.5374C5.61125 18.2037 5.97876 18.5528 6.67794 18.5571C7.22715 18.5599 7.778 18.5415 8.32597 18.5704C9.61226 18.6384 10.4029 19.9948 9.78695 21.0699C9.48083 21.6038 9.00414 21.9534 8.35481 21.9768C7.56582 22.0049 6.76858 22.0198 5.98453 21.9475C3.99082 21.7616 2.32219 20.1947 2.04656 18.3154C2.03667 18.2467 2.01566 18.181 2 18.1143C2 14.0325 2 9.95069 2 5.86891Z" fill="#0F0D00" fill-opacity="0.6"/>
<path d="M16.486 10.334C16.4094 10.2438 16.365 10.1883 16.3174 10.1371C15.6382 9.40101 14.9553 8.66846 14.2808 7.92764C13.7365 7.32939 13.6694 6.41252 14.1089 5.75204C14.5755 5.0506 15.4168 4.79972 16.1202 5.17112C16.2944 5.26553 16.4533 5.38947 16.5908 5.53818C18.2295 7.29263 19.8647 9.05088 21.4964 10.8129C22.169 11.5388 22.1679 12.5786 21.4931 13.3056C19.8964 15.0259 18.2972 16.7439 16.6957 18.4594C16.0285 19.1739 15.0348 19.1786 14.3842 18.4827C13.749 17.8029 13.764 16.7376 14.426 16.0196C15.0542 15.3369 15.6859 14.659 16.321 13.9858C16.3706 13.9404 16.4236 13.8994 16.4794 13.8633L16.4493 13.7873H16.2353C14.0448 13.7873 11.8543 13.7873 9.66375 13.7873C8.8841 13.7873 8.21771 13.2414 8.0469 12.4742C7.80058 11.3691 8.55347 10.3431 9.62637 10.338C11.0409 10.3309 12.4558 10.338 13.8706 10.338H16.486V10.334Z" fill="#0F0D00" fill-opacity="0.6"/>
</svg>
