<svg width="32" height="32" viewBox="0 0 32 32" fill="none" xmlns="http://www.w3.org/2000/svg">
<path d="M1.37708 24.4599L11.1256 30.0884L30.6228 18.8316L30.6228 7.53994L20.8741 1.91163L1.37708 13.2033V24.4599Z" fill="#2DB357"/>
<path d="M1.37708 13.2033L11.1256 18.8316L30.6228 7.53994L30.6228 18.8316L11.1256 30.0884L1.37708 24.4599V13.2033Z" fill="#0E834C"/>
<path d="M11.1257 30.0884V18.8316L30.6229 7.53994L30.6229 18.8316L11.1257 30.0884Z" fill="#1A4541"/>
<path d="M20.8741 3.20025L3.81421 12.9936L11.215 17.2163L28.2749 7.42306L20.8741 3.20025V3.20025ZM11.2136 16.2611L5.48308 12.9914L20.8755 4.15544L26.606 7.42519L11.2136 16.2611Z" fill="white"/>
<path d="M16.2815 11.7872C18.0473 11.7872 19.4789 10.9743 19.4789 9.97144C19.4789 8.96859 18.0473 8.15562 16.2815 8.15562C14.5156 8.15562 13.0841 8.96859 13.0841 9.97144C13.0841 10.9743 14.5156 11.7872 16.2815 11.7872Z" fill="white"/>
<path d="M21.2296 8.06706C21.9926 8.06706 22.6111 7.7158 22.6111 7.2825C22.6111 6.8492 21.9926 6.49794 21.2296 6.49794C20.4666 6.49794 19.848 6.8492 19.848 7.2825C19.848 7.7158 20.4666 8.06706 21.2296 8.06706Z" fill="#5EE1EB"/>
<path d="M11.1256 13.8345C11.8886 13.8345 12.5071 13.4832 12.5071 13.0498C12.5071 12.6164 11.8886 12.2651 11.1256 12.2651C10.3626 12.2651 9.74402 12.6164 9.74402 13.0498C9.74402 13.4832 10.3626 13.8345 11.1256 13.8345Z" fill="#5EE1EB"/>
<path d="M1.37708 14.65V14.9253L11.125 20.6981L11.1256 20.4231L1.37708 14.65ZM1.37708 16.1616V16.4369L11.125 22.2097L11.1256 21.9348L1.37708 16.1616ZM1.37708 17.6732V17.9485L11.125 23.7214L11.1256 23.4464L1.37708 17.6732ZM1.37708 19.1848V19.4601L11.125 25.233L11.1256 24.9581L1.37708 19.1848ZM1.37708 20.6965V20.9718L11.125 26.7447L11.1256 26.4697L1.37708 20.6965ZM1.37708 22.2081V22.4834L11.125 28.2563L11.1256 27.9813L1.37708 22.2081Z" fill="#2DB357"/>
<path d="M30.6229 9.11231L11.1264 20.4236L11.1257 20.6978L30.6229 9.386V9.11231ZM30.6229 10.6239L11.1264 21.9352L11.1257 22.2094L30.6229 10.8976V10.6239ZM30.6229 12.1355L11.1264 23.4469L11.1257 23.7211L30.6229 12.4092V12.1355ZM30.6229 13.6471L11.1264 24.9585L11.1257 25.2327L30.6229 13.9208V13.6471ZM11.1264 26.4701L11.1257 26.7443L30.6229 15.4326V15.1587L11.1264 26.4701ZM11.1264 27.9818L11.1257 28.2559L30.6229 16.9441V16.6702L11.1264 27.9818Z" fill="#0E834C"/>
</svg>
