<svg width="24" height="24" viewBox="0 0 24 24" fill="none" xmlns="http://www.w3.org/2000/svg">
<path fillRule="evenodd" clipRule="evenodd" d="M21.8294 4.00391C23.0134 4.00391 23.9753 4.96588 23.9753 6.14985H24V14.8816C24 16.0656 23.038 17.0275 21.8541 17.0275H15.9589C15.9342 17.0275 15.9342 17.0522 15.9342 17.0522L13.1716 19.7901C12.9003 20.0861 12.4317 19.8888 12.4317 19.4941V17.0275H10.261C9.07708 17.0275 8.11511 16.0656 8.11511 14.8816V6.14985C8.11511 4.96588 9.07708 4.00391 10.261 4.00391H21.8294ZM0.986639 5.6072C0.443988 5.6072 0 6.05118 0 6.59383C0 7.13649 0.443988 7.58047 0.986639 7.58047H5.32785C5.8705 7.58047 6.31449 7.13649 6.31449 6.59383C6.31449 6.05118 5.8705 5.6072 5.32785 5.6072H0.986639ZM5.30319 11.5024C5.84584 11.5024 6.28983 11.0584 6.28983 10.5157C6.28983 9.97307 5.8705 9.52909 5.30319 9.52909H2.09661C1.55396 9.52909 1.10997 9.97307 1.10997 10.5157C1.10997 11.0584 1.55396 11.5024 2.09661 11.5024H5.30319ZM5.30319 15.4243C5.84584 15.4243 6.28983 14.9803 6.28983 14.4376C6.28983 13.895 5.8705 13.451 5.32785 13.451H3.35457C2.81192 13.451 2.36793 13.895 2.36793 14.4376C2.36793 14.9803 2.81192 15.4243 3.35457 15.4243H5.30319Z" fill="#FED70A"/>
</svg>
