<svg width="155" height="145" viewBox="0 0 155 145" fill="none" xmlns="http://www.w3.org/2000/svg">
<path d="M72.4037 145C112.281 145 144.608 112.541 144.608 72.5C144.608 32.4593 112.281 0 72.4037 0C32.5263 0 0.199219 32.4593 0.199219 72.5C0.199219 112.541 32.5263 145 72.4037 145Z" fill="#6C56F9"/>
<path fill-rule="evenodd" clip-rule="evenodd" d="M40.972 137.972L60.4675 98.9659L72.138 81.3099V4.57764e-05C112.161 0.000204589 144.606 32.4595 144.606 72.5C144.606 112.541 112.161 145 72.1378 145C60.9807 145 50.4126 142.478 40.972 137.972Z" fill="#6C56F9"/>
<path fill-rule="evenodd" clip-rule="evenodd" d="M140.558 26.2866L89.5463 60.5424C89.5463 60.5424 80.9738 59.8166 72.4041 59.1564V71.6506L141.565 114.474C149.924 102.082 154.802 87.1627 154.802 71.1082C154.802 54.4197 149.531 38.9581 140.558 26.2866Z" fill="#2196F3"/>
<path fill-rule="evenodd" clip-rule="evenodd" d="M72.4043 4.57764e-05V72.0761L132.716 31.8881C119.678 12.655 97.5315 0.000157701 72.4043 4.57764e-05Z" fill="#FED70A"/>
<path d="M88.6834 33.9828V26.7882H87.6426C87.3799 27.7179 86.7837 28.1524 85.7025 28.213V29.1729H85.9955C86.3694 29.1729 87.107 29.0618 87.3799 28.8193V33.9828H88.6834ZM92.7199 34.0839C94.4377 34.0839 95.4179 33.1037 95.4179 31.6183C95.4179 30.1329 94.4478 29.2942 92.8917 29.2942C92.3561 29.2942 91.8509 29.4256 91.5275 29.7691L91.8004 27.8492H95.0137V26.7882H90.7394L90.1331 31.1535H91.3962C91.5275 30.6887 91.9115 30.2137 92.7199 30.2137C93.5586 30.2137 94.1144 30.7594 94.1144 31.6587C94.1144 32.5681 93.5586 33.0936 92.7199 33.0936C91.8307 33.0936 91.4568 32.5479 91.3659 32.073H90.0927C90.0927 33.0734 90.9415 34.0839 92.7199 34.0839ZM98.19 31.0928C99.4025 31.0928 99.9381 30.2643 99.9381 28.9102C99.9381 27.5562 99.4025 26.7276 98.19 26.7276C96.9774 26.7276 96.4418 27.5562 96.4418 28.9102C96.4418 30.2643 96.9774 31.0928 98.19 31.0928ZM98.19 30.3754C97.6342 30.3754 97.3108 29.951 97.3108 28.9102C97.3108 27.8694 97.6342 27.445 98.19 27.445C98.7356 27.445 99.059 27.8694 99.059 28.9102C99.059 29.951 98.7356 30.3754 98.19 30.3754ZM99.1499 33.9828L103.01 26.7882H102.212L98.3516 33.9828H99.1499ZM103.172 34.0434C104.384 34.0434 104.92 33.2148 104.92 31.8608C104.92 30.5068 104.384 29.6782 103.172 29.6782C101.959 29.6782 101.423 30.5068 101.423 31.8608C101.423 33.2148 101.959 34.0434 103.172 34.0434ZM103.172 33.326C102.616 33.326 102.292 32.9016 102.292 31.8608C102.292 30.82 102.616 30.3956 103.172 30.3956C103.717 30.3956 104.041 30.82 104.041 31.8608C104.041 32.9016 103.717 33.326 103.172 33.326Z" fill="#0A0800"/>
<path d="M121.299 73.3145V66.1199H120.258C119.995 67.0496 119.399 67.4841 118.318 67.5447V68.5047H118.611C118.985 68.5047 119.722 68.3935 119.995 68.151V73.3145H121.299ZM125.376 73.4156C127.063 73.4156 128.154 72.587 128.154 71.3744C128.154 70.3134 127.649 69.8183 126.851 69.6162C127.568 69.4545 128.053 68.9796 128.053 68.0702C128.053 66.8677 127.002 66.0189 125.376 66.0189C123.648 66.0189 122.708 66.9283 122.708 68.3329H123.91C124.001 67.5043 124.496 67.0799 125.376 67.0799C126.194 67.0799 126.75 67.5245 126.75 68.1914C126.75 68.8684 126.234 69.1514 125.446 69.1514H124.688V70.1416H125.547C126.386 70.1416 126.851 70.4852 126.851 71.1824C126.851 71.8796 126.335 72.3546 125.386 72.3546C124.466 72.3546 123.92 71.9504 123.809 70.8995H122.607C122.607 72.7082 123.688 73.4156 125.376 73.4156ZM130.924 70.4246C132.136 70.4246 132.672 69.596 132.672 68.2419C132.672 66.8879 132.136 66.0593 130.924 66.0593C129.711 66.0593 129.175 66.8879 129.175 68.2419C129.175 69.596 129.711 70.4246 130.924 70.4246ZM130.924 69.7071C130.368 69.7071 130.044 69.2827 130.044 68.2419C130.044 67.2011 130.368 66.7767 130.924 66.7767C131.469 66.7767 131.793 67.2011 131.793 68.2419C131.793 69.2827 131.469 69.7071 130.924 69.7071ZM131.884 73.3145L135.744 66.1199H134.945L131.085 73.3145H131.884ZM135.905 73.3751C137.118 73.3751 137.653 72.5466 137.653 71.1925C137.653 69.8385 137.118 69.0099 135.905 69.0099C134.693 69.0099 134.157 69.8385 134.157 71.1925C134.157 72.5466 134.693 73.3751 135.905 73.3751ZM135.905 72.6577C135.349 72.6577 135.026 72.2333 135.026 71.1925C135.026 70.1517 135.349 69.7273 135.905 69.7273C136.451 69.7273 136.774 70.1517 136.774 71.1925C136.774 72.2333 136.451 72.6577 135.905 72.6577Z" fill="white"/>
<path d="M32.5419 106.246V105.185H28.5404C28.5808 104.458 28.9446 104.013 29.7126 103.73L30.7938 103.336C31.9255 102.932 32.5419 102.245 32.5419 101.204C32.5419 99.86 31.6223 98.9505 29.9652 98.9505C28.2777 98.9505 27.3986 99.86 27.3986 101.467H28.601C28.7021 100.476 29.1366 100.012 29.9753 100.012C30.723 100.012 31.2384 100.436 31.2384 101.174C31.2384 101.76 30.9554 102.174 30.2077 102.457L29.1972 102.821C27.7825 103.336 27.2369 104.114 27.2369 105.65V106.246H32.5419ZM36.3475 106.347C38.0754 106.347 39.1364 105.549 39.1364 104.316C39.1364 103.285 38.6009 102.74 37.6409 102.558C38.4089 102.366 38.9343 101.83 38.9343 100.961C38.9343 99.769 37.9744 98.9505 36.3475 98.9505C34.7307 98.9505 33.7708 99.769 33.7708 100.961C33.7708 101.83 34.2962 102.366 35.0642 102.558C34.1042 102.74 33.5687 103.285 33.5687 104.316C33.5687 105.549 34.6196 106.347 36.3475 106.347ZM36.3475 105.357C35.4482 105.357 34.9025 104.953 34.9025 104.215C34.9025 103.488 35.4482 103.073 36.3475 103.073C37.2569 103.073 37.8329 103.488 37.8329 104.215C37.8329 104.953 37.2569 105.357 36.3475 105.357ZM36.3475 102.083C35.5593 102.083 35.0137 101.679 35.0137 101.012C35.0137 100.335 35.5593 99.9408 36.3475 99.9408C37.1458 99.9408 37.6914 100.335 37.6914 101.012C37.6914 101.679 37.1458 102.083 36.3475 102.083ZM41.9151 103.356C43.1276 103.356 43.6632 102.528 43.6632 101.174C43.6632 99.8195 43.1276 98.9909 41.9151 98.9909C40.7025 98.9909 40.1669 99.8195 40.1669 101.174C40.1669 102.528 40.7025 103.356 41.9151 103.356ZM41.9151 102.639C41.3593 102.639 41.0359 102.214 41.0359 101.174C41.0359 100.133 41.3593 99.7084 41.9151 99.7084C42.4607 99.7084 42.7841 100.133 42.7841 101.174C42.7841 102.214 42.4607 102.639 41.9151 102.639ZM42.875 106.246L46.735 99.0516H45.9367L42.0767 106.246H42.875ZM46.8967 106.307C48.1093 106.307 48.6448 105.478 48.6448 104.124C48.6448 102.77 48.1093 101.942 46.8967 101.942C45.6841 101.942 45.1486 102.77 45.1486 104.124C45.1486 105.478 45.6841 106.307 46.8967 106.307ZM46.8967 105.589C46.3409 105.589 46.0176 105.165 46.0176 104.124C46.0176 103.083 46.3409 102.659 46.8967 102.659C47.4423 102.659 47.7657 103.083 47.7657 104.124C47.7657 105.165 47.4423 105.589 46.8967 105.589Z" fill="white"/>
<path d="M85.0787 69.9738C85.0787 77.2287 79.1974 83.11 71.9425 83.11C64.6876 83.11 58.8064 77.2287 58.8064 69.9738C58.8064 62.7189 64.6876 56.8377 71.9425 56.8377C79.1974 56.8377 85.0787 62.7189 85.0787 69.9738Z" fill="white" stroke="#F2F2F2" stroke-width="2.02095"/>
</svg>
