<svg width="40" height="40" viewBox="0 0 40 40" fill="none" xmlns="http://www.w3.org/2000/svg">
<circle cx="20" cy="20" r="20" fill="#FED70A" fill-opacity="0.2"/>
<path d="M22.9478 12.309C22.1993 11.4649 21.1539 11 20.0001 11C18.8401 11 17.7912 11.4621 17.0462 12.301C16.2931 13.1492 15.9262 14.3019 16.0123 15.5466C16.1831 18.0023 17.972 20 20.0001 20C22.0282 20 23.814 18.0027 23.9874 15.5474C24.0747 14.3139 23.7055 13.1636 22.9478 12.309Z" fill="#FED70A"/>
<path d="M26.769 28.9999H13.231C13.0538 29.0024 12.8783 28.9621 12.7173 28.8818C12.5563 28.8016 12.4138 28.6835 12.3002 28.5361C12.0502 28.2124 11.9495 27.7703 12.0241 27.3232C12.3487 25.3724 13.3617 23.7337 14.954 22.5833C16.3686 21.5621 18.1604 21 20 21C21.8396 21 23.6314 21.5625 25.046 22.5833C26.6383 23.7333 27.6513 25.372 27.9759 27.3228C28.0505 27.7699 27.9498 28.212 27.6998 28.5357C27.5863 28.6832 27.4438 28.8014 27.2828 28.8816C27.1218 28.9619 26.9463 29.0023 26.769 28.9999Z" fill="#FED70A"/>
</svg>
