<svg width="19" height="14" viewBox="0 0 19 14" fill="none" xmlns="http://www.w3.org/2000/svg">
<path d="M15.1541 14C13.8147 14 12.7049 13.5707 11.8248 12.712C10.9829 11.8533 10.5619 10.6213 10.5619 9.016C10.5619 7.29867 11.0594 5.6 12.0544 3.92C13.0876 2.24 14.5227 0.933335 16.3595 0L17.6798 1.96C15.6898 3.304 14.5035 5.00267 14.1208 7.056C14.4653 6.90667 14.8671 6.832 15.3263 6.832C16.3978 6.832 17.2779 7.168 17.9668 7.84C18.6556 8.512 19 9.37067 19 10.416C19 11.4613 18.6365 12.32 17.9094 12.992C17.1823 13.664 16.2638 14 15.1541 14ZM4.59214 14C3.25277 14 2.143 13.5707 1.26284 12.712C0.420947 11.8533 0 10.6213 0 9.016C0 7.29867 0.497482 5.6 1.49245 3.92C2.52568 2.24 3.96072 0.933335 5.79758 0L7.11782 1.96C5.12789 3.304 3.94159 5.00267 3.55891 7.056C3.90332 6.90667 4.30514 6.832 4.76435 6.832C5.83585 6.832 6.71601 7.168 7.40483 7.84C8.09365 8.512 8.43807 9.37067 8.43807 10.416C8.43807 11.4613 8.07452 12.32 7.34743 12.992C6.62034 13.664 5.70191 14 4.59214 14Z" fill="white"/>
</svg>
