<svg width="24" height="24" viewBox="0 0 24 24" fill="none" xmlns="http://www.w3.org/2000/svg">
<path d="M21.688 10.7459C21.528 10.6439 20.266 9.88989 19.766 9.65999L19.1461 8.15999C19.3301 7.66402 19.684 6.27395 19.7461 6.03191H19.746C19.7965 5.80814 19.7285 5.57406 19.566 5.41195L18.588 4.43998C18.4263 4.27676 18.1918 4.20867 17.9681 4.26001C17.784 4.30201 16.368 4.65998 15.84 4.86005L14.34 4.24008C14.1219 3.76005 13.388 2.53012 13.254 2.31808V2.31794C13.1335 2.12068 12.9192 2.00028 12.688 2H11.3119C11.0823 2.00014 10.8687 2.11789 10.7459 2.31194C10.6439 2.47196 9.88989 3.73395 9.65999 4.23395L8.15999 4.85391C7.66402 4.6699 6.27395 4.31598 6.03191 4.25388V4.25402C5.80814 4.20351 5.57406 4.27146 5.41195 4.43398L4.43998 5.41195C4.27676 5.57364 4.20867 5.80817 4.26001 6.03192C4.30201 6.21593 4.65998 7.63196 4.86005 8.15999L4.24008 9.66C3.76005 9.87805 2.53012 10.612 2.31808 10.7459H2.31794C2.12068 10.8665 2.00028 11.0808 2 11.3119V12.686C2.00014 12.9157 2.11789 13.1293 2.31194 13.252C2.47196 13.354 3.73395 14.108 4.23395 14.3379L4.85391 15.8379C4.6699 16.3339 4.31598 17.7239 4.25388 17.966H4.25402C4.20351 18.1899 4.27146 18.424 4.43398 18.5859L5.40595 19.5579V19.5581C5.56764 19.7213 5.80217 19.7892 6.02592 19.738C6.20993 19.696 7.62596 19.3381 8.15399 19.138L9.654 19.7579C9.87205 20.238 10.606 21.4679 10.7399 21.68C10.861 21.8799 11.0782 22.0014 11.3119 22H12.686C12.9157 21.9998 13.1293 21.8821 13.252 21.688C13.354 21.528 14.108 20.266 14.3379 19.766L15.8379 19.1461C16.3339 19.3301 17.7239 19.684 17.966 19.7461V19.746C18.1899 19.7965 18.424 19.7285 18.5859 19.566L19.5579 18.594H19.5581C19.7213 18.4323 19.7892 18.1978 19.738 17.9741C19.696 17.7901 19.3381 16.374 19.138 15.846L19.7579 14.346C20.238 14.1279 21.4679 13.394 21.68 13.2601C21.8799 13.139 22.0014 12.9217 22 12.6881V11.3119C22.0018 11.0819 21.8835 10.8673 21.688 10.7459L21.688 10.7459ZM11.9998 16.3538C10.844 16.3528 9.73596 15.8926 8.91942 15.0746C8.10288 14.2566 7.64474 13.1478 7.64585 11.9919C7.64682 10.8361 8.10706 9.72796 8.92499 8.91142C9.74307 8.09488 10.8519 7.63685 12.0077 7.63785C13.1635 7.63896 14.2717 8.09906 15.0882 8.91713C15.9048 9.73521 16.3628 10.844 16.3618 11.9999C16.3591 13.1551 15.8985 14.2623 15.0808 15.0785C14.263 15.8947 13.155 16.3534 11.9998 16.3538H11.9998Z" fill="#0F0D00" fill-opacity="0.6"/>
</svg>
