<svg width="30" height="30" viewBox="0 0 30 30" fill="none" xmlns="http://www.w3.org/2000/svg">
<path d="M23.0859 28.1254C22.8886 28.1262 22.696 28.0647 22.5357 27.9496L15 22.4864L7.46424 27.9496C7.30324 28.0664 7.10928 28.129 6.9104 28.1282C6.71151 28.1275 6.51801 28.0636 6.35787 27.9456C6.19772 27.8277 6.07924 27.6619 6.01954 27.4722C5.95984 27.2824 5.96201 27.0787 6.02576 26.8903L8.96482 18.185L1.34763 12.9614C1.18264 12.8483 1.05811 12.6855 0.992246 12.4967C0.926379 12.3079 0.922625 12.1029 0.981531 11.9118C1.04044 11.7207 1.15892 11.5534 1.31966 11.4344C1.48041 11.3154 1.67499 11.251 1.87498 11.2504H11.2722L14.1082 2.52289C14.1693 2.33447 14.2885 2.17023 14.4487 2.05375C14.6089 1.93727 14.8019 1.87453 15 1.87453C15.1981 1.87453 15.3911 1.93727 15.5513 2.05375C15.7115 2.17023 15.8307 2.33447 15.8918 2.52289L18.7277 11.2534H28.125C28.3252 11.2533 28.5202 11.3173 28.6815 11.436C28.8427 11.5548 28.9616 11.7221 29.0209 11.9133C29.0802 12.1046 29.0767 12.3098 29.0109 12.4989C28.9451 12.688 28.8204 12.8511 28.6553 12.9643L21.0351 18.185L23.9724 26.8879C24.02 27.0288 24.0334 27.179 24.0115 27.3261C23.9896 27.4732 23.933 27.613 23.8464 27.7339C23.7597 27.8548 23.6456 27.9534 23.5134 28.0214C23.3812 28.0895 23.2346 28.1252 23.0859 28.1254Z" fill="white"/>
</svg>
