<svg width="21" height="21" viewBox="0 0 21 21" fill="none" xmlns="http://www.w3.org/2000/svg">
<circle cx="10.9269" cy="10.7316" r="9.62929" fill="white" stroke="#0F0D00" stroke-width="0.887756"/>
<g clip-path="url(#clip0_5081_41686)">
<path d="M10.9267 9.72434C10.7283 9.72434 10.5318 9.76343 10.3485 9.83936C10.1652 9.91529 9.99861 10.0266 9.8583 10.1669C9.71799 10.3072 9.6067 10.4738 9.53076 10.6571C9.45483 10.8404 9.41575 11.0369 9.41575 11.2353C9.41575 11.4337 9.45483 11.6302 9.53076 11.8135C9.6067 11.9969 9.71799 12.1634 9.8583 12.3037C9.99861 12.444 10.1652 12.5553 10.3485 12.6313C10.5318 12.7072 10.7283 12.7463 10.9267 12.7463C11.3275 12.7463 11.7118 12.5871 11.9951 12.3037C12.2785 12.0204 12.4377 11.6361 12.4377 11.2353C12.4377 10.8346 12.2785 10.4503 11.9951 10.1669C11.7118 9.88354 11.3275 9.72434 10.9267 9.72434ZM14.956 8.21337H13.7472C13.6602 8.2094 13.5763 8.18012 13.5057 8.12912C13.4351 8.07813 13.3809 8.00763 13.3498 7.92628L13.0371 6.98897C13.0057 6.90772 12.9514 6.83735 12.8808 6.78645C12.8101 6.73556 12.7262 6.70635 12.6392 6.70239H9.21428C9.04808 6.70239 8.86877 6.83133 8.8169 6.98847L8.50362 7.92628C8.47247 8.00759 8.41829 8.07805 8.34771 8.12904C8.27713 8.18003 8.19321 8.20934 8.10623 8.21337H6.89745C6.34343 8.21337 5.89014 8.66666 5.89014 9.22069V13.7536C5.89014 14.3076 6.34343 14.7609 6.89745 14.7609H14.956C15.51 14.7609 15.9633 14.3076 15.9633 13.7536V9.22069C15.9633 8.66666 15.51 8.21337 14.956 8.21337ZM10.9267 13.7536C10.2588 13.7536 9.61829 13.4883 9.14602 13.016C8.67375 12.5438 8.40843 11.9032 8.40843 11.2353C8.40843 10.5674 8.67375 9.92689 9.14602 9.45462C9.61829 8.98235 10.2588 8.71703 10.9267 8.71703C11.5946 8.71703 12.2352 8.98235 12.7074 9.45462C13.1797 9.92689 13.445 10.5674 13.445 11.2353C13.445 11.9032 13.1797 12.5438 12.7074 13.016C12.2352 13.4883 11.5946 13.7536 10.9267 13.7536ZM14.7042 9.82508C14.6107 9.82508 14.521 9.78793 14.4549 9.72181C14.3887 9.65569 14.3516 9.56602 14.3516 9.47251C14.3516 9.37901 14.3887 9.28933 14.4549 9.22322C14.521 9.1571 14.6107 9.11995 14.7042 9.11995C14.7977 9.11995 14.8873 9.1571 14.9535 9.22322C15.0196 9.28933 15.0567 9.37901 15.0567 9.47251C15.0567 9.56602 15.0196 9.65569 14.9535 9.72181C14.8873 9.78793 14.7977 9.82508 14.7042 9.82508Z" fill="black"/>
</g>
<defs>
<clipPath id="clip0_5081_41686">
<rect width="10.0732" height="10.0732" fill="white" transform="translate(5.89014 5.69507)"/>
</clipPath>
</defs>
</svg>
