<svg width="18" height="18" viewBox="0 0 18 18" fill="none" xmlns="http://www.w3.org/2000/svg">
<path d="M12.75 13.5C12.5511 13.5 12.3603 13.421 12.2197 13.2803C12.079 13.1397 12 12.9489 12 12.75V6H5.25C5.05109 6 4.86032 5.92098 4.71967 5.78033C4.57902 5.63968 4.5 5.44891 4.5 5.25C4.5 5.05109 4.57902 4.86032 4.71967 4.71967C4.86032 4.57902 5.05109 4.5 5.25 4.5H12.75C12.9489 4.5 13.1397 4.57902 13.2803 4.71967C13.421 4.86032 13.5 5.05109 13.5 5.25V12.75C13.5 12.9489 13.421 13.1397 13.2803 13.2803C13.1397 13.421 12.9489 13.5 12.75 13.5Z" fill="#FED70A" stroke="#FED70A" stroke-width="0.5"/>
<path d="M5.24996 13.5C5.10165 13.5 4.95668 13.456 4.83337 13.3736C4.71006 13.2911 4.61396 13.174 4.5572 13.037C4.50045 12.9 4.4856 12.7492 4.51452 12.6037C4.54345 12.4583 4.61486 12.3246 4.71971 12.2197L12.2197 4.71975C12.3612 4.58313 12.5506 4.50754 12.7473 4.50924C12.9439 4.51095 13.132 4.58983 13.2711 4.72889C13.4101 4.86794 13.489 5.05605 13.4907 5.2527C13.4924 5.44935 13.4168 5.6388 13.2802 5.78025L5.78021 13.2803C5.71066 13.35 5.62801 13.4053 5.53701 13.443C5.44602 13.4807 5.34846 13.5001 5.24996 13.5Z" fill="#FED70A" stroke="#FED70A" stroke-width="0.5"/>
</svg>
