<svg width="16" height="16" viewBox="0 0 16 16" fill="none" xmlns="http://www.w3.org/2000/svg">
<path d="M11.3333 12C11.1565 12 10.987 11.9298 10.8619 11.8047C10.7369 11.6797 10.6667 11.5101 10.6667 11.3333V5.33333H4.66667C4.48986 5.33333 4.32029 5.2631 4.19526 5.13807C4.07024 5.01305 4 4.84348 4 4.66667C4 4.48986 4.07024 4.32029 4.19526 4.19526C4.32029 4.07024 4.48986 4 4.66667 4H11.3333C11.5101 4 11.6797 4.07024 11.8047 4.19526C11.9298 4.32029 12 4.48986 12 4.66667V11.3333C12 11.5101 11.9298 11.6797 11.8047 11.8047C11.6797 11.9298 11.5101 12 11.3333 12Z" fill="#0F0D00" fill-opacity="0.8" stroke="#0F0D00" stroke-opacity="0.8" stroke-width="0.5"/>
<path d="M4.66665 12C4.53481 12 4.40595 11.9608 4.29634 11.8876C4.18673 11.8143 4.10131 11.7102 4.05086 11.5884C4.00041 11.4666 3.98721 11.3326 4.01292 11.2033C4.03864 11.074 4.10211 10.9552 4.19531 10.862L10.862 4.19532C10.9877 4.07388 11.1561 4.00668 11.3309 4.0082C11.5057 4.00972 11.6729 4.07984 11.7965 4.20344C11.9201 4.32705 11.9902 4.49425 11.9918 4.66905C11.9933 4.84385 11.9261 5.01225 11.8046 5.13799L5.13798 11.8047C5.07615 11.8667 5.00269 11.9158 4.9218 11.9493C4.84092 11.9829 4.7542 12.0001 4.66665 12Z" fill="#0F0D00" fill-opacity="0.8" stroke="#0F0D00" stroke-opacity="0.8" stroke-width="0.5"/>
</svg>
