<svg width="20" height="20" viewBox="0 0 20 20" fill="none" xmlns="http://www.w3.org/2000/svg">
<path d="M15.3909 18.7501C15.2594 18.7506 15.131 18.7096 15.0241 18.6329L10.0003 14.9907L4.97648 18.6329C4.86915 18.7108 4.73984 18.7525 4.60726 18.752C4.47467 18.7515 4.34567 18.7089 4.2389 18.6302C4.13214 18.5516 4.05315 18.4411 4.01335 18.3146C3.97355 18.1881 3.975 18.0523 4.0175 17.9267L5.97687 12.1232L0.898748 8.64073C0.788753 8.56539 0.705734 8.45684 0.661823 8.33095C0.617912 8.20506 0.615409 8.06843 0.65468 7.94101C0.693951 7.8136 0.772938 7.70209 0.8801 7.62276C0.987262 7.54344 1.11698 7.50046 1.25031 7.50011H7.51515L9.40578 1.68175C9.44651 1.55613 9.52598 1.44664 9.63279 1.36899C9.7396 1.29134 9.86826 1.24951 10.0003 1.24951C10.1324 1.24951 10.261 1.29134 10.3678 1.36899C10.4746 1.44664 10.5541 1.55613 10.5948 1.68175L12.4855 7.50206H18.7503C18.8838 7.502 19.0138 7.54467 19.1213 7.62385C19.2288 7.70302 19.3081 7.81453 19.3476 7.94204C19.3871 8.06955 19.3848 8.20636 19.3409 8.33244C19.297 8.45852 19.214 8.56724 19.1038 8.64269L14.0237 12.1232L15.982 17.9251C16.0137 18.019 16.0226 18.1192 16.008 18.2172C15.9934 18.3153 15.9556 18.4085 15.8979 18.4891C15.8402 18.5697 15.7641 18.6354 15.6759 18.6808C15.5878 18.7262 15.4901 18.7499 15.3909 18.7501Z" fill="#FED70A"/>
</svg>
